<?xml version="1.0" standalone="no"?>
<!DOCTYPE svg PUBLIC "-//W3C//DTD SVG 1.1//EN" "http://www.w3.org/Graphics/SVG/1.1/DTD/svg11.dtd" >
<svg xmlns="http://www.w3.org/2000/svg" xmlns:xlink="http://www.w3.org/1999/xlink" version="1.1">
<metadata>
Created by FontForge 20170731 at Wed Oct  5 19:10:01 2022
 By Aleksey,,,
Copyright (c) 2017 by Daniel Hernandez. All rights reserved.
</metadata>
<defs>
<font id="LotaGrotesque-Regular" horiz-adv-x="0" >
  <font-face 
    font-family="Lota Grotesque"
    font-weight="400"
    font-stretch="normal"
    units-per-em="2048"
    panose-1="0 0 5 0 0 0 0 0 0 0"
    ascent="1638"
    descent="-410"
    x-height="1004"
    cap-height="1405"
    bbox="-1081 -561.275 2712 1835"
    underline-thickness="102"
    underline-position="-307"
    unicode-range="U+0020-FB02"
  />
<missing-glyph horiz-adv-x="831" 
 />
    <glyph glyph-name="fi" unicode="fi" horiz-adv-x="1210" 
d="M1061 1004v-1004h-182v852h-486v-852h-180v852h-141v152h141v131q0 152 103.5 246t261.5 94q41 0 88 -6.5t61 -12.5l-8 -158q-48 19 -131 19q-96 0 -145.5 -51t-49.5 -131v-131h668zM975 1454q53 0 89 -35.5t36 -87.5q0 -53 -36 -88t-89 -35t-89 35t-36 88q0 52 36 87.5
t89 35.5z" />
    <glyph glyph-name="fl" unicode="fl" horiz-adv-x="1222" 
d="M213 1135q0 152 103.5 246t261.5 94q41 0 88 -6.5t61 -12.5l-8 -158q-48 19 -131 19q-96 0 -145.5 -51t-49.5 -131v-131h320v-152h-320v-852h-180v852h-141v152h141v131zM893 1454h180v-1454h-180v1454z" />
    <glyph glyph-name=".notdef" horiz-adv-x="831" 
 />
    <glyph glyph-name=".null" 
 />
    <glyph glyph-name="nonmarkingreturn" horiz-adv-x="682" 
 />
    <glyph glyph-name="space" unicode=" " horiz-adv-x="471" 
 />
    <glyph glyph-name="exclam" unicode="!" horiz-adv-x="530" 
d="M362 1454l-20 -1036h-154l-20 1036h194zM260 217q57 0 92 -34.5t35 -90.5q0 -55 -35 -89t-92 -34t-92 34t-35 89q0 56 35 90.5t92 34.5z" />
    <glyph glyph-name="quotedbl" unicode="&#x22;" horiz-adv-x="647" 
d="M119 1114l-8 414h151l-8 -414h-135zM393 1114l-8 414h152l-9 -414h-135z" />
    <glyph glyph-name="numbersign" unicode="#" horiz-adv-x="1294" 
d="M1231 854h-289l-41 -264h258v-152h-280l-68 -438h-156l68 438h-231l-66 -438h-156l66 438h-270v152h294l39 264h-264v152h287l61 399h156l-61 -399h231l61 399h156l-61 -399h266v-152zM745 590l41 264h-231l-39 -264h229z" />
    <glyph glyph-name="dollar" unicode="$" horiz-adv-x="1185" 
d="M1112 367q0 -150 -113 -250.5t-303 -122.5v-207h-188v205q-211 19 -326.5 125t-115.5 286h178q0 -121 93.5 -188.5t270.5 -67.5q152 0 237.5 58t84.5 162q0 63 -28.5 108.5t-76 71.5t-110 44.5t-131 33.5t-137 32t-131 45.5t-110 69t-76 108.5t-28.5 158q0 153 109.5 253
t296.5 120v205h188v-203q188 -22 293.5 -126.5t104.5 -274.5h-179q0 124 -83.5 184.5t-233.5 60.5q-313 0 -313 -215q0 -60 28.5 -103.5t76 -68t109.5 -42.5t130.5 -33t137.5 -32.5t131 -47.5t109.5 -72.5t76 -112.5t28.5 -163z" />
    <glyph glyph-name="percent" unicode="%" horiz-adv-x="1718" 
d="M471 0l606 1417h172l-604 -1417h-174zM387 625q-153 0 -239.5 103t-86.5 292t86.5 292t239.5 103t239.5 -103t86.5 -292t-86.5 -292t-239.5 -103zM387 782q141 0 141 238q0 237 -141 237t-141 -237q0 -238 141 -238zM1333 -10q-153 0 -239 103t-86 292t86 292t239 103
t238.5 -103t85.5 -292t-85.5 -292t-238.5 -103zM1333 147q142 0 142 238t-142 238q-143 0 -143 -238t143 -238z" />
    <glyph glyph-name="ampersand" unicode="&#x26;" horiz-adv-x="1257" 
d="M1241 0h-213l-104 113q-161 -123 -373 -123q-209 0 -335 110t-126 293q0 116 53.5 198.5t184.5 168.5q-123 149 -123 319q0 152 105.5 247t273.5 95q161 0 257.5 -85t96.5 -228q0 -95 -60 -173t-188 -149l-102 -57l332 -371q53 106 53 254h178q0 -220 -117 -381z
M584 1262q-89 0 -143 -50t-54 -133q0 -60 21.5 -113t74.5 -118l115 63q158 86 158 197q0 73 -45 113.5t-127 40.5zM563 152q152 0 252 77l-381 412q-89 -58 -125.5 -114.5t-36.5 -133.5q-1 -112 76.5 -176.5t214.5 -64.5z" />
    <glyph glyph-name="quotesingle" unicode="'" horiz-adv-x="372" 
d="M119 1114l-8 414h151l-8 -414h-135z" />
    <glyph glyph-name="parenleft" unicode="(" horiz-adv-x="591" 
d="M100 637q0 162 23 312t62 265t82.5 201t92.5 150h179q-35 -46 -72.5 -118.5t-81 -187.5t-71 -278.5t-27.5 -343.5t28 -344.5t71.5 -279.5t80.5 -186.5t72 -117.5h-179q-66 87 -121 207.5t-97 313.5t-42 407z" />
    <glyph glyph-name="parenright" unicode=")" horiz-adv-x="591" 
d="M489 637q0 -214 -42 -407t-97 -313.5t-121 -207.5h-178q35 46 72 117.5t80.5 186.5t71.5 279.5t28 344.5t-27.5 343.5t-71 278.5t-81 187.5t-72.5 118.5h178q49 -64 92.5 -150t82.5 -201t62 -265t23 -312z" />
    <glyph glyph-name="asterisk" unicode="*" horiz-adv-x="747" 
d="M668 1253l-183 -51l123 -153l-123 -91l-110 170l-113 -170l-123 91l123 155l-182 49l47 146l180 -68l-8 197h152l-11 -197l181 68z" />
    <glyph glyph-name="plus" unicode="+" horiz-adv-x="950" 
d="M881 784v-149h-320v-338h-172v338h-319v149h319v338h172v-338h320z" />
    <glyph glyph-name="comma" unicode="," horiz-adv-x="473" 
d="M104 -195q56 0 104 50.5t48 111.5q-1 0 -10 -1t-17 -1q-57 0 -91 35t-34 90q0 58 36.5 92.5t92.5 34.5q59 0 99.5 -43t40.5 -137q0 -142 -86 -240.5t-183 -93.5v102z" />
    <glyph glyph-name="hyphen" unicode="-" horiz-adv-x="899" 
d="M131 514v135h637v-135h-637z" />
    <glyph glyph-name="period" unicode="." horiz-adv-x="452" 
d="M225 238q57 0 92 -34.5t35 -90.5q0 -55 -35 -89t-92 -34t-92 34t-35 89q0 56 35 90.5t92 34.5z" />
    <glyph glyph-name="slash" unicode="/" horiz-adv-x="862" 
d="M45 -41l594 1487h180l-590 -1487h-184z" />
    <glyph glyph-name="zero" unicode="0" horiz-adv-x="1263" 
d="M633 -10q-250 0 -389.5 183.5t-139.5 528.5q0 346 139.5 532.5t389.5 186.5q249 0 387.5 -186.5t138.5 -532.5q0 -345 -138 -528.5t-388 -183.5zM633 150q167 0 255.5 139.5t88.5 412.5t-89 416.5t-255 143.5q-167 0 -256.5 -144t-89.5 -416q0 -273 89.5 -412.5
t256.5 -139.5z" />
    <glyph glyph-name="one" unicode="1" horiz-adv-x="804" 
d="M543 160h223v-160h-674v160h270v981q-53 -32 -112.5 -45t-157.5 -13v156q117 0 194 39.5t124 126.5h133v-1245z" />
    <glyph glyph-name="two" unicode="2" horiz-adv-x="1103" 
d="M377 160h657v-160h-925v131l483 494q119 120 172.5 203t52.5 182q0 127 -68.5 189.5t-191.5 62.5q-126 0 -204.5 -77.5t-78.5 -213.5h-180q-1 202 131.5 326t329.5 124q195 0 319.5 -110t124.5 -301q3 -211 -235 -455z" />
    <glyph glyph-name="three" unicode="3" horiz-adv-x="1153" 
d="M842 729q206 -99 209 -336q0 -186 -139.5 -294.5t-350.5 -108.5q-214 0 -345.5 107.5t-131.5 299.5h178q1 -126 86 -186.5t221 -60.5q138 0 218.5 60t80.5 177q-1 134 -85 193t-240 59h-113v160h92q140 0 226.5 56t87.5 171q0 118 -73.5 177t-195.5 59q-58 0 -105.5 -14
t-86.5 -44.5t-61 -83.5t-23 -125l-178 -2q-1 198 130.5 313t331.5 115q194 0 318.5 -107t124.5 -288q-3 -200 -176 -297z" />
    <glyph glyph-name="four" unicode="4" horiz-adv-x="1175" 
d="M1102 512v-160h-182v-352h-181v352h-694v160l617 893h258v-893h182zM240 514v-2h499v715h-2z" />
    <glyph glyph-name="five" unicode="5" horiz-adv-x="1130" 
d="M592 909q204 0 330.5 -122t126.5 -341q0 -207 -140.5 -331.5t-351.5 -124.5q-203 0 -339 116.5t-136 311.5h178q1 -89 43.5 -151t108 -89.5t147.5 -27.5q136 0 221.5 77.5t85.5 218.5q0 154 -81 229t-212 75q-143 0 -264 -91l-170 74l49 672h791v-160h-627l-30 -403
q122 67 270 67z" />
    <glyph glyph-name="six" unicode="6" horiz-adv-x="1185" 
d="M629 885q200 0 331.5 -123t131.5 -322q0 -200 -132 -325t-337 -125q-246 0 -381.5 180t-135.5 530q0 349 137.5 533t383.5 184q194 0 317.5 -108.5t122.5 -278.5h-178q-1 112 -73.5 169.5t-182.5 57.5q-170 0 -262 -140.5t-92 -414.5v-8q57 87 149.5 139t200.5 52z
M623 150q125 0 205.5 78.5t80.5 213.5q0 131 -76.5 207t-203.5 76q-72 0 -137 -24.5t-113.5 -74.5t-61 -125.5t20.5 -176.5q76 -174 285 -174z" />
    <glyph glyph-name="seven" unicode="7" horiz-adv-x="991" 
d="M215 0l537 1243v2h-717v160h915v-139l-538 -1266h-197z" />
    <glyph glyph-name="eight" unicode="8" horiz-adv-x="1183" 
d="M866 745q102 -49 160.5 -135t58.5 -204q0 -135 -67.5 -231t-177 -140.5t-248.5 -44.5q-82 0 -155.5 16t-135.5 50t-107 82.5t-70.5 117t-25.5 150.5q0 118 58.5 204t160.5 135q-78 49 -122.5 124t-44.5 167q0 119 63 208.5t162 133t217 43.5t217 -43.5t162 -133
t63 -208.5q0 -92 -45 -167t-123 -124zM592 1262q-114 0 -187.5 -64t-72.5 -162q-1 -99 72 -162t188 -63q116 0 188.5 63t71.5 162q2 98 -71.5 162t-188.5 64zM592 150q141 0 226.5 68.5t84.5 187.5q1 121 -84.5 188.5t-226.5 67.5q-140 0 -226 -68t-85 -188
q-1 -119 85 -187.5t226 -68.5z" />
    <glyph glyph-name="nine" unicode="9" horiz-adv-x="1185" 
d="M563 1417q249 0 382.5 -174t133.5 -536q0 -349 -137 -533t-383 -184q-194 0 -317.5 108.5t-122.5 278.5h178q1 -112 73.5 -169.5t182.5 -57.5q170 0 262 140.5t92 414.5v8q-57 -87 -149.5 -139t-200.5 -52q-200 0 -331.5 123t-131.5 322q0 200 132 325t337 125zM557 682
q72 0 137 25t113.5 75t61 125t-20.5 176q-76 174 -285 174q-125 0 -206 -78.5t-81 -213.5q0 -131 77 -207t204 -76z" />
    <glyph glyph-name="colon" unicode=":" horiz-adv-x="520" 
d="M256 942q57 0 92 -34.5t35 -90.5q0 -55 -35 -89t-92 -34t-92 34t-35 89q0 56 35 90.5t92 34.5zM260 238q57 0 92 -34.5t35 -90.5q0 -55 -35 -89t-92 -34t-92 34t-35 89q0 56 35 90.5t92 34.5z" />
    <glyph glyph-name="semicolon" unicode=";" horiz-adv-x="548" 
d="M285 942q57 0 92 -34.5t35 -90.5q0 -55 -35 -89t-92 -34t-92 34t-35 89q0 56 35 90.5t92 34.5zM137 -195q56 0 104 50.5t48 111.5q-1 0 -10 -1t-17 -1q-57 0 -91 35t-34 90q0 58 36.5 92.5t92.5 34.5q60 0 100 -43t40 -137q0 -142 -86 -240.5t-183 -93.5v102z" />
    <glyph glyph-name="less" unicode="&#x3c;" horiz-adv-x="1021" 
d="M879 1176v-175l-641 -282l641 -285v-174l-811 369v178z" />
    <glyph glyph-name="equal" unicode="=" horiz-adv-x="1089" 
d="M139 840v149h811v-149h-811zM139 430v150h811v-150h-811z" />
    <glyph glyph-name="greater" unicode="&#x3e;" horiz-adv-x="1021" 
d="M143 1176l811 -369v-178l-811 -369v174l641 285l-641 282v175z" />
    <glyph glyph-name="question" unicode="?" horiz-adv-x="935" 
d="M481 1464q184 0 286.5 -98t102.5 -256q0 -57 -20 -110t-51.5 -94t-70 -80.5t-77 -76.5t-70 -73t-51.5 -79t-20 -87v-92h-166v98q0 74 35.5 141.5t86 119.5t101 102.5t86 109.5t35.5 121q0 95 -59.5 145t-157.5 50q-107 0 -170.5 -62t-64.5 -184l-179 -2q0 189 116 298
t308 109zM426 217q55 0 91 -35.5t36 -89.5t-35.5 -88.5t-93.5 -34.5q-57 0 -91 33.5t-34 89.5t36 90.5t91 34.5z" />
    <glyph glyph-name="at" unicode="@" horiz-adv-x="1861" 
d="M1124 918h181v-611q0 -104 90 -104q95 0 150.5 99.5t53.5 266.5q-3 298 -181 474t-468 176q-152 0 -281.5 -51.5t-221.5 -144.5t-143.5 -227t-51.5 -294q0 -322 192.5 -518.5t501.5 -196.5q152 0 296.5 44.5t250.5 123.5l82 -129q-116 -89 -291 -141.5t-352 -49.5
q-244 4 -436 114t-298 301.5t-108 430.5q-1 148 39 284t115 245.5t177.5 190.5t233.5 125t277 44q185 0 340 -60t261.5 -166t166.5 -254.5t61 -322.5q3 -220 -98 -364.5t-262 -153.5q-98 -4 -170.5 45.5t-95.5 134.5q-38 -72 -109 -111.5t-166 -39.5q-172 0 -277.5 117.5
t-105.5 306.5q0 191 107 308.5t280 117.5q177 0 260 -129v119zM889 229q98 0 166.5 73t68.5 179v41q0 106 -68.5 180t-166.5 74q-103 0 -166.5 -75.5t-63.5 -198.5t63.5 -198t166.5 -75z" />
    <glyph glyph-name="A" unicode="A" horiz-adv-x="1296" 
d="M1087 0l-129 356h-620l-129 -356h-182l518 1405h207l518 -1405h-183zM397 516h502l-250 688z" />
    <glyph glyph-name="B" unicode="B" horiz-adv-x="1273" 
d="M932 739q101 -27 170 -116.5t69 -233.5q0 -180 -115.5 -284.5t-312.5 -104.5h-557v1405h553q177 0 279 -97.5t102 -252.5q0 -55 -13 -104t-33 -82.5t-46.5 -60.5t-50 -42t-45.5 -23v-4zM938 1028q0 105 -62 162t-171 57h-338v-446h335q115 0 175.5 63t60.5 164zM739 156
q117 0 183.5 62.5t66.5 184.5q0 124 -69 187t-193 63h-360v-497h372z" />
    <glyph glyph-name="C" unicode="C" horiz-adv-x="1409" 
d="M733 147q189 0 289.5 95t120.5 254h184q-13 -114 -56 -206t-115 -160t-180 -105t-245 -37q-282 0 -456.5 191.5t-174.5 522.5q0 213 82 376.5t225.5 251t323.5 87.5q266 0 419 -139t177 -375h-184q-20 162 -120.5 258t-289.5 96q-194 0 -322 -151.5t-128 -403.5
q0 -258 126.5 -406.5t323.5 -148.5z" />
    <glyph glyph-name="D" unicode="D" horiz-adv-x="1458" 
d="M698 1405q145 0 267 -48t209 -137t135.5 -222t48.5 -296q0 -326 -181.5 -514t-478.5 -188h-512v1405h512zM698 158q216 0 347 145t131 399t-131 398.5t-347 144.5h-331v-1087h331z" />
    <glyph glyph-name="E" unicode="E" horiz-adv-x="1232" 
d="M367 160h763v-160h-944v1405h934v-162h-753v-432h688v-162h-688v-489z" />
    <glyph glyph-name="F" unicode="F" horiz-adv-x="1146" 
d="M1090 1251h-723v-483h632v-156h-632v-612h-181v1405h904v-154z" />
    <glyph glyph-name="G" unicode="G" horiz-adv-x="1470" 
d="M756 731h592v-731h-140v244q-67 -119 -184.5 -187.5t-288.5 -68.5q-141 0 -258.5 49.5t-200.5 141.5t-129.5 228.5t-46.5 303.5q0 315 182 510.5t476 195.5q132 0 239 -36t178 -101t113 -150t53 -186h-184q-10 65 -36.5 119t-72.5 98.5t-119.5 70t-168.5 25.5
q-215 0 -346 -150t-131 -396q0 -263 126 -413.5t328 -150.5q103 0 189 34t142 90.5t89.5 125t40.5 140.5v41h-442v153z" />
    <glyph glyph-name="H" unicode="H" horiz-adv-x="1476" 
d="M1110 1405h180v-1405h-180v647h-743v-647h-181v1405h181v-596h743v596z" />
    <glyph glyph-name="I" unicode="I" horiz-adv-x="552" 
d="M186 0v1405h181v-1405h-181z" />
    <glyph glyph-name="J" unicode="J" horiz-adv-x="1056" 
d="M223 434q1 -75 20.5 -131.5t53.5 -89t75.5 -48t90.5 -15.5q109 0 174 72.5t65 211.5v971h181v-959q0 -208 -108.5 -331t-309.5 -123q-205 0 -313.5 116.5t-108.5 325.5h180z" />
    <glyph glyph-name="K" unicode="K" horiz-adv-x="1314" 
d="M1106 0l-496 657l-243 -272v-385h-181v1405h181v-791l690 791h225l-551 -614l594 -791h-219z" />
    <glyph glyph-name="L" unicode="L" horiz-adv-x="1132" 
d="M367 160h743v-160h-924v1405h181v-1245z" />
    <glyph glyph-name="M" unicode="M" horiz-adv-x="1712" 
d="M1237 1405h289l-2 -1405h-174v1247l-414 -1247h-162l-414 1241v-1241h-174l-2 1405h287l383 -1186z" />
    <glyph glyph-name="N" unicode="N" horiz-adv-x="1472" 
d="M1106 1405h180v-1405h-184l-735 1124v-1124h-181v1405h185l735 -1122v1122z" />
    <glyph glyph-name="O" unicode="O" horiz-adv-x="1556" 
d="M778 -12q-143 0 -267 49t-216 138t-144.5 223.5t-52.5 297.5t52.5 299.5t144.5 228t216.5 142.5t266.5 51q143 0 267 -49t216 -138t144.5 -223.5t52.5 -297.5t-52.5 -299.5t-144.5 -228t-216.5 -142.5t-266.5 -51zM778 147q103 0 193.5 38.5t158 108t107 175.5t39.5 233
q0 252 -143 403.5t-355 151.5q-103 0 -193.5 -38.5t-158 -108.5t-106.5 -175.5t-39 -232.5t39 -233t106.5 -175.5t158 -108t193.5 -38.5z" />
    <glyph glyph-name="P" unicode="P" horiz-adv-x="1232" 
d="M719 1405q202 0 328.5 -107.5t126.5 -300.5q0 -194 -126.5 -304.5t-328.5 -110.5h-352v-582h-181v1405h533zM719 739q130 0 201 71.5t71 182.5t-71 182.5t-201 71.5h-352v-508h352z" />
    <glyph glyph-name="Q" unicode="Q" horiz-adv-x="1556" 
d="M1458 709q0 -292 -157 -483t-408 -230q64 -68 142.5 -98.5t185.5 -30.5l10 -176q-171 0 -307 79t-222 222q-129 12 -239.5 66t-191.5 142.5t-127 216t-46 279.5q0 163 52.5 299.5t144.5 228t216.5 142.5t266.5 51q143 0 267 -49t216 -138t144.5 -223.5t52.5 -297.5z
M778 147q103 0 193.5 38.5t158 108t107 175.5t39.5 233q0 252 -143 403.5t-355 151.5q-103 0 -193.5 -38.5t-158 -108.5t-106.5 -175.5t-39 -232.5t39 -233t106.5 -175.5t158 -108t193.5 -38.5z" />
    <glyph glyph-name="R" unicode="R" horiz-adv-x="1314" 
d="M1260 164l14 -158q-56 -16 -115 -16q-65 0 -114.5 15.5t-87.5 48.5t-65 69.5t-58 93.5l-187 348h-280v-565h-181v1405h514q203 0 330 -111.5t127 -312.5q0 -156 -80.5 -257t-218.5 -138l172 -334q31 -57 67.5 -77.5t80.5 -20.5q57 0 82 10zM367 715h333q132 0 203.5 73
t71.5 193t-71.5 193t-203.5 73h-333v-532z" />
    <glyph glyph-name="S" unicode="S" horiz-adv-x="1228" 
d="M305 1042q0 -60 28.5 -103.5t76 -68t110 -42.5t131 -33t137 -32.5t131 -47.5t110 -72.5t76 -112.5t28.5 -163q0 -170 -143.5 -274.5t-375.5 -104.5q-249 0 -388.5 108.5t-139.5 306.5h178q0 -121 94 -188.5t271 -67.5q151 0 236.5 58t84.5 162q0 63 -28.5 108.5t-76 71.5
t-109.5 44.5t-131 33.5t-137.5 32t-130.5 45.5t-109.5 69t-76 108.5t-28.5 158q0 173 137.5 276t364.5 103q228 0 359 -107t130 -298h-178q0 124 -84 184.5t-234 60.5q-313 0 -313 -215z" />
    <glyph glyph-name="T" unicode="T" horiz-adv-x="1150" 
d="M485 0v1243h-460v162h1101v-162h-460v-1243h-181z" />
    <glyph glyph-name="U" unicode="U" horiz-adv-x="1439" 
d="M1087 1405h181v-860q0 -258 -148.5 -407.5t-400.5 -149.5q-261 0 -405 148t-144 409v860h180v-860q0 -196 96 -297t273 -101t272.5 101t95.5 297v860z" />
    <glyph glyph-name="V" unicode="V" horiz-adv-x="1271" 
d="M1065 1405h182l-518 -1405h-186l-518 1405h182l430 -1178z" />
    <glyph glyph-name="W" unicode="W" horiz-adv-x="1923" 
d="M1706 1405h182l-411 -1405h-191l-323 1174l-324 -1174h-193l-411 1405h182l324 -1204l327 1204h187l327 -1204z" />
    <glyph glyph-name="X" unicode="X" horiz-adv-x="1222" 
d="M1204 0h-207l-387 608l-389 -608h-201l469 715l-454 688h207l366 -578l367 578h201l-445 -680z" />
    <glyph glyph-name="Y" unicode="Y" horiz-adv-x="1234" 
d="M1210 1405l-503 -838v-567h-181v569l-501 836h198l395 -670l394 670h198z" />
    <glyph glyph-name="Z" unicode="Z" horiz-adv-x="1196" 
d="M291 160h825v-160h-1042v145l821 1098h-801v162h1020l-2 -145z" />
    <glyph glyph-name="bracketleft" unicode="[" horiz-adv-x="653" 
d="M174 -287v1848h424v-156h-250v-1536h250v-156h-424z" />
    <glyph glyph-name="backslash" unicode="\" horiz-adv-x="862" 
d="M817 -41h-184l-590 1487h180z" />
    <glyph glyph-name="bracketright" unicode="]" horiz-adv-x="653" 
d="M479 -287h-424v156h250v1536h-250v156h424v-1848z" />
    <glyph glyph-name="asciicircum" unicode="^" horiz-adv-x="765" 
d="M88 1055l195 430h200l195 -430h-154l-141 291l-141 -291h-154z" />
    <glyph glyph-name="underscore" unicode="_" horiz-adv-x="841" 
d="M0 -238v136h842v-136h-842z" />
    <glyph glyph-name="grave" unicode="`" horiz-adv-x="548" 
d="M248 1157l-187 328h228l106 -328h-147z" />
    <glyph glyph-name="a" unicode="a" horiz-adv-x="1118" 
d="M1061 164l14 -158q-56 -16 -114 -16q-77 0 -127.5 45t-59.5 119q-106 -164 -352 -164q-165 0 -252.5 74t-87.5 198q0 105 63 175.5t167.5 101t248.5 30.5h211v66q0 106 -64 165.5t-184 59.5q-108 0 -171 -48.5t-72 -139.5h-177q12 161 129 251.5t304 90.5
q198 0 306.5 -100.5t108.5 -282.5v-410q0 -31 16 -49t42 -18t51 10zM459 135q72 0 134 23.5t99.5 59.5t58.5 75.5t21 75.5v69h-221q-285 0 -285 -168q0 -135 193 -135z" />
    <glyph glyph-name="b" unicode="b" horiz-adv-x="1218" 
d="M672 1014q205 0 330.5 -136t125.5 -364q0 -233 -129.5 -378.5t-339.5 -145.5q-228 0 -329 164l-4 -154h-176v1454h180v-618q50 81 137 129.5t205 48.5zM647 143q134 0 215.5 101.5t81.5 265.5q0 160 -79 255t-214 95q-78 0 -141.5 -31t-101.5 -81t-58 -107.5t-20 -114.5
v-45q0 -59 19.5 -117t56.5 -108.5t100 -81.5t141 -31z" />
    <glyph glyph-name="c" unicode="c" horiz-adv-x="1085" 
d="M557 -10q-223 0 -346 140t-123 368q0 227 133 371.5t346 144.5q193 0 307.5 -101t135.5 -276h-193q-16 100 -78 161.5t-170 61.5q-135 0 -216 -97.5t-81 -260.5q0 -164 77.5 -261.5t215.5 -97.5q110 0 173 60t79 157h193q-24 -171 -141 -270.5t-312 -99.5z" />
    <glyph glyph-name="d" unicode="d" horiz-adv-x="1216" 
d="M887 1454h180v-1454h-176l-4 168q-50 -81 -137 -129.5t-205 -48.5q-205 0 -331 136t-126 363q0 233 129.5 379t339.5 146q229 0 330 -164v604zM565 143q63 0 117 20.5t91 54.5t63.5 78t38.5 90t12 91v45q0 59 -19.5 117t-57 108.5t-100.5 81.5t-141 31
q-134 0 -215.5 -101t-81.5 -265q0 -160 79 -255.5t214 -95.5z" />
    <glyph glyph-name="e" unicode="e" horiz-adv-x="1112" 
d="M1024 500v-45h-750q11 -144 89.5 -228t209.5 -84q63 0 112 15t79 41.5t47.5 55.5t24.5 62h182q-31 -146 -143.5 -236.5t-303.5 -90.5q-229 0 -356 141t-127 369q0 226 134 370t345 144q212 0 334.5 -136t122.5 -378zM569 860q-115 0 -191.5 -72.5t-98.5 -199.5h563
q-17 134 -87.5 203t-185.5 69z" />
    <glyph glyph-name="f" unicode="f" horiz-adv-x="745" 
d="M588 1317q-96 0 -145.5 -51t-49.5 -131v-131h320v-152h-320v-852h-180v852h-141v152h141v131q0 152 103.5 246t261.5 94q41 0 88 -6.5t61 -12.5l-8 -158q-48 19 -131 19z" />
    <glyph glyph-name="g" unicode="g" horiz-adv-x="1208" 
d="M889 1004h170v-1024q0 -181 -128 -295.5t-356 -114.5q-204 0 -318.5 81.5t-133.5 239.5h180q17 -89 81.5 -128t188.5 -39q151 0 228.5 72.5t77.5 183.5v174q-101 -164 -326 -164q-208 0 -336.5 141.5t-128.5 372.5q0 228 129 369t336 141q227 0 328 -168zM565 143
q77 0 139 31t99 81.5t56.5 108.5t19.5 117v41q0 59 -19.5 117t-56.5 108.5t-99 81.5t-139 31q-132 0 -212.5 -98t-80.5 -258q0 -163 80.5 -262t212.5 -99z" />
    <glyph glyph-name="h" unicode="h" horiz-adv-x="1150" 
d="M649 1014q166 0 264.5 -98.5t98.5 -262.5v-653h-183v614q0 116 -59 181t-166 65q-124 0 -198 -74t-74 -202v-584h-182v1454h178v-598q108 158 321 158z" />
    <glyph glyph-name="i" unicode="i" horiz-adv-x="481" 
d="M371 1331q0 -53 -36 -88t-89 -35t-89 35t-36 88q0 52 36 87.5t89 35.5t89 -35.5t36 -87.5zM150 0v1004h182v-1004h-182z" />
    <glyph glyph-name="j" unicode="j" horiz-adv-x="495" 
d="M385 1331q0 -53 -37 -88t-90 -35t-88 34.5t-35 88.5q0 53 35.5 88t87.5 35q53 0 90 -35.5t37 -87.5zM12 -420q-90 0 -149 25l14 159q50 -20 96 -20q91 0 142 53.5t51 149.5v1057h180v-1063q0 -167 -91.5 -264t-242.5 -97z" />
    <glyph glyph-name="k" unicode="k" horiz-adv-x="1026" 
d="M817 0l-338 449l-149 -164v-285h-180v1454h180v-928l432 478h227l-393 -431l432 -573h-211z" />
    <glyph glyph-name="l" unicode="l" horiz-adv-x="512" 
d="M432 164l14 -158q-56 -16 -114 -16q-87 0 -138 53.5t-51 142.5v1268h181v-1233q0 -31 17 -49t44 -18q22 0 47 10z" />
    <glyph glyph-name="m" unicode="m" horiz-adv-x="1800" 
d="M1300 1014q167 0 264 -101.5t97 -273.5v-639h-182v602q0 124 -60.5 191t-167.5 67q-117 0 -186.5 -73.5t-69.5 -202.5v-584h-182v602q0 125 -60 191.5t-167 66.5q-117 0 -186.5 -73.5t-69.5 -202.5v-584h-180v1004h169l9 -146q48 72 126 114t181 42q120 0 205 -53.5
t125 -151.5q44 93 129.5 149t205.5 56z" />
    <glyph glyph-name="n" unicode="n" horiz-adv-x="1150" 
d="M649 1014q168 0 265.5 -99.5t97.5 -281.5v-633h-183v596q0 128 -58.5 196t-170.5 68q-122 0 -196 -74.5t-74 -201.5v-584h-180v1004h169l9 -150q110 160 321 160z" />
    <glyph glyph-name="o" unicode="o" horiz-adv-x="1169" 
d="M584 1014q225 0 361 -140.5t136 -369.5t-136.5 -371.5t-360.5 -142.5q-223 0 -359.5 137.5t-136.5 364.5q0 230 137.5 376t358.5 146zM584 860q-139 0 -225.5 -101t-86.5 -261q0 -158 86.5 -256.5t225.5 -98.5q142 0 227.5 98t85.5 257q0 161 -86 261.5t-227 100.5z" />
    <glyph glyph-name="p" unicode="p" horiz-adv-x="1218" 
d="M672 1014q205 0 330.5 -136t125.5 -364q0 -233 -129.5 -378.5t-339.5 -145.5q-228 0 -329 164v-564h-180v1414h176l4 -168q50 81 137 129.5t205 48.5zM647 143q134 0 215.5 101.5t81.5 265.5q0 160 -79 255t-214 95q-78 0 -141.5 -31t-101.5 -81t-58 -107.5t-20 -114.5
v-45q0 -59 19.5 -117t56.5 -108.5t100 -81.5t141 -31z" />
    <glyph glyph-name="q" unicode="q" horiz-adv-x="1216" 
d="M891 1004h176v-1414h-180v576q-50 -80 -137.5 -128t-204.5 -48q-205 0 -331 136t-126 363q0 233 129.5 379t339.5 146q229 0 330 -164zM565 143q63 0 117 20.5t91 54.5t63.5 78t38.5 90t12 91v45q0 59 -19.5 117t-57 108.5t-100.5 81.5t-141 31q-134 0 -215.5 -101
t-81.5 -265q0 -160 79 -255.5t214 -95.5z" />
    <glyph glyph-name="r" unicode="r" horiz-adv-x="684" 
d="M588 1014q21 0 57 -6l-2 -179q-18 9 -68 9q-101 0 -173 -82.5t-72 -227.5v-528h-180v1004h169l5 -162q86 172 264 172z" />
    <glyph glyph-name="s" unicode="s" horiz-adv-x="966" 
d="M285 731q0 -41 25.5 -69t67.5 -42.5t95.5 -28.5t109.5 -24.5t109.5 -33t95.5 -52t67.5 -83.5t25.5 -126q0 -127 -106 -204.5t-296 -77.5q-393 0 -399 305l166 -2q8 -75 62 -112.5t173 -37.5q112 0 166.5 34.5t54.5 94.5q0 47 -33 78t-85.5 47t-116 29.5t-127 33.5
t-116 49.5t-85.5 86t-33 135.5q0 127 103 205t283 78t274 -78.5t100 -226.5l-168 2q-6 73 -60.5 111t-150.5 38q-101 0 -151.5 -34t-50.5 -95z" />
    <glyph glyph-name="t" unicode="t" horiz-adv-x="759" 
d="M719 172l8 -158q-57 -24 -158 -24q-174 0 -273 91.5t-99 248.5v518h-152v156h162v299h170v-299h325v-152h-325v-522q0 -183 211 -183q71 0 131 25z" />
    <glyph glyph-name="u" unicode="u" horiz-adv-x="1130" 
d="M801 1004h180v-1004h-170l-8 147q-48 -72 -127 -114.5t-182 -42.5q-164 0 -259.5 96.5t-95.5 261.5v656h183v-629q0 -111 58.5 -171.5t166.5 -60.5q111 0 182.5 74.5t71.5 202.5v584z" />
    <glyph glyph-name="v" unicode="v" horiz-adv-x="1038" 
d="M819 1004h185l-386 -1004h-196l-391 1004h202l259 -713q17 -44 32 -107h4q9 44 29 107z" />
    <glyph glyph-name="w" unicode="w" horiz-adv-x="1556" 
d="M1315 1004h203l-308 -1004h-213l-202 705q-12 47 -15 69h-4q-4 -29 -14 -69l-203 -705h-213l-307 1004h203l186 -713q7 -25 18 -63t13 -44h4q2 6 13 44t18 63l192 713h184l193 -713q7 -25 18 -63t13 -44h4q1 6 11.5 41.5t18.5 65.5z" />
    <glyph glyph-name="x" unicode="x" horiz-adv-x="968" 
d="M940 0h-211l-246 387l-245 -387h-203l342 510l-350 494h213l243 -367l244 367h205l-340 -488z" />
    <glyph glyph-name="y" unicode="y" horiz-adv-x="1032" 
d="M817 1004h184l-380 -1004l-43 -113q-65 -172 -145 -239.5t-210 -67.5q-90 0 -149 25l14 159q50 -20 96 -20q80 0 132 32t92 128l24 57l-395 1043h203l254 -713q17 -44 32 -107h4q9 44 29 107z" />
    <glyph glyph-name="z" unicode="z" horiz-adv-x="942" 
d="M299 152h567v-152h-788v147l553 705h-539v152h758v-146z" />
    <glyph glyph-name="braceleft" unicode="{" horiz-adv-x="657" 
d="M70 721h20q51 0 90 35.5t39 105.5v389q0 148 83.5 231t227.5 83h62v-160h-62q-135 0 -135 -154v-415q0 -83 -31.5 -136t-76.5 -63q45 -10 76.5 -63t31.5 -136v-415q0 -154 135 -154h62v-160h-62q-144 0 -227.5 83t-83.5 231v389q0 70 -39 105.5t-90 35.5h-20v168z" />
    <glyph glyph-name="bar" unicode="|" horiz-adv-x="524" 
d="M174 -348v1802h176v-1802h-176z" />
    <glyph glyph-name="braceright" unicode="}" horiz-adv-x="657" 
d="M588 721v-168h-21q-51 0 -90 -35.5t-39 -105.5v-389q0 -148 -83.5 -231t-227.5 -83h-61v160h61q135 0 135 154v415q0 82 32.5 135.5t76.5 63.5q-44 10 -76.5 63.5t-32.5 135.5v415q0 154 -135 154h-61v160h61q144 0 227.5 -83t83.5 -231v-389q0 -70 39 -105.5t90 -35.5
h21z" />
    <glyph glyph-name="asciitilde" unicode="~" horiz-adv-x="1116" 
d="M406 684q-60 0 -93.5 -24.5t-33.5 -63.5h-136q0 112 61.5 170.5t184.5 58.5q53 0 106 -14.5t87.5 -32.5t75 -32.5t71.5 -14.5q59 0 93 23t34 63h133q0 -109 -65.5 -169t-180.5 -60q-51 0 -103 15t-86.5 33t-75.5 33t-72 15z" />
    <glyph glyph-name="exclamdown" unicode="&#xa1;" horiz-adv-x="503" 
d="M248 772q-57 0 -92 34t-35 89t35 89t92 34t92 -34t35 -89t-35 -89t-92 -34zM350 -408h-194l20 977h154z" />
    <glyph glyph-name="cent" unicode="&#xa2;" horiz-adv-x="1091" 
d="M573 317q110 0 171 60t77 158h193q-21 -150 -108.5 -245.5t-239.5 -119.5v-190h-189v192q-174 32 -279.5 170.5t-105.5 333.5q0 199 105 336t280 168v192h189v-192q150 -23 240.5 -120t107.5 -249h-193q-16 100 -78 161.5t-170 61.5q-135 0 -216 -97.5t-81 -260.5
q0 -162 81 -260.5t216 -98.5z" />
    <glyph glyph-name="sterling" unicode="&#xa3;" horiz-adv-x="1208" 
d="M680 1262q-248 0 -248 -289q0 -109 14 -242h486v-158h-465q14 -115 14 -180q0 -138 -61 -233h694v-160h-1020v152q117 0 161 45.5t44 167.5q0 83 -16 208h-185v158h166q-14 140 -14 242q0 211 114.5 329.5t317.5 118.5q200 0 316.5 -116t115.5 -312h-178
q-2 131 -67.5 200t-188.5 69z" />
    <glyph glyph-name="currency" unicode="&#xa4;" horiz-adv-x="1206" 
d="M1014 653q0 -129 -64 -235l146 -144l-123 -122l-144 143q-95 -64 -227 -64q-131 0 -229 64l-142 -143l-122 122l145 144q-64 106 -64 235q0 128 62 236l-146 145l123 123l144 -145q97 63 229 63q130 0 229 -61l144 143l121 -125l-144 -143q62 -108 62 -236zM602 408
q108 -1 173 68t67 177q-2 107 -67 177t-173 69q-108 1 -174 -69t-66 -177q0 -108 66 -177t174 -68z" />
    <glyph glyph-name="yen" unicode="&#xa5;" horiz-adv-x="1277" 
d="M1231 1405l-404 -672h189v-158h-283l-6 -8v-139h289v-158h-289v-270h-180v270h-287v158h287v141l-4 6h-283v158h189l-404 672h199l395 -670l393 670h199z" />
    <glyph glyph-name="brokenbar" unicode="&#xa6;" horiz-adv-x="536" 
d="M180 717v737h176v-737h-176zM180 -348v737h176v-737h-176z" />
    <glyph glyph-name="section" unicode="&#xa7;" horiz-adv-x="1095" 
d="M811 244q141 -88 141 -279q0 -152 -114.5 -243t-317.5 -91q-205 0 -318.5 96t-113.5 265l166 -2q0 -94 70.5 -149.5t197.5 -55.5q120 0 186 48.5t66 131.5q0 49 -22.5 85t-60 57.5t-86.5 37.5t-103.5 30t-108.5 29.5t-103 40.5t-86.5 59.5t-60 90.5t-22.5 129
q0 95 46 171t132 122q-137 87 -137 268q0 150 110 240t295 90q189 0 299 -94.5t109 -259.5h-166q0 96 -64.5 148.5t-171.5 52.5t-171 -49t-62 -128q0 -48 22.5 -83t60 -55.5t86.5 -35.5t103.5 -28t108.5 -28.5t103 -41t86.5 -61t60 -93t22.5 -133.5q0 -94 -46.5 -166.5
t-135.5 -115.5zM299 524q0 -37 15 -66t38.5 -47.5t60.5 -34t72.5 -25t82.5 -20.5q3 0 5 -0.5t4.5 -1t4.5 -1.5q112 9 172.5 64t60.5 134q0 39 -17.5 69.5t-33.5 48t-65.5 37t-68 25t-85.5 22.5l-33 9q-67 -8 -117 -41t-73.5 -78t-22.5 -94z" />
    <glyph glyph-name="dieresis" unicode="&#xa8;" horiz-adv-x="722" 
d="M174 1442q51 0 82 -30.5t31 -80.5q0 -48 -31 -78t-82 -30t-82 30t-31 78q0 50 31 80.5t82 30.5zM551 1442q51 0 82 -30.5t31 -80.5q0 -48 -31 -78t-82 -30t-82 30t-31 78q0 50 31 80.5t82 30.5z" />
    <glyph glyph-name="copyright" unicode="&#xa9;" horiz-adv-x="1613" 
d="M807 -12q-209 0 -371.5 92t-251 254.5t-88.5 367.5q1 205 90 367.5t251.5 255t369.5 92.5q208 0 370.5 -92.5t251 -255.5t87.5 -367q0 -205 -88.5 -367.5t-250.5 -254.5t-370 -92zM807 133q242 0 398.5 161t156.5 408q1 161 -69.5 291.5t-198 204.5t-287.5 74
q-161 0 -288.5 -74.5t-197.5 -204t-71 -291.5q0 -162 70.5 -292t198 -203.5t288.5 -73.5zM823 410q85 0 137 48.5t64 129.5h172q-17 -149 -116 -235.5t-255 -86.5q-188 0 -302.5 122.5t-114.5 313.5q0 193 114.5 314t300.5 121q159 0 259 -89.5t114 -236.5h-172
q-13 81 -63 131.5t-140 50.5q-109 0 -174.5 -78t-66.5 -213q2 -134 66.5 -213t176.5 -79z" />
    <glyph glyph-name="ordfeminine" unicode="&#xaa;" horiz-adv-x="907" 
d="M446 1417q156 0 244 -78.5t88 -212.5v-469h-172l-2 105q-81 -113 -250 -113q-124 0 -191 55.5t-67 149.5q0 236 428 236h78v38q0 69 -42 108.5t-120 39.5q-65 0 -105.5 -32t-47.5 -89h-170q12 124 99.5 193t229.5 69zM399 788q92 0 147.5 45.5t55.5 98.5v49h-82
q-246 0 -246 -109q0 -84 125 -84z" />
    <glyph glyph-name="guillemotleft" unicode="&#xab;" horiz-adv-x="1024" 
d="M66 481v25l268 303h192l-268 -315l270 -318h-194zM449 481v25l268 303h192l-268 -315l270 -318h-194z" />
    <glyph glyph-name="registered" unicode="&#xae;" horiz-adv-x="1077" 
d="M537 1417q199 0 323.5 -126.5t124.5 -323.5q0 -196 -125 -323.5t-323 -127.5t-322.5 128t-124.5 323t125 322.5t322 127.5zM537 623q147 0 242 98t95 246q0 149 -94.5 247.5t-242.5 98.5q-146 0 -241 -99t-95 -247q0 -147 94.5 -245.5t241.5 -98.5zM754 1053
q0 -93 -82 -138q17 -22 41.5 -85t48.5 -99h-133q-11 21 -28 67t-31.5 68.5t-34.5 22.5h-64v-158h-131v481h215q199 0 199 -159zM471 987h84q66 0 66 62q0 32 -19.5 46.5t-46.5 14.5h-84v-123z" />
    <glyph glyph-name="macron" unicode="&#xaf;" horiz-adv-x="776" 
d="M106 1262v135h564v-135h-564z" />
    <glyph glyph-name="degree" unicode="&#xb0;" horiz-adv-x="702" 
d="M618 1198q0 -121 -76 -193.5t-192 -72.5q-115 0 -190.5 72.5t-75.5 193.5t75.5 193.5t190.5 72.5q116 0 192 -72.5t76 -193.5zM494 1198q0 65 -41 104t-103 39q-60 0 -99.5 -39t-39.5 -104q0 -66 39.5 -104.5t99.5 -38.5q62 0 103 38.5t41 104.5z" />
    <glyph glyph-name="plusminus" unicode="&#xb1;" horiz-adv-x="1064" 
d="M618 887h320v-150h-320v-338h-172v338h-319v150h319v338h172v-338zM127 143v150h811v-150h-811z" />
    <glyph glyph-name="acute" unicode="&#xb4;" horiz-adv-x="548" 
d="M240 1157h-148l107 328h227z" />
    <glyph glyph-name="paragraph" unicode="&#xb6;" horiz-adv-x="1257" 
d="M883 -307v1552h-150v-1552h-174v915h-80q-190 0 -308 111.5t-118 284.5q0 175 118 288t308 113h580v-1712h-176z" />
    <glyph glyph-name="periodcentered" unicode="&#xb7;" horiz-adv-x="473" 
d="M236 885q57 0 91.5 -34.5t34.5 -90.5t-34.5 -89.5t-91.5 -33.5t-92 34t-35 89q0 56 35 90.5t92 34.5z" />
    <glyph glyph-name="cedilla" unicode="&#xb8;" horiz-adv-x="548" 
d="M141 -279q50 -18 107 -18q98 0 98 55q0 64 -166 64l45 209h113l-25 -113q69 -4 116.5 -40.5t47.5 -115.5q0 -85 -61 -134.5t-174 -49.5q-67 0 -129 23z" />
    <glyph glyph-name="ordmasculine" unicode="&#xba;" horiz-adv-x="929" 
d="M465 1417q171 0 276 -107.5t105 -279.5q0 -169 -105 -275t-276 -106q-170 0 -275.5 106t-105.5 275q0 172 105.5 279.5t275.5 107.5zM465 1268q-89 0 -143 -66t-54 -172q0 -103 54 -167t143 -64q90 0 144.5 64t54.5 167q0 106 -54.5 172t-144.5 66z" />
    <glyph glyph-name="guillemotright" unicode="&#xbb;" horiz-adv-x="1024" 
d="M575 481l-268 -305h-194l270 318l-268 315h192l268 -303v-25zM958 481l-268 -305h-194l270 318l-268 315h192l268 -303v-25z" />
    <glyph glyph-name="onequarter" unicode="&#xbc;" horiz-adv-x="1527" 
d="M981 1417h172l-604 -1417h-174zM535 760v-129h-447v129h148v430h-144v108q95 0 137.5 22t65.5 83h100v-643h140zM1468 287v-131h-98v-156h-164v156h-387v143l324 473h227v-485h98zM971 289v-2h235v336h-4z" />
    <glyph glyph-name="onehalf" unicode="&#xbd;" horiz-adv-x="1523" 
d="M969 1417h172l-604 -1417h-175zM532 760v-129h-446v129h147v430h-143v108q95 0 137.5 22t65.5 83h100v-643h139zM1145 131h315v-131h-569v98l295 287q84 84 84 152q0 48 -27.5 78t-75.5 30q-56 0 -87 -38t-31 -97l-162 -2q0 130 79 202t205 72q119 0 191 -66.5t72 -178.5
q0 -78 -34 -136t-116 -137z" />
    <glyph glyph-name="threequarters" unicode="&#xbe;" horiz-adv-x="1611" 
d="M664 879q1 -114 -85.5 -181t-218.5 -67t-213 69t-81 191h167q0 -119 134 -119q58 0 89 26t31 74q-3 101 -125 101h-73v121h69q118 0 121 88q0 44 -30 70t-84 26q-58 0 -87.5 -31t-29.5 -88h-168q0 122 76 192t206 70q125 0 205 -62.5t80 -168.5q0 -98 -72 -150
q89 -52 89 -161zM1065 1417h172l-604 -1417h-174zM1552 287v-131h-98v-156h-164v156h-387v143l324 473h227v-485h98zM1055 289v-2h235v336h-4z" />
    <glyph glyph-name="questiondown" unicode="&#xbf;" horiz-adv-x="923" 
d="M504 776q-55 0 -91 35.5t-36 89.5t35.5 88.5t93.5 34.5q57 0 91 -33.5t34 -89.5t-36 -90.5t-91 -34.5zM694 -23l178 3q0 -189 -115.5 -298.5t-307.5 -109.5q-186 0 -288 98.5t-102 255.5q0 57 20 108.5t51.5 91t70.5 76.5t77.5 71.5t70 69t51.5 76t20 85.5v71h166v-77
q0 -63 -25.5 -120t-63.5 -97.5t-83 -84.5t-83 -81.5t-63.5 -87t-25.5 -101.5q0 -93 59 -143.5t158 -50.5q104 0 169 60t66 185z" />
    <glyph glyph-name="Agrave" unicode="&#xc0;" horiz-adv-x="1296" 
d="M723 1491h-170l-182 264h262zM1087 0l-129 356h-620l-129 -356h-182l518 1405h207l518 -1405h-183zM397 516h502l-250 688z" />
    <glyph glyph-name="Aacute" unicode="&#xc1;" horiz-adv-x="1296" 
d="M938 1755l-186 -264h-170l86 264h270zM1087 0l-129 356h-620l-129 -356h-182l518 1405h207l518 -1405h-183zM397 516h502l-250 688z" />
    <glyph glyph-name="Acircumflex" unicode="&#xc2;" horiz-adv-x="1296" 
d="M649 1636l-141 -145h-150l174 264h236l172 -264h-149zM1087 0l-129 356h-620l-129 -356h-182l518 1405h207l518 -1405h-183zM397 516h502l-250 688z" />
    <glyph glyph-name="Atilde" unicode="&#xc3;" horiz-adv-x="1296" 
d="M530 1612q-37 0 -56 -24t-19 -64h-136q0 231 195 231q50 0 90 -15t61.5 -33t49.5 -33t55 -15q35 0 55.5 23.5t20.5 64.5h133q0 -111 -51.5 -171t-143.5 -60q-47 0 -86 15t-61 33t-50.5 33t-56.5 15zM1087 0l-129 356h-620l-129 -356h-182l518 1405h207l518 -1405h-183z
M397 516h502l-250 688z" />
    <glyph glyph-name="Adieresis" unicode="&#xc4;" horiz-adv-x="1296" 
d="M461 1520q-51 0 -82 30t-31 78q0 50 31 80.5t82 30.5t81.5 -30.5t30.5 -80.5q0 -48 -30.5 -78t-81.5 -30zM838 1520q-51 0 -82 30t-31 78q0 50 31 80.5t82 30.5t81.5 -30.5t30.5 -80.5q0 -48 -30.5 -78t-81.5 -30zM1087 0l-129 356h-620l-129 -356h-182l518 1405h207
l518 -1405h-183zM397 516h502l-250 688z" />
    <glyph glyph-name="Aring" unicode="&#xc5;" horiz-adv-x="1296" 
d="M649 1458q-82 0 -139 51.5t-57 135.5q0 86 56.5 138t139.5 52t140 -52t57 -138q0 -84 -57.5 -135.5t-139.5 -51.5zM649 1718q-35 0 -55.5 -20t-20.5 -53q0 -32 21 -53t55 -21q35 0 56.5 21.5t21.5 52.5q0 32 -21.5 52.5t-56.5 20.5zM1087 0l-129 356h-620l-129 -356h-182
l518 1405h207l518 -1405h-183zM397 516h502l-250 688z" />
    <glyph glyph-name="AE" unicode="&#xc6;" horiz-adv-x="2037" 
d="M1169 160h766v-160h-946v356h-579l-234 -356h-194l899 1405h1042v-162h-754v-432h689v-162h-689v-489zM514 516h475v719h-2z" />
    <glyph glyph-name="Ccedilla" unicode="&#xc7;" horiz-adv-x="1409" 
d="M733 147q189 0 289.5 95t120.5 254h184q-26 -226 -166.5 -362t-394.5 -146l-14 -70q69 -4 116 -40.5t47 -115.5q0 -85 -61 -134.5t-174 -49.5q-67 0 -129 23l29 120q50 -18 106 -18q98 0 98 55q0 64 -166 64l37 170q-251 27 -403 214.5t-152 495.5q0 213 82 376.5
t225.5 251t323.5 87.5q266 0 419 -139t177 -375h-184q-20 162 -120.5 258t-289.5 96q-194 0 -322 -151.5t-128 -403.5q0 -258 126.5 -406.5t323.5 -148.5z" />
    <glyph glyph-name="Egrave" unicode="&#xc8;" horiz-adv-x="1232" 
d="M729 1491h-170l-182 264h262zM367 160h763v-160h-944v1405h934v-162h-753v-432h688v-162h-688v-489z" />
    <glyph glyph-name="Eacute" unicode="&#xc9;" horiz-adv-x="1232" 
d="M944 1755l-186 -264h-170l86 264h270zM367 160h763v-160h-944v1405h934v-162h-753v-432h688v-162h-688v-489z" />
    <glyph glyph-name="Ecircumflex" unicode="&#xca;" horiz-adv-x="1232" 
d="M655 1636l-141 -145h-149l174 264h235l172 -264h-149zM367 160h763v-160h-944v1405h934v-162h-753v-432h688v-162h-688v-489z" />
    <glyph glyph-name="Edieresis" unicode="&#xcb;" horiz-adv-x="1232" 
d="M467 1520q-51 0 -82 30t-31 78q0 50 31 80.5t82 30.5t82 -30.5t31 -80.5q0 -48 -31 -78t-82 -30zM844 1520q-51 0 -82 30t-31 78q0 50 31 80.5t82 30.5t81.5 -30.5t30.5 -80.5q0 -48 -30.5 -78t-81.5 -30zM367 160h763v-160h-944v1405h934v-162h-753v-432h688v-162h-688
v-489z" />
    <glyph glyph-name="Igrave" unicode="&#xcc;" horiz-adv-x="552" 
d="M180 1491l-182 264h262l90 -264h-170zM186 0v1405h181v-1405h-181z" />
    <glyph glyph-name="Iacute" unicode="&#xcd;" horiz-adv-x="552" 
d="M381 1491h-170l86 264h270zM186 0v1405h181v-1405h-181z" />
    <glyph glyph-name="Icircumflex" unicode="&#xce;" horiz-adv-x="552" 
d="M395 1755l172 -264h-149l-142 145l-141 -145h-149l174 264h235zM186 0v1405h181v-1405h-181z" />
    <glyph glyph-name="Idieresis" unicode="&#xcf;" horiz-adv-x="552" 
d="M90 1739q51 0 82 -30.5t31 -80.5q0 -48 -31 -78t-82 -30t-82 30t-31 78q0 50 31 80.5t82 30.5zM467 1739q51 0 82 -30.5t31 -80.5q0 -48 -31 -78t-82 -30t-82 30t-31 78q0 50 31 80.5t82 30.5zM186 0v1405h181v-1405h-181z" />
    <glyph glyph-name="Eth" unicode="&#xd0;" horiz-adv-x="1490" 
d="M731 1405q145 0 267 -48t209 -137t135.5 -222t48.5 -296q0 -326 -181.5 -514t-478.5 -188h-512v621h-184v151h184v633h512zM731 158q216 0 346.5 145t130.5 399t-130.5 398.5t-346.5 144.5h-332v-473h361v-151h-361v-463h332z" />
    <glyph glyph-name="Ntilde" unicode="&#xd1;" horiz-adv-x="1472" 
d="M618 1612q-37 0 -56 -24t-19 -64h-135q0 231 194 231q50 0 90 -15t61.5 -33t49.5 -33t55 -15q35 0 55.5 23.5t20.5 64.5h133q0 -111 -51.5 -171t-143.5 -60q-47 0 -86 15t-61 33t-50.5 33t-56.5 15zM1106 1405h180v-1405h-184l-735 1124v-1124h-181v1405h185l735 -1122
v1122z" />
    <glyph glyph-name="Ograve" unicode="&#xd2;" horiz-adv-x="1556" 
d="M682 1491l-182 264h262l90 -264h-170zM778 -12q-143 0 -267 49t-216 138t-144.5 223.5t-52.5 297.5t52.5 299.5t144.5 228t216.5 142.5t266.5 51q143 0 267 -49t216 -138t144.5 -223.5t52.5 -297.5t-52.5 -299.5t-144.5 -228t-216.5 -142.5t-266.5 -51zM778 147
q103 0 193.5 38.5t158 108t107 175.5t39.5 233q0 252 -143 403.5t-355 151.5q-103 0 -193.5 -38.5t-158 -108.5t-106.5 -175.5t-39 -232.5t39 -233t106.5 -175.5t158 -108t193.5 -38.5z" />
    <glyph glyph-name="Oacute" unicode="&#xd3;" horiz-adv-x="1556" 
d="M881 1491h-170l86 264h270zM778 -12q-143 0 -267 49t-216 138t-144.5 223.5t-52.5 297.5t52.5 299.5t144.5 228t216.5 142.5t266.5 51q143 0 267 -49t216 -138t144.5 -223.5t52.5 -297.5t-52.5 -299.5t-144.5 -228t-216.5 -142.5t-266.5 -51zM778 147q103 0 193.5 38.5
t158 108t107 175.5t39.5 233q0 252 -143 403.5t-355 151.5q-103 0 -193.5 -38.5t-158 -108.5t-106.5 -175.5t-39 -232.5t39 -233t106.5 -175.5t158 -108t193.5 -38.5z" />
    <glyph glyph-name="Ocircumflex" unicode="&#xd4;" horiz-adv-x="1556" 
d="M897 1755l172 -264h-149l-142 145l-141 -145h-150l175 264h235zM778 -12q-143 0 -267 49t-216 138t-144.5 223.5t-52.5 297.5t52.5 299.5t144.5 228t216.5 142.5t266.5 51q143 0 267 -49t216 -138t144.5 -223.5t52.5 -297.5t-52.5 -299.5t-144.5 -228t-216.5 -142.5
t-266.5 -51zM778 147q103 0 193.5 38.5t158 108t107 175.5t39.5 233q0 252 -143 403.5t-355 151.5q-103 0 -193.5 -38.5t-158 -108.5t-106.5 -175.5t-39 -232.5t39 -233t106.5 -175.5t158 -108t193.5 -38.5z" />
    <glyph glyph-name="Otilde" unicode="&#xd5;" horiz-adv-x="1556" 
d="M659 1612q-37 0 -56 -24t-19 -64h-135q0 231 194 231q50 0 90 -15t61.5 -33t49.5 -33t55 -15q35 0 55.5 23.5t20.5 64.5h133q0 -111 -51.5 -171t-143.5 -60q-47 0 -86 15t-61 33t-50.5 33t-56.5 15zM778 -12q-143 0 -267 49t-216 138t-144.5 223.5t-52.5 297.5
t52.5 299.5t144.5 228t216.5 142.5t266.5 51q143 0 267 -49t216 -138t144.5 -223.5t52.5 -297.5t-52.5 -299.5t-144.5 -228t-216.5 -142.5t-266.5 -51zM778 147q103 0 193.5 38.5t158 108t107 175.5t39.5 233q0 252 -143 403.5t-355 151.5q-103 0 -193.5 -38.5t-158 -108.5
t-106.5 -175.5t-39 -232.5t39 -233t106.5 -175.5t158 -108t193.5 -38.5z" />
    <glyph glyph-name="Odieresis" unicode="&#xd6;" horiz-adv-x="1556" 
d="M590 1739q51 0 81.5 -30.5t30.5 -80.5q0 -48 -30.5 -78t-81.5 -30t-82 30t-31 78q0 50 31 80.5t82 30.5zM967 1739q51 0 81.5 -30.5t30.5 -80.5q0 -48 -30.5 -78t-81.5 -30t-82 30t-31 78q0 50 31 80.5t82 30.5zM778 -12q-143 0 -267 49t-216 138t-144.5 223.5
t-52.5 297.5t52.5 299.5t144.5 228t216.5 142.5t266.5 51q143 0 267 -49t216 -138t144.5 -223.5t52.5 -297.5t-52.5 -299.5t-144.5 -228t-216.5 -142.5t-266.5 -51zM778 147q103 0 193.5 38.5t158 108t107 175.5t39.5 233q0 252 -143 403.5t-355 151.5q-103 0 -193.5 -38.5
t-158 -108.5t-106.5 -175.5t-39 -232.5t39 -233t106.5 -175.5t158 -108t193.5 -38.5z" />
    <glyph glyph-name="multiply" unicode="&#xd7;" horiz-adv-x="944" 
d="M840 973l-262 -262l262 -265l-105 -104l-262 264l-264 -264l-105 104l265 265l-265 262l105 104l264 -262l262 262z" />
    <glyph glyph-name="Oslash" unicode="&#xd8;" horiz-adv-x="1556" 
d="M1225 1264q111 -95 172 -236t61 -319q0 -163 -52.5 -299.5t-144.5 -228t-216.5 -142.5t-266.5 -51q-169 0 -305 65l-92 -147h-188l145 231q-113 93 -176.5 236t-63.5 323q0 163 52.5 299.5t144.5 228t216.5 142.5t266.5 51q171 0 314 -67l73 116h187zM281 702
q0 -259 151 -413l572 915q-103 53 -226 53q-103 0 -193.5 -38.5t-158 -108.5t-106.5 -175.5t-39 -232.5zM778 147q103 0 193.5 38.5t158 108t107 175.5t39.5 233q0 252 -146 408l-569 -913q100 -50 217 -50z" />
    <glyph glyph-name="Ugrave" unicode="&#xd9;" horiz-adv-x="1439" 
d="M623 1491l-183 264h262l91 -264h-170zM1087 1405h181v-860q0 -258 -148.5 -407.5t-400.5 -149.5q-261 0 -405 148t-144 409v860h180v-860q0 -196 96 -297t273 -101t272.5 101t95.5 297v860z" />
    <glyph glyph-name="Uacute" unicode="&#xda;" horiz-adv-x="1439" 
d="M821 1491h-170l86 264h271zM1087 1405h181v-860q0 -258 -148.5 -407.5t-400.5 -149.5q-261 0 -405 148t-144 409v860h180v-860q0 -196 96 -297t273 -101t272.5 101t95.5 297v860z" />
    <glyph glyph-name="Ucircumflex" unicode="&#xdb;" horiz-adv-x="1439" 
d="M838 1755l172 -264h-150l-141 145l-141 -145h-150l174 264h236zM1087 1405h181v-860q0 -258 -148.5 -407.5t-400.5 -149.5q-261 0 -405 148t-144 409v860h180v-860q0 -196 96 -297t273 -101t272.5 101t95.5 297v860z" />
    <glyph glyph-name="Udieresis" unicode="&#xdc;" horiz-adv-x="1439" 
d="M530 1739q51 0 82 -30.5t31 -80.5q0 -48 -31 -78t-82 -30t-81.5 30t-30.5 78q0 50 30.5 80.5t81.5 30.5zM907 1739q51 0 82 -30.5t31 -80.5q0 -48 -31 -78t-82 -30t-81.5 30t-30.5 78q0 50 30.5 80.5t81.5 30.5zM1087 1405h181v-860q0 -258 -148.5 -407.5t-400.5 -149.5
q-261 0 -405 148t-144 409v860h180v-860q0 -196 96 -297t273 -101t272.5 101t95.5 297v860z" />
    <glyph glyph-name="Yacute" unicode="&#xdd;" horiz-adv-x="1234" 
d="M905 1755l-186 -264h-170l86 264h270zM1210 1405l-503 -838v-567h-181v569l-501 836h198l395 -670l394 670h198z" />
    <glyph glyph-name="Thorn" unicode="&#xde;" horiz-adv-x="1259" 
d="M719 1122q202 0 328.5 -109t126.5 -302t-126.5 -301.5t-328.5 -108.5h-352v-301h-181v1405h181v-283h352zM719 459q130 0 201 71.5t71 180.5q0 111 -71 182.5t-201 71.5h-352v-506h352z" />
    <glyph glyph-name="germandbls" unicode="&#xdf;" horiz-adv-x="1128" 
d="M784 760q126 -37 192 -126.5t66 -225.5q0 -189 -123 -298.5t-348 -109.5h-114v154h114q138 0 212.5 67t74.5 187q0 121 -75 194.5t-212 73.5h-67v133h6q74 0 129 23.5t84.5 64.5t43 87.5t13.5 100.5q0 102 -53 169t-166 67q-116 0 -173.5 -64t-57.5 -163v-1094h-180v1094
q0 171 111.5 276t299.5 105q102 0 181 -30.5t127 -83.5t72 -120t24 -145q0 -109 -45.5 -196t-135.5 -140z" />
    <glyph glyph-name="agrave" unicode="&#xe0;" horiz-adv-x="1118" 
d="M643 1157h-147l-187 328h228zM1061 164l14 -158q-56 -16 -114 -16q-77 0 -127.5 45t-59.5 119q-106 -164 -352 -164q-165 0 -252.5 74t-87.5 198q0 105 63 175.5t167.5 101t248.5 30.5h211v66q0 106 -64 165.5t-184 59.5q-108 0 -171 -48.5t-72 -139.5h-177
q12 161 129 251.5t304 90.5q198 0 306.5 -100.5t108.5 -282.5v-410q0 -31 16 -49t42 -18t51 10zM459 135q72 0 134 23.5t99.5 59.5t58.5 75.5t21 75.5v69h-221q-285 0 -285 -168q0 -135 193 -135z" />
    <glyph glyph-name="aacute" unicode="&#xe1;" horiz-adv-x="1118" 
d="M793 1485l-187 -328h-147l106 328h228zM1061 164l14 -158q-56 -16 -114 -16q-77 0 -127.5 45t-59.5 119q-106 -164 -352 -164q-165 0 -252.5 74t-87.5 198q0 105 63 175.5t167.5 101t248.5 30.5h211v66q0 106 -64 165.5t-184 59.5q-108 0 -171 -48.5t-72 -139.5h-177
q12 161 129 251.5t304 90.5q198 0 306.5 -100.5t108.5 -282.5v-410q0 -31 16 -49t42 -18t51 10zM459 135q72 0 134 23.5t99.5 59.5t58.5 75.5t21 75.5v69h-221q-285 0 -285 -168q0 -135 193 -135z" />
    <glyph glyph-name="acircumflex" unicode="&#xe2;" horiz-adv-x="1118" 
d="M551 1346l-141 -189h-154l195 328h200l195 -328h-154zM1061 164l14 -158q-56 -16 -114 -16q-77 0 -127.5 45t-59.5 119q-106 -164 -352 -164q-165 0 -252.5 74t-87.5 198q0 105 63 175.5t167.5 101t248.5 30.5h211v66q0 106 -64 165.5t-184 59.5q-108 0 -171 -48.5
t-72 -139.5h-177q12 161 129 251.5t304 90.5q198 0 306.5 -100.5t108.5 -282.5v-410q0 -31 16 -49t42 -18t51 10zM459 135q72 0 134 23.5t99.5 59.5t58.5 75.5t21 75.5v69h-221q-285 0 -285 -168q0 -135 193 -135z" />
    <glyph glyph-name="atilde" unicode="&#xe3;" horiz-adv-x="1118" 
d="M412 1294q-37 0 -56.5 -24t-19.5 -64h-135q0 232 194 232q50 0 90 -15t62 -33.5t50 -33.5t56 -15q35 0 55.5 24t20.5 65h133q0 -112 -51 -172t-143 -60q-48 0 -87.5 15t-61.5 33t-50.5 33t-56.5 15zM1061 164l14 -158q-56 -16 -114 -16q-77 0 -127.5 45t-59.5 119
q-106 -164 -352 -164q-165 0 -252.5 74t-87.5 198q0 105 63 175.5t167.5 101t248.5 30.5h211v66q0 106 -64 165.5t-184 59.5q-108 0 -171 -48.5t-72 -139.5h-177q12 161 129 251.5t304 90.5q198 0 306.5 -100.5t108.5 -282.5v-410q0 -31 16 -49t42 -18t51 10zM459 135
q72 0 134 23.5t99.5 59.5t58.5 75.5t21 75.5v69h-221q-285 0 -285 -168q0 -135 193 -135z" />
    <glyph glyph-name="adieresis" unicode="&#xe4;" horiz-adv-x="1118" 
d="M373 1223q-51 0 -82 30t-31 78q0 50 31 80.5t82 30.5t81.5 -30.5t30.5 -80.5q0 -48 -30.5 -78t-81.5 -30zM750 1223q-51 0 -82 30t-31 78q0 50 31 80.5t82 30.5t81.5 -30.5t30.5 -80.5q0 -48 -30.5 -78t-81.5 -30zM1061 164l14 -158q-56 -16 -114 -16q-77 0 -127.5 45
t-59.5 119q-106 -164 -352 -164q-165 0 -252.5 74t-87.5 198q0 105 63 175.5t167.5 101t248.5 30.5h211v66q0 106 -64 165.5t-184 59.5q-108 0 -171 -48.5t-72 -139.5h-177q12 161 129 251.5t304 90.5q198 0 306.5 -100.5t108.5 -282.5v-410q0 -31 16 -49t42 -18t51 10z
M459 135q72 0 134 23.5t99.5 59.5t58.5 75.5t21 75.5v69h-221q-285 0 -285 -168q0 -135 193 -135z" />
    <glyph glyph-name="aring" unicode="&#xe5;" horiz-adv-x="1118" 
d="M551 1133q-82 0 -139.5 51t-57.5 135q0 86 57 138t140 52t140 -52t57 -138q0 -84 -57.5 -135t-139.5 -51zM551 1393q-35 0 -55.5 -20.5t-20.5 -53.5q0 -32 21 -53t55 -21q35 0 56.5 21.5t21.5 52.5q0 33 -21.5 53.5t-56.5 20.5zM1061 164l14 -158q-56 -16 -114 -16
q-77 0 -127.5 45t-59.5 119q-106 -164 -352 -164q-165 0 -252.5 74t-87.5 198q0 105 63 175.5t167.5 101t248.5 30.5h211v66q0 106 -64 165.5t-184 59.5q-108 0 -171 -48.5t-72 -139.5h-177q12 161 129 251.5t304 90.5q198 0 306.5 -100.5t108.5 -282.5v-410q0 -31 16 -49
t42 -18t51 10zM459 135q72 0 134 23.5t99.5 59.5t58.5 75.5t21 75.5v69h-221q-285 0 -285 -168q0 -135 193 -135z" />
    <glyph glyph-name="ae" unicode="&#xe6;" horiz-adv-x="1767" 
d="M1679 500v-45h-733q12 -141 92 -226.5t203 -85.5q113 0 174.5 51t77.5 123h182q-29 -148 -138.5 -237.5t-295.5 -89.5q-130 0 -231 54t-164 151q-147 -205 -426 -205q-162 0 -251 74.5t-89 197.5q0 307 567 307h117v66q0 105 -63.5 165t-180.5 60q-96 0 -158 -49
t-75 -139h-181q17 159 128.5 250.5t289.5 91.5q122 0 214.5 -41.5t144.5 -116.5q64 75 154.5 116.5t195.5 41.5q205 0 325.5 -136.5t120.5 -377.5zM1235 860q-109 0 -186 -73t-99 -199h547q-17 133 -85 202.5t-177 69.5zM457 141q71 0 133 22t101.5 56t62 72.5t24.5 73.5
q-1 4 -12 73h-119q-383 0 -383 -168q0 -61 48.5 -95t144.5 -34z" />
    <glyph glyph-name="ccedilla" unicode="&#xe7;" horiz-adv-x="1085" 
d="M565 143q110 0 173 60t79 157h193q-22 -164 -130.5 -262.5t-289.5 -107.5l-17 -72q69 -4 116.5 -40.5t47.5 -115.5q0 -85 -61 -134.5t-174 -49.5q-67 0 -129 23l28 120q49 -18 107 -18q98 0 98 55q0 64 -166 64l37 174q-186 24 -287.5 160t-101.5 342q0 227 133 371.5
t346 144.5q193 0 307.5 -101t135.5 -276h-193q-16 100 -78 161.5t-170 61.5q-135 0 -216 -97.5t-81 -260.5q0 -164 77.5 -261.5t215.5 -97.5z" />
    <glyph glyph-name="egrave" unicode="&#xe8;" horiz-adv-x="1112" 
d="M659 1157h-147l-186 328h227zM1024 500v-45h-750q11 -144 89.5 -228t209.5 -84q63 0 112 15t79 41.5t47.5 55.5t24.5 62h182q-31 -146 -143.5 -236.5t-303.5 -90.5q-229 0 -356 141t-127 369q0 226 134 370t345 144q212 0 334.5 -136t122.5 -378zM569 860
q-115 0 -191.5 -72.5t-98.5 -199.5h563q-17 134 -87.5 203t-185.5 69z" />
    <glyph glyph-name="eacute" unicode="&#xe9;" horiz-adv-x="1112" 
d="M809 1485l-186 -328h-148l107 328h227zM1024 500v-45h-750q11 -144 89.5 -228t209.5 -84q63 0 112 15t79 41.5t47.5 55.5t24.5 62h182q-31 -146 -143.5 -236.5t-303.5 -90.5q-229 0 -356 141t-127 369q0 226 134 370t345 144q212 0 334.5 -136t122.5 -378zM569 860
q-115 0 -191.5 -72.5t-98.5 -199.5h563q-17 134 -87.5 203t-185.5 69z" />
    <glyph glyph-name="ecircumflex" unicode="&#xea;" horiz-adv-x="1112" 
d="M567 1346l-141 -189h-154l195 328h201l194 -328h-153zM1024 500v-45h-750q11 -144 89.5 -228t209.5 -84q63 0 112 15t79 41.5t47.5 55.5t24.5 62h182q-31 -146 -143.5 -236.5t-303.5 -90.5q-229 0 -356 141t-127 369q0 226 134 370t345 144q212 0 334.5 -136t122.5 -378z
M569 860q-115 0 -191.5 -72.5t-98.5 -199.5h563q-17 134 -87.5 203t-185.5 69z" />
    <glyph glyph-name="edieresis" unicode="&#xeb;" horiz-adv-x="1112" 
d="M389 1223q-51 0 -82 30t-31 78q0 50 31 80.5t82 30.5t82 -30.5t31 -80.5q0 -48 -31 -78t-82 -30zM766 1223q-51 0 -82 30t-31 78q0 50 31 80.5t82 30.5t82 -30.5t31 -80.5q0 -48 -31 -78t-82 -30zM1024 500v-45h-750q11 -144 89.5 -228t209.5 -84q63 0 112 15t79 41.5
t47.5 55.5t24.5 62h182q-31 -146 -143.5 -236.5t-303.5 -90.5q-229 0 -356 141t-127 369q0 226 134 370t345 144q212 0 334.5 -136t122.5 -378zM569 860q-115 0 -191.5 -72.5t-98.5 -199.5h563q-17 134 -87.5 203t-185.5 69z" />
    <glyph glyph-name="igrave" unicode="&#xec;" horiz-adv-x="481" 
d="M141 1157l-186 328h227l107 -328h-148zM150 0v1004h182v-1004h-182z" />
    <glyph glyph-name="iacute" unicode="&#xed;" horiz-adv-x="481" 
d="M272 1157h-147l106 328h228zM150 0v1004h182v-1004h-182z" />
    <glyph glyph-name="icircumflex" unicode="&#xee;" horiz-adv-x="481" 
d="M-53 1157l194 328h201l195 -328h-154l-141 189l-142 -189h-153zM150 0v1004h182v-1004h-182z" />
    <glyph glyph-name="idieresis" unicode="&#xef;" horiz-adv-x="481" 
d="M63 1442q51 0 82 -30.5t31 -80.5q0 -48 -31 -78t-82 -30t-81.5 30t-30.5 78q0 50 30.5 80.5t81.5 30.5zM440 1442q51 0 82 -30.5t31 -80.5q0 -48 -31 -78t-82 -30t-81.5 30t-30.5 78q0 50 30.5 80.5t81.5 30.5zM150 0v1004h182v-1004h-182z" />
    <glyph glyph-name="eth" unicode="&#xf0;" horiz-adv-x="1183" 
d="M801 1270q280 -260 280 -731q0 -265 -134.5 -407t-371.5 -142q-124 0 -234.5 56.5t-181.5 165t-71 243.5q0 147 66 262t175.5 175t241.5 60q110 0 193.5 -44.5t124.5 -100.5q-23 100 -79 193t-134 165l-178 -149l-84 106l153 129q-105 66 -209 84l39 142
q158 -36 293 -121l146 123l86 -107zM575 143q145 0 232 91.5t90 230.5q0 144 -97.5 240t-217.5 96q-134 0 -222 -97.5t-88 -244.5q0 -137 92.5 -226.5t210.5 -89.5z" />
    <glyph glyph-name="ntilde" unicode="&#xf1;" horiz-adv-x="1150" 
d="M457 1294q-37 0 -56.5 -24t-19.5 -64h-135q0 232 194 232q50 0 90 -15t62 -33.5t50 -33.5t56 -15q35 0 55.5 24t20.5 65h133q0 -112 -51 -172t-143 -60q-48 0 -87.5 15t-61.5 33t-50.5 33t-56.5 15zM649 1014q168 0 265.5 -99.5t97.5 -281.5v-633h-183v596
q0 128 -58.5 196t-170.5 68q-122 0 -196 -74.5t-74 -201.5v-584h-180v1004h169l9 -150q110 160 321 160z" />
    <glyph glyph-name="ograve" unicode="&#xf2;" horiz-adv-x="1169" 
d="M528 1157l-186 328h227l107 -328h-148zM584 1014q225 0 361 -140.5t136 -369.5t-136.5 -371.5t-360.5 -142.5q-223 0 -359.5 137.5t-136.5 364.5q0 230 137.5 376t358.5 146zM584 860q-139 0 -225.5 -101t-86.5 -261q0 -158 86.5 -256.5t225.5 -98.5q142 0 227.5 98
t85.5 257q0 161 -86 261.5t-227 100.5z" />
    <glyph glyph-name="oacute" unicode="&#xf3;" horiz-adv-x="1169" 
d="M639 1157h-147l106 328h227zM584 1014q225 0 361 -140.5t136 -369.5t-136.5 -371.5t-360.5 -142.5q-223 0 -359.5 137.5t-136.5 364.5q0 230 137.5 376t358.5 146zM584 860q-139 0 -225.5 -101t-86.5 -261q0 -158 86.5 -256.5t225.5 -98.5q142 0 227.5 98t85.5 257
q0 161 -86 261.5t-227 100.5z" />
    <glyph glyph-name="ocircumflex" unicode="&#xf4;" horiz-adv-x="1169" 
d="M289 1157l194 328h201l195 -328h-154l-141 189l-142 -189h-153zM584 1014q225 0 361 -140.5t136 -369.5t-136.5 -371.5t-360.5 -142.5q-223 0 -359.5 137.5t-136.5 364.5q0 230 137.5 376t358.5 146zM584 860q-139 0 -225.5 -101t-86.5 -261q0 -158 86.5 -256.5
t225.5 -98.5q142 0 227.5 98t85.5 257q0 161 -86 261.5t-227 100.5z" />
    <glyph glyph-name="otilde" unicode="&#xf5;" horiz-adv-x="1169" 
d="M444 1294q-37 0 -56 -24t-19 -64h-136q0 232 195 232q50 0 90 -15t62 -33.5t50 -33.5t56 -15q35 0 55.5 24t20.5 65h133q0 -111 -51.5 -171.5t-143.5 -60.5q-48 0 -87.5 15t-61.5 33t-50.5 33t-56.5 15zM584 1014q225 0 361 -140.5t136 -369.5t-136.5 -371.5
t-360.5 -142.5q-223 0 -359.5 137.5t-136.5 364.5q0 230 137.5 376t358.5 146zM584 860q-139 0 -225.5 -101t-86.5 -261q0 -158 86.5 -256.5t225.5 -98.5q142 0 227.5 98t85.5 257q0 161 -86 261.5t-227 100.5z" />
    <glyph glyph-name="odieresis" unicode="&#xf6;" horiz-adv-x="1169" 
d="M406 1442q51 0 81.5 -30.5t30.5 -80.5q0 -48 -30.5 -78t-81.5 -30t-82 30t-31 78q0 50 31 80.5t82 30.5zM782 1442q51 0 82 -30.5t31 -80.5q0 -48 -31 -78t-82 -30t-81.5 30t-30.5 78q0 50 30.5 80.5t81.5 30.5zM584 1014q225 0 361 -140.5t136 -369.5t-136.5 -371.5
t-360.5 -142.5q-223 0 -359.5 137.5t-136.5 364.5q0 230 137.5 376t358.5 146zM584 860q-139 0 -225.5 -101t-86.5 -261q0 -158 86.5 -256.5t225.5 -98.5q142 0 227.5 98t85.5 257q0 161 -86 261.5t-227 100.5z" />
    <glyph glyph-name="divide" unicode="&#xf7;" horiz-adv-x="1019" 
d="M510 1145q46 0 74 -28.5t28 -72.5t-28 -71t-74 -27t-74 27t-28 71t28 72.5t74 28.5zM104 635v149h811v-149h-811zM510 475q46 0 74 -28t28 -72t-28 -71.5t-74 -27.5t-74 27.5t-28 71.5t28 72t74 28z" />
    <glyph glyph-name="oslash" unicode="&#xf8;" horiz-adv-x="1169" 
d="M905 911q84 -68 130 -172.5t46 -234.5q0 -229 -136.5 -371.5t-360.5 -142.5q-119 0 -215 41l-54 -88h-143l92 149q-84 67 -130 169.5t-46 230.5q0 230 137.5 376t358.5 146q121 0 219 -43l51 86h139zM272 498q0 -157 84 -254l361 587q-63 29 -133 29q-139 0 -225.5 -101
t-86.5 -261zM584 143q142 0 227.5 98t85.5 257q0 161 -86 260l-356 -588q62 -27 129 -27z" />
    <glyph glyph-name="ugrave" unicode="&#xf9;" horiz-adv-x="1130" 
d="M651 1157h-147l-187 328h228zM801 1004h180v-1004h-170l-8 147q-48 -72 -127 -114.5t-182 -42.5q-164 0 -259.5 96.5t-95.5 261.5v656h183v-629q0 -111 58.5 -171.5t166.5 -60.5q111 0 182.5 74.5t71.5 202.5v584z" />
    <glyph glyph-name="uacute" unicode="&#xfa;" horiz-adv-x="1130" 
d="M801 1485l-187 -328h-147l106 328h228zM801 1004h180v-1004h-170l-8 147q-48 -72 -127 -114.5t-182 -42.5q-164 0 -259.5 96.5t-95.5 261.5v656h183v-629q0 -111 58.5 -171.5t166.5 -60.5q111 0 182.5 74.5t71.5 202.5v584z" />
    <glyph glyph-name="ucircumflex" unicode="&#xfb;" horiz-adv-x="1130" 
d="M559 1346l-141 -189h-154l195 328h200l195 -328h-154zM801 1004h180v-1004h-170l-8 147q-48 -72 -127 -114.5t-182 -42.5q-164 0 -259.5 96.5t-95.5 261.5v656h183v-629q0 -111 58.5 -171.5t166.5 -60.5q111 0 182.5 74.5t71.5 202.5v584z" />
    <glyph glyph-name="udieresis" unicode="&#xfc;" horiz-adv-x="1130" 
d="M381 1223q-51 0 -82 30t-31 78q0 50 31 80.5t82 30.5t82 -30.5t31 -80.5q0 -48 -31 -78t-82 -30zM758 1223q-51 0 -82 30t-31 78q0 50 31 80.5t82 30.5t81.5 -30.5t30.5 -80.5q0 -48 -30.5 -78t-81.5 -30zM801 1004h180v-1004h-170l-8 147q-48 -72 -127 -114.5
t-182 -42.5q-164 0 -259.5 96.5t-95.5 261.5v656h183v-629q0 -111 58.5 -171.5t166.5 -60.5q111 0 182.5 74.5t71.5 202.5v584z" />
    <glyph glyph-name="yacute" unicode="&#xfd;" horiz-adv-x="1032" 
d="M756 1485l-187 -328h-147l106 328h228zM817 1004h184l-380 -1004l-43 -113q-65 -172 -145 -239.5t-210 -67.5q-90 0 -149 25l14 159q50 -20 96 -20q80 0 132 32t92 128l24 57l-395 1043h203l254 -713q17 -44 32 -107h4q9 44 29 107z" />
    <glyph glyph-name="thorn" unicode="&#xfe;" horiz-adv-x="1218" 
d="M672 1014q205 0 330.5 -136t125.5 -364q0 -233 -129.5 -378.5t-339.5 -145.5q-228 0 -329 164v-564h-180v1864h180v-618q50 81 137 129.5t205 48.5zM647 143q134 0 215.5 101.5t81.5 265.5q0 160 -79 255t-214 95q-78 0 -141.5 -31t-101.5 -81t-58 -107.5t-20 -114.5v-45
q0 -59 19.5 -117t56.5 -108.5t100 -81.5t141 -31z" />
    <glyph glyph-name="ydieresis" unicode="&#xff;" horiz-adv-x="1032" 
d="M336 1223q-51 0 -82 30t-31 78q0 50 31 80.5t82 30.5t82 -30.5t31 -80.5q0 -48 -31 -78t-82 -30zM713 1223q-51 0 -82 30t-31 78q0 50 31 80.5t82 30.5t81.5 -30.5t30.5 -80.5q0 -48 -30.5 -78t-81.5 -30zM817 1004h184l-380 -1004l-43 -113q-65 -172 -145 -239.5
t-210 -67.5q-90 0 -149 25l14 159q50 -20 96 -20q80 0 132 32t92 128l24 57l-395 1043h203l254 -713q17 -44 32 -107h4q9 44 29 107z" />
    <glyph glyph-name="Amacron" unicode="&#x100;" horiz-adv-x="1296" 
d="M930 1683v-135h-563v135h563zM1087 0l-129 356h-620l-129 -356h-182l518 1405h207l518 -1405h-183zM397 516h502l-250 688z" />
    <glyph glyph-name="amacron" unicode="&#x101;" horiz-adv-x="1118" 
d="M834 1397v-135h-564v135h564zM1061 164l14 -158q-56 -16 -114 -16q-77 0 -127.5 45t-59.5 119q-106 -164 -352 -164q-165 0 -252.5 74t-87.5 198q0 105 63 175.5t167.5 101t248.5 30.5h211v66q0 106 -64 165.5t-184 59.5q-108 0 -171 -48.5t-72 -139.5h-177
q12 161 129 251.5t304 90.5q198 0 306.5 -100.5t108.5 -282.5v-410q0 -31 16 -49t42 -18t51 10zM459 135q72 0 134 23.5t99.5 59.5t58.5 75.5t21 75.5v69h-221q-285 0 -285 -168q0 -135 193 -135z" />
    <glyph glyph-name="Abreve" unicode="&#x102;" horiz-adv-x="1296" 
d="M649 1491q-126 0 -194 74.5t-68 189.5h150q0 -63 29 -95t83 -32q55 0 84 32.5t29 94.5h151q0 -114 -68.5 -189t-195.5 -75zM1087 0l-129 356h-620l-129 -356h-182l518 1405h207l518 -1405h-183zM397 516h502l-250 688z" />
    <glyph glyph-name="abreve" unicode="&#x103;" horiz-adv-x="1118" 
d="M551 1151q-135 0 -210 86.5t-75 237.5h150q0 -187 133 -187t133 187h152q0 -149 -74.5 -236.5t-208.5 -87.5zM1061 164l14 -158q-56 -16 -114 -16q-77 0 -127.5 45t-59.5 119q-106 -164 -352 -164q-165 0 -252.5 74t-87.5 198q0 105 63 175.5t167.5 101t248.5 30.5h211
v66q0 106 -64 165.5t-184 59.5q-108 0 -171 -48.5t-72 -139.5h-177q12 161 129 251.5t304 90.5q198 0 306.5 -100.5t108.5 -282.5v-410q0 -31 16 -49t42 -18t51 10zM459 135q72 0 134 23.5t99.5 59.5t58.5 75.5t21 75.5v69h-221q-285 0 -285 -168q0 -135 193 -135z" />
    <glyph glyph-name="Aogonek" unicode="&#x104;" horiz-adv-x="1296" 
d="M1311 -262l51 -103q-62 -59 -176 -59q-99 0 -155 52t-56 141q0 126 125 231h-13l-129 356h-620l-129 -356h-182l518 1405h207l518 -1405q-6 -4 -16.5 -10.5t-37.5 -28t-47.5 -44.5t-37.5 -58t-17 -70q0 -43 23 -65.5t63 -22.5q64 0 111 37zM397 516h502l-250 688z" />
    <glyph glyph-name="aogonek" unicode="&#x105;" horiz-adv-x="1118" 
d="M1116 -256l51 -102q-63 -60 -176 -60q-99 0 -155 52t-56 141q0 124 117 225q-107 31 -123 154q-106 -164 -352 -164q-165 0 -252.5 74t-87.5 198q0 105 63 175.5t167.5 101t248.5 30.5h211v66q0 106 -64 165.5t-184 59.5q-108 0 -171 -48.5t-72 -139.5h-177
q12 161 129 251.5t304 90.5q198 0 306.5 -100.5t108.5 -282.5v-410q0 -31 16 -49t42 -18t51 10l14 -158q-6 -4 -16.5 -10.5t-37.5 -28t-47 -44.5t-37 -58t-17 -70q0 -43 23 -65.5t63 -22.5q63 0 110 37zM459 135q72 0 134 23.5t99.5 59.5t58.5 75.5t21 75.5v69h-221
q-285 0 -285 -168q0 -135 193 -135z" />
    <glyph glyph-name="Cacute" unicode="&#x106;" horiz-adv-x="1409" 
d="M834 1470h-170l86 265h270zM733 147q189 0 289.5 95t120.5 254h184q-13 -114 -56 -206t-115 -160t-180 -105t-245 -37q-282 0 -456.5 191.5t-174.5 522.5q0 213 82 376.5t225.5 251t323.5 87.5q266 0 419 -139t177 -375h-184q-20 162 -120.5 258t-289.5 96
q-194 0 -322 -151.5t-128 -403.5q0 -258 126.5 -406.5t323.5 -148.5z" />
    <glyph glyph-name="cacute" unicode="&#x107;" horiz-adv-x="1085" 
d="M629 1157h-148l107 328h227zM557 -10q-223 0 -346 140t-123 368q0 227 133 371.5t346 144.5q193 0 307.5 -101t135.5 -276h-193q-16 100 -78 161.5t-170 61.5q-135 0 -216 -97.5t-81 -260.5q0 -164 77.5 -261.5t215.5 -97.5q110 0 173 60t79 157h193
q-24 -171 -141 -270.5t-312 -99.5z" />
    <glyph glyph-name="Ccircumflex" unicode="&#x108;" horiz-adv-x="1409" 
d="M850 1735l172 -265h-150l-141 146l-141 -146h-150l174 265h236zM733 147q189 0 289.5 95t120.5 254h184q-13 -114 -56 -206t-115 -160t-180 -105t-245 -37q-282 0 -456.5 191.5t-174.5 522.5q0 213 82 376.5t225.5 251t323.5 87.5q266 0 419 -139t177 -375h-184
q-20 162 -120.5 258t-289.5 96q-194 0 -322 -151.5t-128 -403.5q0 -258 126.5 -406.5t323.5 -148.5z" />
    <glyph glyph-name="ccircumflex" unicode="&#x109;" horiz-adv-x="1085" 
d="M279 1157l194 328h201l194 -328h-153l-142 189l-141 -189h-153zM557 -10q-223 0 -346 140t-123 368q0 227 133 371.5t346 144.5q193 0 307.5 -101t135.5 -276h-193q-16 100 -78 161.5t-170 61.5q-135 0 -216 -97.5t-81 -260.5q0 -164 77.5 -261.5t215.5 -97.5
q110 0 173 60t79 157h193q-24 -171 -141 -270.5t-312 -99.5z" />
    <glyph glyph-name="Cdotaccent" unicode="&#x10a;" horiz-adv-x="1409" 
d="M729 1724q57 0 92 -34.5t35 -90.5q0 -55 -35 -88.5t-92 -33.5t-92 33.5t-35 88.5q0 56 35 90.5t92 34.5zM733 147q189 0 289.5 95t120.5 254h184q-13 -114 -56 -206t-115 -160t-180 -105t-245 -37q-282 0 -456.5 191.5t-174.5 522.5q0 213 82 376.5t225.5 251t323.5 87.5
q266 0 419 -139t177 -375h-184q-20 162 -120.5 258t-289.5 96q-194 0 -322 -151.5t-128 -403.5q0 -258 126.5 -406.5t323.5 -148.5z" />
    <glyph glyph-name="cdotaccent" unicode="&#x10b;" horiz-adv-x="1085" 
d="M573 1458q57 0 92 -34.5t35 -90.5q0 -55 -35 -89t-92 -34t-92 34t-35 89q0 56 35 90.5t92 34.5zM557 -10q-223 0 -346 140t-123 368q0 227 133 371.5t346 144.5q193 0 307.5 -101t135.5 -276h-193q-16 100 -78 161.5t-170 61.5q-135 0 -216 -97.5t-81 -260.5
q0 -164 77.5 -261.5t215.5 -97.5q110 0 173 60t79 157h193q-24 -171 -141 -270.5t-312 -99.5z" />
    <glyph glyph-name="Ccaron" unicode="&#x10c;" horiz-adv-x="1409" 
d="M852 1470h-236l-174 265h150l141 -146l141 146h150zM733 147q189 0 289.5 95t120.5 254h184q-13 -114 -56 -206t-115 -160t-180 -105t-245 -37q-282 0 -456.5 191.5t-174.5 522.5q0 213 82 376.5t225.5 251t323.5 87.5q266 0 419 -139t177 -375h-184q-20 162 -120.5 258
t-289.5 96q-194 0 -322 -151.5t-128 -403.5q0 -258 126.5 -406.5t323.5 -148.5z" />
    <glyph glyph-name="ccaron" unicode="&#x10d;" horiz-adv-x="1085" 
d="M279 1485h153l141 -189l144 189h153l-194 -328h-201zM557 -10q-223 0 -346 140t-123 368q0 227 133 371.5t346 144.5q193 0 307.5 -101t135.5 -276h-193q-16 100 -78 161.5t-170 61.5q-135 0 -216 -97.5t-81 -260.5q0 -164 77.5 -261.5t215.5 -97.5q110 0 173 60t79 157
h193q-24 -171 -141 -270.5t-312 -99.5z" />
    <glyph glyph-name="Dcaron" unicode="&#x10e;" horiz-adv-x="1458" 
d="M805 1489h-236l-174 264h150l141 -145l141 145h150zM698 1405q145 0 267 -48t209 -137t135.5 -222t48.5 -296q0 -326 -181.5 -514t-478.5 -188h-512v1405h512zM698 158q216 0 347 145t131 399t-131 398.5t-347 144.5h-331v-1087h331z" />
    <glyph glyph-name="dcaron" unicode="&#x10f;" horiz-adv-x="1232" 
d="M1288 1528q125 0 125 -168q0 -148 -72 -233.5t-157 -82.5v93q43 0 76.5 41t33.5 108q-57 0 -92 34.5t-35 88.5q0 55 35.5 87t85.5 32zM887 850v604h180v-1454h-176l-4 156q-102 -166 -330 -166q-211 0 -340 141t-129 373q0 229 129 369.5t340 140.5q227 0 330 -164z
M569 143q78 0 141 31t100.5 81.5t57 108.5t19.5 117v41q0 59 -19.5 117t-57 108.5t-100.5 81.5t-141 31q-135 0 -216 -98t-81 -258q0 -163 81 -262t216 -99z" />
    <glyph glyph-name="Dcroat" unicode="&#x110;" horiz-adv-x="1490" 
d="M731 1405q145 0 267 -48t209 -137t135.5 -222t48.5 -296q0 -326 -181.5 -514t-478.5 -188h-512v621h-184v151h184v633h512zM731 158q216 0 346.5 145t130.5 399t-130.5 398.5t-346.5 144.5h-332v-473h361v-151h-361v-463h332z" />
    <glyph glyph-name="dcroat" unicode="&#x111;" horiz-adv-x="1216" 
d="M1180 1303v-132h-113v-1171h-176l-4 168q-50 -81 -137 -129.5t-205 -48.5q-205 0 -331 136t-126 363q0 233 129.5 379t339.5 146q229 0 330 -164v321h-312v132h312v151h180v-151h113zM565 143q63 0 117 20.5t91 54.5t63.5 78t38.5 90t12 91v45q0 59 -19.5 117t-57 108.5
t-100.5 81.5t-141 31q-134 0 -215.5 -101t-81.5 -265q0 -160 79 -255.5t214 -95.5z" />
    <glyph glyph-name="Emacron" unicode="&#x112;" horiz-adv-x="1232" 
d="M938 1683v-135h-563v135h563zM367 160h763v-160h-944v1405h934v-162h-753v-432h688v-162h-688v-489z" />
    <glyph glyph-name="emacron" unicode="&#x113;" horiz-adv-x="1112" 
d="M850 1397v-135h-563v135h563zM1024 500v-45h-750q11 -144 89.5 -228t209.5 -84q63 0 112 15t79 41.5t47.5 55.5t24.5 62h182q-31 -146 -143.5 -236.5t-303.5 -90.5q-229 0 -356 141t-127 369q0 226 134 370t345 144q212 0 334.5 -136t122.5 -378zM569 860
q-115 0 -191.5 -72.5t-98.5 -199.5h563q-17 134 -87.5 203t-185.5 69z" />
    <glyph glyph-name="Ebreve" unicode="&#x114;" horiz-adv-x="1232" 
d="M655 1491q-126 0 -194 74.5t-68 189.5h150q0 -63 29 -95t83 -32q55 0 84 32.5t29 94.5h152q0 -114 -68.5 -189t-196.5 -75zM367 160h763v-160h-944v1405h934v-162h-753v-432h688v-162h-688v-489z" />
    <glyph glyph-name="ebreve" unicode="&#x115;" horiz-adv-x="1112" 
d="M567 1151q-135 0 -209.5 86.5t-74.5 237.5h149q0 -187 133 -187t133 187h152q0 -149 -74.5 -236.5t-208.5 -87.5zM1024 500v-45h-750q11 -144 89.5 -228t209.5 -84q63 0 112 15t79 41.5t47.5 55.5t24.5 62h182q-31 -146 -143.5 -236.5t-303.5 -90.5q-229 0 -356 141
t-127 369q0 226 134 370t345 144q212 0 334.5 -136t122.5 -378zM569 860q-115 0 -191.5 -72.5t-98.5 -199.5h563q-17 134 -87.5 203t-185.5 69z" />
    <glyph glyph-name="Edotaccent" unicode="&#x116;" horiz-adv-x="1232" 
d="M653 1497q-57 0 -92 34t-35 89q0 56 35 90.5t92 34.5t92 -34.5t35 -90.5q0 -55 -35 -89t-92 -34zM367 160h763v-160h-944v1405h934v-162h-753v-432h688v-162h-688v-489z" />
    <glyph glyph-name="edotaccent" unicode="&#x117;" horiz-adv-x="1112" 
d="M567 1210q-57 0 -92 34t-35 89q0 56 35 90.5t92 34.5t92 -34.5t35 -90.5q0 -55 -35 -89t-92 -34zM1024 500v-45h-750q11 -144 89.5 -228t209.5 -84q63 0 112 15t79 41.5t47.5 55.5t24.5 62h182q-31 -146 -143.5 -236.5t-303.5 -90.5q-229 0 -356 141t-127 369
q0 226 134 370t345 144q212 0 334.5 -136t122.5 -378zM569 860q-115 0 -191.5 -72.5t-98.5 -199.5h563q-17 134 -87.5 203t-185.5 69z" />
    <glyph glyph-name="Eogonek" unicode="&#x118;" horiz-adv-x="1232" 
d="M1171 -262l52 -103q-62 -59 -176 -59q-99 0 -155 52t-56 141q0 126 125 231h-775v1405h934v-162h-753v-432h688v-162h-688v-489h763v-160q-6 -4 -16.5 -10.5t-37.5 -28t-47 -44.5t-37 -58t-17 -70q0 -43 23 -65.5t63 -22.5q63 0 110 37z" />
    <glyph glyph-name="eogonek" unicode="&#x119;" horiz-adv-x="1112" 
d="M1024 500v-45h-750q11 -144 89.5 -228t209.5 -84q63 0 112 15t79 41.5t47.5 55.5t24.5 62h182q-42 -198 -213 -280l2 -2q-6 -4 -16.5 -10.5t-37.5 -28t-47.5 -44.5t-37.5 -58t-17 -70q0 -43 23 -65.5t63 -22.5q64 0 111 37l51 -103q-62 -59 -176 -59q-99 0 -155 52
t-56 140q0 102 78 187h-19q-229 0 -356 141t-127 369q0 226 134 370t345 144q212 0 334.5 -136t122.5 -378zM569 860q-115 0 -191.5 -72.5t-98.5 -199.5h563q-17 134 -87.5 203t-185.5 69z" />
    <glyph glyph-name="Ecaron" unicode="&#x11a;" horiz-adv-x="1232" 
d="M776 1491h-235l-174 264h149l141 -145l142 145h149zM367 160h763v-160h-944v1405h934v-162h-753v-432h688v-162h-688v-489z" />
    <glyph glyph-name="ecaron" unicode="&#x11b;" horiz-adv-x="1112" 
d="M670 1157h-201l-197 328h154l141 -189l144 189h153zM1024 500v-45h-750q11 -144 89.5 -228t209.5 -84q63 0 112 15t79 41.5t47.5 55.5t24.5 62h182q-31 -146 -143.5 -236.5t-303.5 -90.5q-229 0 -356 141t-127 369q0 226 134 370t345 144q212 0 334.5 -136t122.5 -378z
M569 860q-115 0 -191.5 -72.5t-98.5 -199.5h563q-17 134 -87.5 203t-185.5 69z" />
    <glyph glyph-name="Gcircumflex" unicode="&#x11c;" horiz-adv-x="1470" 
d="M754 1636l-142 -145h-149l174 264h235l172 -264h-149zM756 731h592v-731h-140v244q-67 -119 -184.5 -187.5t-288.5 -68.5q-141 0 -258.5 49.5t-200.5 141.5t-129.5 228.5t-46.5 303.5q0 315 182 510.5t476 195.5q132 0 239 -36t178 -101t113 -150t53 -186h-184
q-10 65 -36.5 119t-72.5 98.5t-119.5 70t-168.5 25.5q-215 0 -346 -150t-131 -396q0 -263 126 -413.5t328 -150.5q103 0 189 34t142 90.5t89.5 125t40.5 140.5v41h-442v153z" />
    <glyph glyph-name="gcircumflex" unicode="&#x11d;" horiz-adv-x="1208" 
d="M604 1346l-141 -189h-154l195 328h201l194 -328h-154zM889 1004h170v-1024q0 -181 -128 -295.5t-356 -114.5q-204 0 -318.5 81.5t-133.5 239.5h180q17 -89 81.5 -128t188.5 -39q151 0 228.5 72.5t77.5 183.5v174q-101 -164 -326 -164q-208 0 -336.5 141.5t-128.5 372.5
q0 228 129 369t336 141q227 0 328 -168zM565 143q77 0 139 31t99 81.5t56.5 108.5t19.5 117v41q0 59 -19.5 117t-56.5 108.5t-99 81.5t-139 31q-132 0 -212.5 -98t-80.5 -258q0 -163 80.5 -262t212.5 -99z" />
    <glyph glyph-name="Gbreve" unicode="&#x11e;" horiz-adv-x="1470" 
d="M754 1491q-126 0 -194 74.5t-68 189.5h149q0 -63 29.5 -95t83.5 -32q112 0 112 127h152q0 -114 -68 -189t-196 -75zM756 731h592v-731h-140v244q-67 -119 -184.5 -187.5t-288.5 -68.5q-141 0 -258.5 49.5t-200.5 141.5t-129.5 228.5t-46.5 303.5q0 315 182 510.5
t476 195.5q132 0 239 -36t178 -101t113 -150t53 -186h-184q-10 65 -36.5 119t-72.5 98.5t-119.5 70t-168.5 25.5q-215 0 -346 -150t-131 -396q0 -263 126 -413.5t328 -150.5q103 0 189 34t142 90.5t89.5 125t40.5 140.5v41h-442v153z" />
    <glyph glyph-name="gbreve" unicode="&#x11f;" horiz-adv-x="1208" 
d="M604 1151q-135 0 -210 86.5t-75 237.5h150q0 -187 133 -187t133 187h152q0 -149 -74.5 -236.5t-208.5 -87.5zM889 1004h170v-1024q0 -181 -128 -295.5t-356 -114.5q-204 0 -318.5 81.5t-133.5 239.5h180q17 -89 81.5 -128t188.5 -39q151 0 228.5 72.5t77.5 183.5v174
q-101 -164 -326 -164q-208 0 -336.5 141.5t-128.5 372.5q0 228 129 369t336 141q227 0 328 -168zM565 143q77 0 139 31t99 81.5t56.5 108.5t19.5 117v41q0 59 -19.5 117t-56.5 108.5t-99 81.5t-139 31q-132 0 -212.5 -98t-80.5 -258q0 -163 80.5 -262t212.5 -99z" />
    <glyph glyph-name="Gdotaccent" unicode="&#x120;" horiz-adv-x="1470" 
d="M752 1497q-57 0 -92 34t-35 89q0 56 35 90.5t92 34.5t92 -34.5t35 -90.5q0 -55 -35 -89t-92 -34zM756 731h592v-731h-140v244q-67 -119 -184.5 -187.5t-288.5 -68.5q-141 0 -258.5 49.5t-200.5 141.5t-129.5 228.5t-46.5 303.5q0 315 182 510.5t476 195.5q132 0 239 -36
t178 -101t113 -150t53 -186h-184q-10 65 -36.5 119t-72.5 98.5t-119.5 70t-168.5 25.5q-215 0 -346 -150t-131 -396q0 -263 126 -413.5t328 -150.5q103 0 189 34t142 90.5t89.5 125t40.5 140.5v41h-442v153z" />
    <glyph glyph-name="gdotaccent" unicode="&#x121;" horiz-adv-x="1208" 
d="M604 1210q-57 0 -92 34t-35 89q0 56 35 90.5t92 34.5t92 -34.5t35 -90.5q0 -55 -35 -89t-92 -34zM889 1004h170v-1024q0 -181 -128 -295.5t-356 -114.5q-204 0 -318.5 81.5t-133.5 239.5h180q17 -89 81.5 -128t188.5 -39q151 0 228.5 72.5t77.5 183.5v174
q-101 -164 -326 -164q-208 0 -336.5 141.5t-128.5 372.5q0 228 129 369t336 141q227 0 328 -168zM565 143q77 0 139 31t99 81.5t56.5 108.5t19.5 117v41q0 59 -19.5 117t-56.5 108.5t-99 81.5t-139 31q-132 0 -212.5 -98t-80.5 -258q0 -163 80.5 -262t212.5 -99z" />
    <glyph glyph-name="Gcommaaccent" unicode="&#x122;" horiz-adv-x="1470" 
d="M756 731h592v-731h-140v244q-67 -119 -184.5 -187.5t-288.5 -68.5q-141 0 -258.5 49.5t-200.5 141.5t-129.5 228.5t-46.5 303.5q0 315 182 510.5t476 195.5q132 0 239 -36t178 -101t113 -150t53 -186h-184q-10 65 -36.5 119t-72.5 98.5t-119.5 70t-168.5 25.5
q-215 0 -346 -150t-131 -396q0 -263 126 -413.5t328 -150.5q103 0 189 34t142 90.5t89.5 125t40.5 140.5v41h-442v153zM748 -84q124 0 124 -168q0 -142 -72.5 -228t-156.5 -81v92q42 0 75.5 40t33.5 103q-55 0 -90 34.5t-35 88.5q0 55 35.5 87t85.5 32z" />
    <glyph glyph-name="gcommaaccent" unicode="&#x123;" horiz-adv-x="1208" 
d="M602 1128q-125 0 -125 168q0 142 73 228.5t157 81.5v-93q-42 0 -75.5 -40t-33.5 -103q55 0 90 -34.5t35 -88.5q0 -55 -35.5 -87t-85.5 -32zM889 1004h170v-1024q0 -181 -128 -295.5t-356 -114.5q-204 0 -318.5 81.5t-133.5 239.5h180q17 -89 81.5 -128t188.5 -39
q151 0 228.5 72.5t77.5 183.5v174q-101 -164 -326 -164q-208 0 -336.5 141.5t-128.5 372.5q0 228 129 369t336 141q227 0 328 -168zM565 143q77 0 139 31t99 81.5t56.5 108.5t19.5 117v41q0 59 -19.5 117t-56.5 108.5t-99 81.5t-139 31q-132 0 -212.5 -98t-80.5 -258
q0 -163 80.5 -262t212.5 -99z" />
    <glyph glyph-name="Hcircumflex" unicode="&#x124;" horiz-adv-x="1476" 
d="M741 1636l-141 -145h-149l174 264h235l172 -264h-149zM1110 1405h180v-1405h-180v647h-743v-647h-181v1405h181v-596h743v596z" />
    <glyph glyph-name="hcircumflex" unicode="&#x125;" horiz-adv-x="1150" 
d="M377 1520l-141 145l-142 -145h-149l174 264h235l172 -264h-149zM649 1014q166 0 264.5 -98.5t98.5 -262.5v-653h-183v614q0 116 -59 181t-166 65q-124 0 -198 -74t-74 -202v-584h-182v1454h178v-598q108 158 321 158z" />
    <glyph glyph-name="Hbar" unicode="&#x126;" horiz-adv-x="1476" 
d="M1391 1227v-152h-101v-1075h-180v647h-743v-647h-181v1075h-100v152h100v178h181v-178h743v178h180v-178h101zM1110 809v266h-743v-266h743z" />
    <glyph glyph-name="hbar" unicode="&#x127;" horiz-adv-x="1150" 
d="M649 1014q166 0 264.5 -98.5t98.5 -262.5v-653h-183v614q0 116 -59 181t-166 65q-124 0 -198 -74t-74 -202v-584h-182v1171h-119v132h119v151h178v-151h307v-132h-307v-315q108 158 321 158z" />
    <glyph glyph-name="Itilde" unicode="&#x128;" horiz-adv-x="552" 
d="M158 1612q-37 0 -56.5 -24t-19.5 -64h-135q0 231 194 231q50 0 90 -15t61.5 -33t49.5 -33t55 -15q35 0 55.5 23.5t20.5 64.5h133q0 -111 -51 -171t-143 -60q-47 0 -86 15t-61 33t-50.5 33t-56.5 15zM186 0v1405h181v-1405h-181z" />
    <glyph glyph-name="itilde" unicode="&#x129;" horiz-adv-x="481" 
d="M102 1294q-37 0 -56 -24t-19 -64h-136q0 232 195 232q50 0 90 -15t62 -33.5t50 -33.5t56 -15q35 0 55.5 24t20.5 65h133q0 -111 -51.5 -171.5t-143.5 -60.5q-48 0 -87.5 15t-61.5 33t-50.5 33t-56.5 15zM150 0v1004h182v-1004h-182z" />
    <glyph glyph-name="Imacron" unicode="&#x12a;" horiz-adv-x="552" 
d="M-4 1548v135h563v-135h-563zM186 0v1405h181v-1405h-181z" />
    <glyph glyph-name="imacron" unicode="&#x12b;" horiz-adv-x="481" 
d="M-39 1262v135h563v-135h-563zM150 0v1004h182v-1004h-182z" />
    <glyph glyph-name="Ibreve" unicode="&#x12c;" horiz-adv-x="552" 
d="M541 1755q0 -114 -68.5 -189t-196.5 -75q-126 0 -194 74.5t-68 189.5h150q0 -63 29 -95t83 -32q55 0 84 32.5t29 94.5h152zM186 0v1405h181v-1405h-181z" />
    <glyph glyph-name="ibreve" unicode="&#x12d;" horiz-adv-x="481" 
d="M524 1475q0 -150 -74.5 -237t-207.5 -87q-135 0 -210 86.5t-75 237.5h149q0 -187 134 -187q133 0 133 187h151zM150 0v1004h182v-1004h-182z" />
    <glyph glyph-name="Iogonek" unicode="&#x12e;" horiz-adv-x="552" 
d="M408 -262l51 -103q-62 -59 -176 -59q-99 0 -155 52t-56 141q0 126 125 231h-11v1405h181v-1405q-6 -4 -16.5 -10.5t-37.5 -28t-47.5 -44.5t-37.5 -58t-17 -70q0 -43 23 -65.5t63 -22.5q64 0 111 37z" />
    <glyph glyph-name="iogonek" unicode="&#x12f;" horiz-adv-x="481" 
d="M246 1208q-53 0 -89 35t-36 88q0 52 36 87.5t89 35.5t89 -35.5t36 -87.5q0 -53 -36 -88t-89 -35zM373 -262l51 -103q-62 -59 -176 -59q-99 0 -155 52t-56 141q0 126 125 231h-12v1004h182v-1004q-6 -4 -16.5 -10.5t-37.5 -28t-47.5 -44.5t-37.5 -58t-17 -70
q0 -43 23 -65.5t63 -22.5q64 0 111 37z" />
    <glyph glyph-name="Idotaccent" unicode="&#x130;" horiz-adv-x="552" 
d="M276 1745q57 0 92 -34.5t35 -90.5q0 -55 -35 -89t-92 -34t-91.5 33.5t-34.5 89.5t34.5 90.5t91.5 34.5zM186 0v1405h181v-1405h-181z" />
    <glyph glyph-name="dotlessi" unicode="&#x131;" horiz-adv-x="481" 
d="M150 0v1004h182v-1004h-182z" />
    <glyph glyph-name="IJ" unicode="&#x132;" horiz-adv-x="1611" 
d="M186 0v1405h181v-1405h-181zM778 434q1 -75 20.5 -131.5t53.5 -89t75.5 -48t90.5 -15.5q109 0 174 72.5t65 211.5v971h181v-959q0 -208 -108.5 -331t-309.5 -123q-205 0 -313.5 116.5t-108.5 325.5h180z" />
    <glyph glyph-name="ij" unicode="&#x133;" horiz-adv-x="980" 
d="M371 1331q0 -53 -36 -88t-89 -35t-89 35t-36 88q0 52 36 87.5t89 35.5t89 -35.5t36 -87.5zM870 1331q0 -53 -37 -88t-90 -35t-87.5 34.5t-34.5 88.5q0 53 35 88t87 35q53 0 90 -35.5t37 -87.5zM150 0v1004h182v-1004h-182zM498 -420q-91 0 -150 25l14 159q50 -20 97 -20
q91 0 141.5 53t50.5 150v1057h180v-1063q0 -167 -91 -264t-242 -97z" />
    <glyph glyph-name="Jcircumflex" unicode="&#x134;" horiz-adv-x="1056" 
d="M905 1735l172 -265h-149l-142 146l-141 -146h-149l174 265h235zM223 434q1 -75 20.5 -131.5t53.5 -89t75.5 -48t90.5 -15.5q109 0 174 72.5t65 211.5v971h181v-959q0 -208 -108.5 -331t-309.5 -123q-205 0 -313.5 116.5t-108.5 325.5h180z" />
    <glyph glyph-name="jcircumflex" unicode="&#x135;" horiz-adv-x="495" 
d="M-45 1157l195 328h200l195 -328h-154l-141 189l-141 -189h-154zM12 -420q-90 0 -149 25l14 159q50 -20 96 -20q91 0 142 53.5t51 149.5v1057h180v-1063q0 -167 -91.5 -264t-242.5 -97z" />
    <glyph glyph-name="Kcommaaccent" unicode="&#x136;" horiz-adv-x="1314" 
d="M731 791l594 -791h-219l-496 657l-243 -272v-385h-181v1405h181v-791l690 791h225zM705 -84q124 0 124 -168q0 -142 -72.5 -228t-156.5 -81v92q42 0 75.5 40t33.5 103q-55 0 -90 34.5t-35 88.5q0 55 35.5 87t85.5 32z" />
    <glyph glyph-name="kcommaaccent" unicode="&#x137;" horiz-adv-x="1026" 
d="M596 573l432 -573h-211l-338 449l-149 -164v-285h-180v1454h180v-928l432 478h227zM543 -84q125 0 125 -168q0 -141 -73 -227.5t-157 -81.5v92q42 0 75.5 40t33.5 103q-55 0 -90 34.5t-35 88.5q0 55 35.5 87t85.5 32z" />
    <glyph glyph-name="kgreenlandic" unicode="&#x138;" horiz-adv-x="1026" 
d="M817 0l-338 449l-149 -164v-285h-180v1004h180v-478l432 478h227l-393 -431l432 -573h-211z" />
    <glyph glyph-name="Lacute" unicode="&#x139;" horiz-adv-x="1132" 
d="M547 1755l-187 -264h-170l86 264h271zM367 160h743v-160h-924v1405h181v-1245z" />
    <glyph glyph-name="lacute" unicode="&#x13a;" horiz-adv-x="512" 
d="M500 1784l-187 -264h-170l86 264h271zM385 154q22 0 47 10l14 -158q-56 -16 -114 -16q-87 0 -138 53.5t-51 142.5v1268h181v-1233q0 -31 17 -49t44 -18z" />
    <glyph glyph-name="Lcommaaccent" unicode="&#x13b;" horiz-adv-x="1132" 
d="M367 160h743v-160h-924v1405h181v-1245zM672 -84q125 0 125 -168q0 -141 -73 -227.5t-157 -81.5v92q42 0 75.5 40t33.5 103q-55 0 -90 34.5t-35 88.5q0 55 35.5 87t85.5 32z" />
    <glyph glyph-name="lcommaaccent" unicode="&#x13c;" horiz-adv-x="512" 
d="M332 -10q-87 0 -138 53.5t-51 142.5v1268h181v-1233q0 -31 17 -49t44 -18q22 0 47 10l14 -158q-56 -16 -114 -16zM289 -84q125 0 125 -168q0 -141 -73 -227.5t-157 -81.5v92q42 0 75.5 40t33.5 103q-55 0 -90 34.5t-35 88.5q0 55 35.5 87t85.5 32z" />
    <glyph glyph-name="Lcaron" unicode="&#x13d;" horiz-adv-x="1136" 
d="M844 1202q-57 0 -92 34.5t-35 88.5q0 55 35.5 87t85.5 32q125 0 125 -168q0 -141 -73 -227.5t-157 -83.5v92q42 0 76.5 41t34.5 104zM367 160h743v-160h-924v1405h181v-1245z" />
    <glyph glyph-name="lcaron" unicode="&#x13e;" horiz-adv-x="512" 
d="M528 1528q125 0 125 -168q0 -141 -72.5 -227.5t-156.5 -83.5v92q42 0 76.5 41t34.5 104q-57 0 -92 34.5t-35 88.5q0 55 35 87t85 32zM385 154q22 0 47 10l14 -158q-56 -16 -114 -16q-87 0 -138 53.5t-51 142.5v1268h181v-1233q0 -31 17 -49t44 -18z" />
    <glyph glyph-name="Ldot" unicode="&#x13f;" horiz-adv-x="1134" 
d="M367 160h743v-160h-924v1405h181v-1245zM840 602q-57 0 -92 34t-35 89q0 56 35 90.5t92 34.5t92 -34.5t35 -90.5q0 -55 -35 -89t-92 -34z" />
    <glyph glyph-name="ldot" unicode="&#x140;" horiz-adv-x="659" 
d="M385 154q22 0 47 10l14 -158q-56 -16 -114 -16q-87 0 -138 53.5t-51 142.5v1268h181v-1233q0 -31 17 -49t44 -18zM569 829q57 0 92 -34t35 -90q0 -55 -35 -89t-92 -34t-92 34t-35 89q0 56 35 90t92 34z" />
    <glyph glyph-name="Lslash" unicode="&#x141;" horiz-adv-x="1200" 
d="M434 160h744v-160h-924v485l-154 -94l-71 129l225 137v748h180v-637l238 145l71 -127l-309 -190v-436z" />
    <glyph glyph-name="lslash" unicode="&#x142;" horiz-adv-x="647" 
d="M479 154q22 0 47 10l15 -158q-56 -16 -115 -16q-87 0 -137.5 53.5t-50.5 142.5v430l-144 -86l-65 119l209 127v678h180v-569l135 82l68 -119l-203 -123v-504q0 -31 17 -49t44 -18z" />
    <glyph glyph-name="Nacute" unicode="&#x143;" horiz-adv-x="1472" 
d="M1026 1755l-186 -264h-170l86 264h270zM1106 1405h180v-1405h-184l-735 1124v-1124h-181v1405h185l735 -1122v1122z" />
    <glyph glyph-name="nacute" unicode="&#x144;" horiz-adv-x="1150" 
d="M838 1485l-187 -328h-147l106 328h228zM649 1014q168 0 265.5 -99.5t97.5 -281.5v-633h-183v596q0 128 -58.5 196t-170.5 68q-122 0 -196 -74.5t-74 -201.5v-584h-180v1004h169l9 -150q110 160 321 160z" />
    <glyph glyph-name="Ncommaaccent" unicode="&#x145;" horiz-adv-x="1472" 
d="M1106 1405h180v-1405h-184l-735 1124v-1124h-181v1405h185l735 -1122v1122zM741 -84q125 0 125 -168q0 -142 -72.5 -228t-156.5 -81v92q42 0 75 40t33 103q-55 0 -89.5 34.5t-34.5 88.5q0 55 35 87t85 32z" />
    <glyph glyph-name="ncommaaccent" unicode="&#x146;" horiz-adv-x="1150" 
d="M649 1014q168 0 265.5 -99.5t97.5 -281.5v-633h-183v596q0 128 -58.5 196t-170.5 68q-122 0 -196 -74.5t-74 -201.5v-584h-180v1004h169l9 -150q110 160 321 160zM586 -84q125 0 125 -168q0 -141 -73 -227.5t-157 -81.5v92q42 0 75.5 40t33.5 103q-55 0 -90 34.5
t-35 88.5q0 55 35.5 87t85.5 32z" />
    <glyph glyph-name="Ncaron" unicode="&#x147;" horiz-adv-x="1472" 
d="M858 1491h-235l-174 264h149l141 -145l142 145h149zM1106 1405h180v-1405h-184l-735 1124v-1124h-181v1405h185l735 -1122v1122z" />
    <glyph glyph-name="ncaron" unicode="&#x148;" horiz-adv-x="1150" 
d="M698 1157h-200l-197 328h154l141 -189l143 189h154zM649 1014q168 0 265.5 -99.5t97.5 -281.5v-633h-183v596q0 128 -58.5 196t-170.5 68q-122 0 -196 -74.5t-74 -201.5v-584h-180v1004h169l9 -150q110 160 321 160z" />
    <glyph glyph-name="napostrophe" unicode="&#x149;" horiz-adv-x="1288" 
d="M178 1475q125 0 125 -168q0 -141 -72.5 -228t-156.5 -84v92q42 0 76 41.5t34 104.5q-57 0 -92 34.5t-35 88.5q0 55 35.5 87t85.5 32zM786 1014q168 0 265.5 -99.5t97.5 -281.5v-633h-182v596q0 128 -59 196t-171 68q-122 0 -196 -74.5t-74 -201.5v-584h-180v1004h170
l8 -150q110 160 321 160z" />
    <glyph glyph-name="Eng" unicode="&#x14a;" horiz-adv-x="1472" 
d="M1106 1405h180v-1464q0 -167 -91.5 -264t-242.5 -97q-90 0 -149 25l14 159q50 -20 96 -20q87 0 138 50t51 132v74l-735 1124v-1124h-181v1405h185l735 -1122v1122z" />
    <glyph glyph-name="eng" unicode="&#x14b;" horiz-adv-x="1150" 
d="M649 1014q168 0 265.5 -99.5t97.5 -281.5v-692q0 -167 -91.5 -264t-242.5 -97q-91 0 -150 25l15 159q50 -20 96 -20q91 0 140.5 53t49.5 150v649q0 128 -58.5 196t-170.5 68q-122 0 -196 -74.5t-74 -201.5v-584h-180v1004h169l9 -150q110 160 321 160z" />
    <glyph glyph-name="Omacron" unicode="&#x14c;" horiz-adv-x="1556" 
d="M498 1548v135h563v-135h-563zM778 -12q-143 0 -267 49t-216 138t-144.5 223.5t-52.5 297.5t52.5 299.5t144.5 228t216.5 142.5t266.5 51q143 0 267 -49t216 -138t144.5 -223.5t52.5 -297.5t-52.5 -299.5t-144.5 -228t-216.5 -142.5t-266.5 -51zM778 147q103 0 193.5 38.5
t158 108t107 175.5t39.5 233q0 252 -143 403.5t-355 151.5q-103 0 -193.5 -38.5t-158 -108.5t-106.5 -175.5t-39 -232.5t39 -233t106.5 -175.5t158 -108t193.5 -38.5z" />
    <glyph glyph-name="omacron" unicode="&#x14d;" horiz-adv-x="1169" 
d="M303 1262v135h563v-135h-563zM584 1014q225 0 361 -140.5t136 -369.5t-136.5 -371.5t-360.5 -142.5q-223 0 -359.5 137.5t-136.5 364.5q0 230 137.5 376t358.5 146zM584 860q-139 0 -225.5 -101t-86.5 -261q0 -158 86.5 -256.5t225.5 -98.5q142 0 227.5 98t85.5 257
q0 161 -86 261.5t-227 100.5z" />
    <glyph glyph-name="Obreve" unicode="&#x14e;" horiz-adv-x="1556" 
d="M1042 1755q0 -114 -68 -189t-196 -75q-126 0 -194 74.5t-68 189.5h150q0 -63 29 -95t83 -32q55 0 84 32.5t29 94.5h151zM778 -12q-143 0 -267 49t-216 138t-144.5 223.5t-52.5 297.5t52.5 299.5t144.5 228t216.5 142.5t266.5 51q143 0 267 -49t216 -138t144.5 -223.5
t52.5 -297.5t-52.5 -299.5t-144.5 -228t-216.5 -142.5t-266.5 -51zM778 147q103 0 193.5 38.5t158 108t107 175.5t39.5 233q0 252 -143 403.5t-355 151.5q-103 0 -193.5 -38.5t-158 -108.5t-106.5 -175.5t-39 -232.5t39 -233t106.5 -175.5t158 -108t193.5 -38.5z" />
    <glyph glyph-name="obreve" unicode="&#x14f;" horiz-adv-x="1169" 
d="M866 1475q0 -150 -74.5 -237t-207.5 -87q-135 0 -210 86.5t-75 237.5h150q0 -187 133 -187t133 187h151zM584 1014q225 0 361 -140.5t136 -369.5t-136.5 -371.5t-360.5 -142.5q-223 0 -359.5 137.5t-136.5 364.5q0 230 137.5 376t358.5 146zM584 860q-139 0 -225.5 -101
t-86.5 -261q0 -158 86.5 -256.5t225.5 -98.5q142 0 227.5 98t85.5 257q0 161 -86 261.5t-227 100.5z" />
    <glyph glyph-name="Ohungarumlaut" unicode="&#x150;" horiz-adv-x="1556" 
d="M637 1491h-152l107 264h237zM954 1491h-151l106 264h238zM778 -12q-143 0 -267 49t-216 138t-144.5 223.5t-52.5 297.5t52.5 299.5t144.5 228t216.5 142.5t266.5 51q143 0 267 -49t216 -138t144.5 -223.5t52.5 -297.5t-52.5 -299.5t-144.5 -228t-216.5 -142.5t-266.5 -51
zM778 147q103 0 193.5 38.5t158 108t107 175.5t39.5 233q0 252 -143 403.5t-355 151.5q-103 0 -193.5 -38.5t-158 -108.5t-106.5 -175.5t-39 -232.5t39 -233t106.5 -175.5t158 -108t193.5 -38.5z" />
    <glyph glyph-name="ohungarumlaut" unicode="&#x151;" horiz-adv-x="1169" 
d="M467 1157h-141l86 328h241zM803 1157h-141l86 328h241zM584 1014q225 0 361 -140.5t136 -369.5t-136.5 -371.5t-360.5 -142.5q-223 0 -359.5 137.5t-136.5 364.5q0 230 137.5 376t358.5 146zM584 860q-139 0 -225.5 -101t-86.5 -261q0 -158 86.5 -256.5t225.5 -98.5
q142 0 227.5 98t85.5 257q0 161 -86 261.5t-227 100.5z" />
    <glyph glyph-name="OE" unicode="&#x152;" horiz-adv-x="2332" 
d="M1464 160h764v-160h-944v207q-92 -106 -223 -162.5t-283 -56.5q-143 0 -267 49t-216 138t-144.5 223.5t-52.5 297.5t52.5 299.5t144.5 228t216.5 142.5t266.5 51q152 0 282.5 -54.5t223.5 -156.5v199h934v-162h-754v-432h688v-162h-688v-489zM778 147q103 0 193.5 38.5
t158 108t107 175.5t39.5 233q0 252 -143 403.5t-355 151.5q-103 0 -193.5 -38.5t-158 -108.5t-106.5 -175.5t-39 -232.5t39 -233t106.5 -175.5t158 -108t193.5 -38.5z" />
    <glyph glyph-name="oe" unicode="&#x153;" horiz-adv-x="1921" 
d="M1833 500v-45h-750q11 -144 89.5 -228t209.5 -84q63 0 112 15t79 41.5t47.5 55.5t24.5 62h182q-31 -146 -143.5 -236.5t-303.5 -90.5q-267 0 -395 190q-66 -91 -168.5 -140.5t-232.5 -49.5q-223 0 -359.5 137.5t-136.5 364.5q0 230 137.5 376t358.5 146q132 0 237 -51
t170 -144q64 92 164 143.5t221 51.5q212 0 334.5 -136t122.5 -378zM584 143q142 0 227.5 98t85.5 257q0 161 -86 261.5t-227 100.5q-139 0 -225.5 -101t-86.5 -261q0 -158 86.5 -256.5t225.5 -98.5zM1378 860q-115 0 -192 -72.5t-99 -199.5h564q-17 134 -87.5 203t-185.5 69
z" />
    <glyph glyph-name="Racute" unicode="&#x154;" horiz-adv-x="1314" 
d="M899 1755l-186 -264h-170l86 264h270zM1260 164l14 -158q-56 -16 -115 -16q-65 0 -114.5 15.5t-87.5 48.5t-65 69.5t-58 93.5l-187 348h-280v-565h-181v1405h514q203 0 330 -111.5t127 -312.5q0 -156 -80.5 -257t-218.5 -138l172 -334q31 -57 67.5 -77.5t80.5 -20.5
q57 0 82 10zM367 715h333q132 0 203.5 73t71.5 193t-71.5 193t-203.5 73h-333v-532z" />
    <glyph glyph-name="racute" unicode="&#x155;" horiz-adv-x="684" 
d="M645 1485l-186 -328h-148l107 328h227zM324 842q86 172 264 172q21 0 57 -6l-2 -179q-18 9 -68 9q-101 0 -173 -82.5t-72 -227.5v-528h-180v1004h169z" />
    <glyph glyph-name="Rcommaaccent" unicode="&#x156;" horiz-adv-x="1314" 
d="M1260 164l14 -158q-56 -16 -115 -16q-65 0 -114.5 15.5t-87.5 48.5t-65 69.5t-58 93.5l-187 348h-280v-565h-181v1405h514q203 0 330 -111.5t127 -312.5q0 -156 -80.5 -257t-218.5 -138l172 -334q31 -57 67.5 -77.5t80.5 -20.5q57 0 82 10zM367 715h333q132 0 203.5 73
t71.5 193t-71.5 193t-203.5 73h-333v-532zM674 -84q125 0 125 -168q0 -141 -73 -227.5t-157 -81.5v92q42 0 75.5 40t33.5 103q-55 0 -90 34.5t-35 88.5q0 55 35.5 87t85.5 32z" />
    <glyph glyph-name="rcommaaccent" unicode="&#x157;" horiz-adv-x="684" 
d="M588 1014q21 0 57 -6l-2 -179q-18 9 -68 9q-101 0 -173 -82.5t-72 -227.5v-528h-180v1004h169l5 -162q86 172 264 172zM256 -84q125 0 125 -168q0 -142 -72.5 -228t-156.5 -81v92q42 0 75 40t33 103q-55 0 -90 34.5t-35 88.5q0 55 35.5 87t85.5 32z" />
    <glyph glyph-name="Rcaron" unicode="&#x158;" horiz-adv-x="1314" 
d="M731 1491h-235l-174 264h149l141 -145l142 145h149zM1260 164l14 -158q-56 -16 -115 -16q-65 0 -114.5 15.5t-87.5 48.5t-65 69.5t-58 93.5l-187 348h-280v-565h-181v1405h514q203 0 330 -111.5t127 -312.5q0 -156 -80.5 -257t-218.5 -138l172 -334q31 -57 67.5 -77.5
t80.5 -20.5q57 0 82 10zM367 715h333q132 0 203.5 73t71.5 193t-71.5 193t-203.5 73h-333v-532z" />
    <glyph glyph-name="rcaron" unicode="&#x159;" horiz-adv-x="684" 
d="M506 1157h-201l-196 328h153l141 -189l144 189h153zM324 842q86 172 264 172q21 0 57 -6l-2 -179q-18 9 -68 9q-101 0 -173 -82.5t-72 -227.5v-528h-180v1004h169z" />
    <glyph glyph-name="Sacute" unicode="&#x15a;" horiz-adv-x="1228" 
d="M907 1755l-186 -264h-170l86 264h270zM305 1042q0 -60 28.5 -103.5t76 -68t110 -42.5t131 -33t137 -32.5t131 -47.5t110 -72.5t76 -112.5t28.5 -163q0 -170 -143.5 -274.5t-375.5 -104.5q-249 0 -388.5 108.5t-139.5 306.5h178q0 -121 94 -188.5t271 -67.5
q151 0 236.5 58t84.5 162q0 63 -28.5 108.5t-76 71.5t-109.5 44.5t-131 33.5t-137.5 32t-130.5 45.5t-109.5 69t-76 108.5t-28.5 158q0 173 137.5 276t364.5 103q228 0 359 -107t130 -298h-178q0 124 -84 184.5t-234 60.5q-313 0 -313 -215z" />
    <glyph glyph-name="sacute" unicode="&#x15b;" horiz-adv-x="966" 
d="M731 1487l-186 -328h-148l107 328h227zM285 731q0 -41 25.5 -69t67.5 -42.5t95.5 -28.5t109.5 -24.5t109.5 -33t95.5 -52t67.5 -83.5t25.5 -126q0 -127 -106 -204.5t-296 -77.5q-393 0 -399 305l166 -2q8 -75 62 -112.5t173 -37.5q112 0 166.5 34.5t54.5 94.5
q0 47 -33 78t-85.5 47t-116 29.5t-127 33.5t-116 49.5t-85.5 86t-33 135.5q0 127 103 205t283 78t274 -78.5t100 -226.5l-168 2q-6 73 -60.5 111t-150.5 38q-101 0 -151.5 -34t-50.5 -95z" />
    <glyph glyph-name="Scircumflex" unicode="&#x15c;" horiz-adv-x="1228" 
d="M618 1636l-141 -145h-149l174 264h235l172 -264h-149zM305 1042q0 -60 28.5 -103.5t76 -68t110 -42.5t131 -33t137 -32.5t131 -47.5t110 -72.5t76 -112.5t28.5 -163q0 -170 -143.5 -274.5t-375.5 -104.5q-249 0 -388.5 108.5t-139.5 306.5h178q0 -121 94 -188.5
t271 -67.5q151 0 236.5 58t84.5 162q0 63 -28.5 108.5t-76 71.5t-109.5 44.5t-131 33.5t-137.5 32t-130.5 45.5t-109.5 69t-76 108.5t-28.5 158q0 173 137.5 276t364.5 103q228 0 359 -107t130 -298h-178q0 124 -84 184.5t-234 60.5q-313 0 -313 -215z" />
    <glyph glyph-name="scircumflex" unicode="&#x15d;" horiz-adv-x="966" 
d="M492 1348l-142 -189h-153l194 328h201l194 -328h-153zM285 731q0 -41 25.5 -69t67.5 -42.5t95.5 -28.5t109.5 -24.5t109.5 -33t95.5 -52t67.5 -83.5t25.5 -126q0 -127 -106 -204.5t-296 -77.5q-393 0 -399 305l166 -2q8 -75 62 -112.5t173 -37.5q112 0 166.5 34.5
t54.5 94.5q0 47 -33 78t-85.5 47t-116 29.5t-127 33.5t-116 49.5t-85.5 86t-33 135.5q0 127 103 205t283 78t274 -78.5t100 -226.5l-168 2q-6 73 -60.5 111t-150.5 38q-101 0 -151.5 -34t-50.5 -95z" />
    <glyph glyph-name="Scedilla" unicode="&#x15e;" horiz-adv-x="1228" 
d="M1133 367q0 -162 -130 -265t-344 -112l-16 -72q69 -4 116.5 -40.5t47.5 -115.5q0 -85 -61.5 -134.5t-174.5 -49.5q-67 0 -129 23l29 120q49 -18 107 -18q98 0 98 55q0 64 -166 64l37 168q-219 15 -340 122t-121 291h178q0 -121 94 -188.5t271 -67.5q151 0 236.5 58
t84.5 162q0 63 -28.5 108.5t-76 71.5t-109.5 44.5t-131 33.5t-137.5 32t-130.5 45.5t-109.5 69t-76 108.5t-28.5 158q0 173 137.5 276t364.5 103q228 0 359 -107t130 -298h-178q0 124 -84 184.5t-234 60.5q-313 0 -313 -215q0 -60 28.5 -103.5t76 -68t110 -42.5t131 -33
t137 -32.5t131 -47.5t110 -72.5t76 -112.5t28.5 -163z" />
    <glyph glyph-name="scedilla" unicode="&#x15f;" horiz-adv-x="966" 
d="M881 272q0 -119 -93.5 -195t-261.5 -85l-16 -74q69 -4 116.5 -40.5t47.5 -115.5q0 -85 -61.5 -134.5t-174.5 -49.5q-67 0 -129 23l29 120q50 -18 106 -18q48 0 73.5 15t25.5 40q0 64 -166 64l37 170q-328 23 -334 303l166 -2q8 -75 62 -112.5t173 -37.5q112 0 166.5 34.5
t54.5 94.5q0 47 -33 78t-85.5 47t-116 29.5t-127 33.5t-116 49.5t-85.5 86t-33 135.5q0 127 103 205t283 78t274 -78.5t100 -226.5l-168 2q-6 73 -60.5 111t-150.5 38q-101 0 -151.5 -34t-50.5 -95q0 -41 25.5 -69t67.5 -42.5t95.5 -28.5t109.5 -24.5t109.5 -33t95.5 -52
t67.5 -83.5t25.5 -126z" />
    <glyph glyph-name="Scaron" unicode="&#x160;" horiz-adv-x="1228" 
d="M739 1491h-235l-174 264h149l142 -145l141 145h149zM305 1042q0 -60 28.5 -103.5t76 -68t110 -42.5t131 -33t137 -32.5t131 -47.5t110 -72.5t76 -112.5t28.5 -163q0 -170 -143.5 -274.5t-375.5 -104.5q-249 0 -388.5 108.5t-139.5 306.5h178q0 -121 94 -188.5t271 -67.5
q151 0 236.5 58t84.5 162q0 63 -28.5 108.5t-76 71.5t-109.5 44.5t-131 33.5t-137.5 32t-130.5 45.5t-109.5 69t-76 108.5t-28.5 158q0 173 137.5 276t364.5 103q228 0 359 -107t130 -298h-178q0 124 -84 184.5t-234 60.5q-313 0 -313 -215z" />
    <glyph glyph-name="scaron" unicode="&#x161;" horiz-adv-x="966" 
d="M592 1159h-201l-196 328h153l141 -189l144 189h153zM285 731q0 -41 25.5 -69t67.5 -42.5t95.5 -28.5t109.5 -24.5t109.5 -33t95.5 -52t67.5 -83.5t25.5 -126q0 -127 -106 -204.5t-296 -77.5q-393 0 -399 305l166 -2q8 -75 62 -112.5t173 -37.5q112 0 166.5 34.5
t54.5 94.5q0 47 -33 78t-85.5 47t-116 29.5t-127 33.5t-116 49.5t-85.5 86t-33 135.5q0 127 103 205t283 78t274 -78.5t100 -226.5l-168 2q-6 73 -60.5 111t-150.5 38q-101 0 -151.5 -34t-50.5 -95z" />
    <glyph glyph-name="uni0162" unicode="&#x162;" horiz-adv-x="1150" 
d="M666 0h-35l-19 -82q69 -4 116.5 -40.5t47.5 -115.5q0 -85 -61 -134.5t-174 -49.5q-67 0 -129 23l28 120q50 -18 107 -18q98 0 98 55q0 64 -166 64l39 178h-33v1243h-460v162h1101v-162h-460v-1243z" />
    <glyph glyph-name="uni0163" unicode="&#x163;" horiz-adv-x="759" 
d="M498 -82q69 -4 116.5 -40.5t47.5 -115.5q0 -85 -61.5 -134.5t-174.5 -49.5q-67 0 -129 23l29 120q50 -18 106 -18q98 0 98 55q0 64 -165 64l41 194q-100 35 -154.5 117t-54.5 197v518h-152v156h162v299h170v-299h325v-152h-325v-522q0 -183 211 -183q71 0 131 25l8 -158
q-57 -24 -158 -24q-37 0 -55 2z" />
    <glyph glyph-name="Tcaron" unicode="&#x164;" horiz-adv-x="1150" 
d="M700 1491h-235l-174 264h149l142 -145l141 145h149zM485 0v1243h-460v162h1101v-162h-460v-1243h-181z" />
    <glyph glyph-name="tcaron" unicode="&#x165;" horiz-adv-x="759" 
d="M612 1286q-57 0 -92 34.5t-35 88.5q0 55 35.5 87t85.5 32q54 0 89.5 -42t35.5 -130q0 -126 -72 -200t-157 -71v93q43 0 76.5 30t33.5 78zM588 147q71 0 131 25l8 -158q-57 -24 -158 -24q-174 0 -273 91.5t-99 248.5v518h-152v156h162v299h170v-299h325v-152h-325v-522
q0 -183 211 -183z" />
    <glyph glyph-name="Tbar" unicode="&#x166;" horiz-adv-x="1175" 
d="M1139 1243h-461v-432h272v-152h-272v-659h-180v659h-273v152h273v432h-461v162h1102v-162z" />
    <glyph glyph-name="tbar" unicode="&#x167;" horiz-adv-x="761" 
d="M721 172l8 -158q-57 -24 -158 -24q-174 0 -273 91.5t-99 248.5v174h-125v131h125v213h-152v156h162v299h170v-299h326v-152h-326v-217h299v-131h-299v-174q0 -183 211 -183q71 0 131 25z" />
    <glyph glyph-name="Utilde" unicode="&#x168;" horiz-adv-x="1439" 
d="M600 1612q-37 0 -56.5 -24t-19.5 -64h-135q0 231 195 231q50 0 90 -15t61.5 -33t49.5 -33t55 -15q35 0 55 23.5t20 64.5h134q0 -111 -51.5 -171t-143.5 -60q-47 0 -86 15t-61 33t-50.5 33t-56.5 15zM1087 1405h181v-860q0 -258 -148.5 -407.5t-400.5 -149.5
q-261 0 -405 148t-144 409v860h180v-860q0 -196 96 -297t273 -101t272.5 101t95.5 297v860z" />
    <glyph glyph-name="utilde" unicode="&#x169;" horiz-adv-x="1130" 
d="M420 1294q-37 0 -56.5 -24t-19.5 -64h-135q0 232 194 232q50 0 90.5 -15t62 -33.5t50 -33.5t56.5 -15q35 0 55 24t20 65h133q0 -112 -51 -172t-143 -60q-48 0 -87.5 15t-61.5 33t-50.5 33t-56.5 15zM801 1004h180v-1004h-170l-8 147q-48 -72 -127 -114.5t-182 -42.5
q-164 0 -259.5 96.5t-95.5 261.5v656h183v-629q0 -111 58.5 -171.5t166.5 -60.5q111 0 182.5 74.5t71.5 202.5v584z" />
    <glyph glyph-name="Umacron" unicode="&#x16a;" horiz-adv-x="1439" 
d="M436 1548v135h563v-135h-563zM1087 1405h181v-860q0 -258 -148.5 -407.5t-400.5 -149.5q-261 0 -405 148t-144 409v860h180v-860q0 -196 96 -297t273 -101t272.5 101t95.5 297v860z" />
    <glyph glyph-name="umacron" unicode="&#x16b;" horiz-adv-x="1130" 
d="M842 1397v-135h-563v135h563zM801 1004h180v-1004h-170l-8 147q-48 -72 -127 -114.5t-182 -42.5q-164 0 -259.5 96.5t-95.5 261.5v656h183v-629q0 -111 58.5 -171.5t166.5 -60.5q111 0 182.5 74.5t71.5 202.5v584z" />
    <glyph glyph-name="Ubreve" unicode="&#x16c;" horiz-adv-x="1439" 
d="M983 1755q0 -114 -68.5 -189t-195.5 -75q-126 0 -194 74.5t-68 189.5h149q0 -63 29.5 -95t83.5 -32q112 0 112 127h152zM1087 1405h181v-860q0 -258 -148.5 -407.5t-400.5 -149.5q-261 0 -405 148t-144 409v860h180v-860q0 -196 96 -297t273 -101t272.5 101t95.5 297v860
z" />
    <glyph glyph-name="ubreve" unicode="&#x16d;" horiz-adv-x="1130" 
d="M559 1151q-135 0 -210 86.5t-75 237.5h150q0 -187 133 -187t133 187h152q0 -149 -74.5 -236.5t-208.5 -87.5zM801 1004h180v-1004h-170l-8 147q-48 -72 -127 -114.5t-182 -42.5q-164 0 -259.5 96.5t-95.5 261.5v656h183v-629q0 -111 58.5 -171.5t166.5 -60.5
q111 0 182.5 74.5t71.5 202.5v584z" />
    <glyph glyph-name="Uring" unicode="&#x16e;" horiz-adv-x="1439" 
d="M719 1458q-82 0 -139.5 51.5t-57.5 135.5q0 86 57 138t140 52t139.5 -52t56.5 -138q0 -84 -57 -135.5t-139 -51.5zM719 1571q35 0 56.5 21.5t21.5 52.5q0 32 -21.5 52.5t-56.5 20.5t-55.5 -20t-20.5 -53q0 -32 21 -53t55 -21zM1087 1405h181v-860q0 -258 -148.5 -407.5
t-400.5 -149.5q-261 0 -405 148t-144 409v860h180v-860q0 -196 96 -297t273 -101t272.5 101t95.5 297v860z" />
    <glyph glyph-name="uring" unicode="&#x16f;" horiz-adv-x="1130" 
d="M559 1133q-82 0 -139.5 51t-57.5 135q0 86 57 138t140 52t140 -52t57 -138q0 -84 -57.5 -135t-139.5 -51zM559 1393q-35 0 -55.5 -20.5t-20.5 -53.5q0 -32 21 -53t55 -21q35 0 56.5 21.5t21.5 52.5q0 33 -21.5 53.5t-56.5 20.5zM801 1004h180v-1004h-170l-8 147
q-48 -72 -127 -114.5t-182 -42.5q-164 0 -259.5 96.5t-95.5 261.5v656h183v-629q0 -111 58.5 -171.5t166.5 -60.5q111 0 182.5 74.5t71.5 202.5v584z" />
    <glyph glyph-name="Uhungarumlaut" unicode="&#x170;" horiz-adv-x="1439" 
d="M578 1491h-152l106 264h238zM895 1491h-152l107 264h237zM1087 1405h181v-860q0 -258 -148.5 -407.5t-400.5 -149.5q-261 0 -405 148t-144 409v860h180v-860q0 -196 96 -297t273 -101t272.5 101t95.5 297v860z" />
    <glyph glyph-name="uhungarumlaut" unicode="&#x171;" horiz-adv-x="1130" 
d="M629 1485l-187 -328h-141l86 328h242zM965 1485l-187 -328h-141l86 328h242zM801 1004h180v-1004h-170l-8 147q-48 -72 -127 -114.5t-182 -42.5q-164 0 -259.5 96.5t-95.5 261.5v656h183v-629q0 -111 58.5 -171.5t166.5 -60.5q111 0 182.5 74.5t71.5 202.5v584z" />
    <glyph glyph-name="Uogonek" unicode="&#x172;" horiz-adv-x="1439" 
d="M1087 1405h181v-860q0 -197 -89 -333.5t-247 -191.5q-14 -7 -34.5 -22t-50 -42t-49.5 -65.5t-20 -78.5q0 -43 23 -65.5t63 -22.5q66 0 111 36l51 -102q-62 -59 -176 -59q-99 0 -155 52t-56 140q0 107 86 197h-6q-261 0 -405 148t-144 409v860h180v-860q0 -196 96 -297
t273 -101t272.5 101t95.5 297v860z" />
    <glyph glyph-name="uogonek" unicode="&#x173;" horiz-adv-x="1130" 
d="M1022 -262l51 -103q-62 -59 -176 -59q-99 0 -155 52t-56 141q0 131 125 231l-8 147q-48 -72 -127 -114.5t-182 -42.5q-164 0 -259.5 96.5t-95.5 261.5v656h183v-629q0 -111 58.5 -171.5t166.5 -60.5q111 0 182.5 74.5t71.5 202.5v584h180v-1004q-6 -4 -16.5 -10.5
t-37.5 -28t-47.5 -44.5t-37.5 -58t-17 -70q0 -43 23 -65.5t63 -22.5q64 0 111 37z" />
    <glyph glyph-name="Wcircumflex" unicode="&#x174;" horiz-adv-x="1923" 
d="M963 1636l-142 -145h-149l174 264h235l172 -264h-149zM1706 1405h182l-411 -1405h-191l-323 1174l-324 -1174h-193l-411 1405h182l324 -1204l327 1204h187l327 -1204z" />
    <glyph glyph-name="wcircumflex" unicode="&#x175;" horiz-adv-x="1556" 
d="M776 1346l-141 -189h-154l195 328h201l194 -328h-153zM1315 1004h203l-308 -1004h-213l-202 705q-12 47 -15 69h-4q-4 -29 -14 -69l-203 -705h-213l-307 1004h203l186 -713q7 -25 18 -63t13 -44h4q2 6 13 44t18 63l192 713h184l193 -713q7 -25 18 -63t13 -44h4
q1 6 11.5 41.5t18.5 65.5z" />
    <glyph glyph-name="Ycircumflex" unicode="&#x176;" horiz-adv-x="1234" 
d="M616 1636l-141 -145h-149l174 264h235l172 -264h-149zM1210 1405l-503 -838v-567h-181v569l-501 836h198l395 -670l394 670h198z" />
    <glyph glyph-name="ycircumflex" unicode="&#x177;" horiz-adv-x="1032" 
d="M514 1346l-141 -189h-154l195 328h200l195 -328h-154zM817 1004h184l-380 -1004l-43 -113q-65 -172 -145 -239.5t-210 -67.5q-90 0 -149 25l14 159q50 -20 96 -20q80 0 132 32t92 128l24 57l-395 1043h203l254 -713q17 -44 32 -107h4q9 44 29 107z" />
    <glyph glyph-name="Ydieresis" unicode="&#x178;" horiz-adv-x="1234" 
d="M430 1520q-51 0 -82 30t-31 78q0 50 31 80.5t82 30.5t82 -30.5t31 -80.5q0 -48 -31 -78t-82 -30zM807 1520q-51 0 -82 30t-31 78q0 50 31 80.5t82 30.5t82 -30.5t31 -80.5q0 -48 -31 -78t-82 -30zM1210 1405l-503 -838v-567h-181v569l-501 836h198l395 -670l394 670h198z
" />
    <glyph glyph-name="Zacute" unicode="&#x179;" horiz-adv-x="1196" 
d="M868 1755l-186 -264h-170l86 264h270zM291 160h825v-160h-1042v145l821 1098h-801v162h1020l-2 -145z" />
    <glyph glyph-name="zacute" unicode="&#x17a;" horiz-adv-x="942" 
d="M731 1485l-186 -328h-148l107 328h227zM299 152h567v-152h-788v147l553 705h-539v152h758v-146z" />
    <glyph glyph-name="Zdotaccent" unicode="&#x17b;" horiz-adv-x="1196" 
d="M578 1497q-57 0 -92 34t-35 89q0 56 35 90.5t92 34.5t92 -34.5t35 -90.5q0 -55 -35 -89t-92 -34zM291 160h825v-160h-1042v145l821 1098h-801v162h1020l-2 -145z" />
    <glyph glyph-name="zdotaccent" unicode="&#x17c;" horiz-adv-x="942" 
d="M489 1210q-57 0 -92 34t-35 89q0 56 35 90.5t92 34.5t92 -34.5t35 -90.5q0 -55 -35 -89t-92 -34zM299 152h567v-152h-788v147l553 705h-539v152h758v-146z" />
    <glyph glyph-name="Zcaron" unicode="&#x17d;" horiz-adv-x="1196" 
d="M700 1491h-235l-174 264h149l142 -145l141 145h149zM291 160h825v-160h-1042v145l821 1098h-801v162h1020l-2 -145z" />
    <glyph glyph-name="zcaron" unicode="&#x17e;" horiz-adv-x="942" 
d="M592 1157h-201l-196 328h153l141 -189l144 189h153zM299 152h567v-152h-788v147l553 705h-539v152h758v-146z" />
    <glyph glyph-name="uni018F" unicode="&#x18f;" horiz-adv-x="1445" 
d="M721 1417q196 0 337.5 -90t213 -249t71.5 -369q0 -162 -48 -298t-131.5 -227.5t-197.5 -142.5t-245 -51q-311 0 -471 190t-160 543v10h1071q-3 134 -40.5 237.5t-99.5 164.5t-138.5 91.5t-163.5 30.5q-119 0 -207.5 -41t-136 -103.5t-68.5 -143.5h-182q38 199 195 323.5
t401 124.5zM721 147q158 0 278 111t152 315h-872q28 -216 138 -321t304 -105z" />
    <glyph glyph-name="uni019D" unicode="&#x19d;" horiz-adv-x="1472" 
d="M1106 1405h180v-1405h-184l-735 1124v-1183q0 -167 -90 -264t-240 -97q-91 0 -150 25l15 159q50 -20 96 -20q87 0 137.5 49.5t50.5 132.5v1479h185l735 -1122v1122z" />
    <glyph glyph-name="Gcaron" unicode="&#x1e6;" horiz-adv-x="1470" 
d="M874 1491h-235l-174 264h149l142 -145l141 145h150zM756 731h592v-731h-140v244q-67 -119 -184.5 -187.5t-288.5 -68.5q-141 0 -258.5 49.5t-200.5 141.5t-129.5 228.5t-46.5 303.5q0 315 182 510.5t476 195.5q132 0 239 -36t178 -101t113 -150t53 -186h-184
q-10 65 -36.5 119t-72.5 98.5t-119.5 70t-168.5 25.5q-215 0 -346 -150t-131 -396q0 -263 126 -413.5t328 -150.5q103 0 189 34t142 90.5t89.5 125t40.5 140.5v41h-442v153z" />
    <glyph glyph-name="gcaron" unicode="&#x1e7;" horiz-adv-x="1208" 
d="M707 1157h-201l-197 328h154l141 -189l144 189h153zM889 1004h170v-1024q0 -181 -128 -295.5t-356 -114.5q-204 0 -318.5 81.5t-133.5 239.5h180q17 -89 81.5 -128t188.5 -39q151 0 228.5 72.5t77.5 183.5v174q-101 -164 -326 -164q-208 0 -336.5 141.5t-128.5 372.5
q0 228 129 369t336 141q227 0 328 -168zM565 143q77 0 139 31t99 81.5t56.5 108.5t19.5 117v41q0 59 -19.5 117t-56.5 108.5t-99 81.5t-139 31q-132 0 -212.5 -98t-80.5 -258q0 -163 80.5 -262t212.5 -99z" />
    <glyph glyph-name="uni01EA" unicode="&#x1ea;" horiz-adv-x="1556" 
d="M952 8q-52 -34 -75 -56q-79 -76 -80 -155q0 -43 23 -65.5t63 -22.5q63 0 110 37l51 -102q-63 -60 -176 -60q-99 0 -155 52t-56 141q0 118 101 211q-139 3 -259.5 53.5t-209.5 139.5t-140 222t-51 293q0 163 52.5 299.5t144.5 228t216.5 142.5t266.5 51q143 0 267 -49
t216 -138t144.5 -223.5t52.5 -297.5q0 -274 -139.5 -459.5t-366.5 -241.5zM281 702q0 -127 39 -233t106.5 -175.5t158 -108t193.5 -38.5t193.5 38.5t158 108t107 175.5t39.5 233q0 252 -143 403.5t-355 151.5q-103 0 -193.5 -38.5t-158 -108.5t-106.5 -175.5t-39 -232.5z
" />
    <glyph glyph-name="uni01EB" unicode="&#x1eb;" horiz-adv-x="1169" 
d="M762 16q-20 -13 -39.5 -29t-45 -42t-41 -60t-15.5 -69q0 -43 23 -65.5t63 -22.5q65 0 110 36l51 -102q-62 -59 -176 -59q-99 0 -155 52t-56 140q0 104 84 195q-216 6 -346.5 143t-130.5 359q0 230 137.5 376t358.5 146q225 0 361 -140.5t136 -369.5q0 -178 -85 -307.5
t-234 -180.5zM272 498q0 -158 86.5 -256.5t225.5 -98.5q142 0 227.5 98t85.5 257q0 161 -86 261.5t-227 100.5q-139 0 -225.5 -101t-86.5 -261z" />
    <glyph glyph-name="Aringacute" unicode="&#x1fa;" horiz-adv-x="1296" 
d="M1087 0l-129 356h-620l-129 -356h-182l501 1360q-75 55 -75 149q0 87 57 139t139 52q91 0 150 -62l59 117h191l-203 -262q-9 -85 -78 -135l502 -1358h-183zM649 1583q-35 0 -55.5 -20.5t-20.5 -53.5q0 -31 20.5 -52t55.5 -21t56.5 21t21.5 52q0 33 -21.5 53.5t-56.5 20.5
zM397 516h502l-250 688z" />
    <glyph glyph-name="aringacute" unicode="&#x1fb;" horiz-adv-x="1118" 
d="M551 1133q-82 0 -139.5 51t-57.5 135q0 86 57 138t140 52q80 0 133 -47l53 148h191l-183 -326q-12 -69 -66 -110t-128 -41zM551 1393q-35 0 -55.5 -20.5t-20.5 -53.5q0 -32 21 -53t55 -21q35 0 56.5 21.5t21.5 52.5q0 33 -21.5 53.5t-56.5 20.5zM1061 164l14 -158
q-56 -16 -114 -16q-77 0 -127.5 45t-59.5 119q-106 -164 -352 -164q-165 0 -252.5 74t-87.5 198q0 105 63 175.5t167.5 101t248.5 30.5h211v66q0 106 -64 165.5t-184 59.5q-108 0 -171 -48.5t-72 -139.5h-177q12 161 129 251.5t304 90.5q198 0 306.5 -100.5t108.5 -282.5
v-410q0 -31 16 -49t42 -18t51 10zM459 135q72 0 134 23.5t99.5 59.5t58.5 75.5t21 75.5v69h-221q-285 0 -285 -168q0 -135 193 -135z" />
    <glyph glyph-name="AEacute" unicode="&#x1fc;" horiz-adv-x="2037" 
d="M1298 1755l-186 -264h-170l86 264h270zM1169 160h766v-160h-946v356h-579l-234 -356h-194l899 1405h1042v-162h-754v-432h689v-162h-689v-489zM514 516h475v719h-2z" />
    <glyph glyph-name="aeacute" unicode="&#x1fd;" horiz-adv-x="1767" 
d="M1135 1485l-187 -328h-147l106 328h228zM1679 500v-45h-733q12 -141 92 -226.5t203 -85.5q113 0 174.5 51t77.5 123h182q-29 -148 -138.5 -237.5t-295.5 -89.5q-130 0 -231 54t-164 151q-147 -205 -426 -205q-162 0 -251 74.5t-89 197.5q0 307 567 307h117v66
q0 105 -63.5 165t-180.5 60q-96 0 -158 -49t-75 -139h-181q17 159 128.5 250.5t289.5 91.5q122 0 214.5 -41.5t144.5 -116.5q64 75 154.5 116.5t195.5 41.5q205 0 325.5 -136.5t120.5 -377.5zM1235 860q-109 0 -186 -73t-99 -199h547q-17 133 -85 202.5t-177 69.5zM457 141
q71 0 133 22t101.5 56t62 72.5t24.5 73.5q-1 4 -12 73h-119q-383 0 -383 -168q0 -61 48.5 -95t144.5 -34z" />
    <glyph glyph-name="Oslashacute" unicode="&#x1fe;" horiz-adv-x="1556" 
d="M1004 1731l-187 -265h-170l86 265h271zM1225 1264q111 -95 172 -236t61 -319q0 -163 -52.5 -299.5t-144.5 -228t-216.5 -142.5t-266.5 -51q-169 0 -305 65l-92 -147h-188l145 231q-113 93 -176.5 236t-63.5 323q0 163 52.5 299.5t144.5 228t216.5 142.5t266.5 51
q171 0 314 -67l73 116h187zM281 702q0 -259 151 -413l572 915q-103 53 -226 53q-103 0 -193.5 -38.5t-158 -108.5t-106.5 -175.5t-39 -232.5zM778 147q103 0 193.5 38.5t158 108t107 175.5t39.5 233q0 252 -146 408l-569 -913q100 -50 217 -50z" />
    <glyph glyph-name="oslashacute" unicode="&#x1ff;" horiz-adv-x="1169" 
d="M817 1485l-186 -328h-148l107 328h227zM905 911q84 -68 130 -172.5t46 -234.5q0 -229 -136.5 -371.5t-360.5 -142.5q-119 0 -215 41l-54 -88h-143l92 149q-84 67 -130 169.5t-46 230.5q0 230 137.5 376t358.5 146q121 0 219 -43l51 86h139zM272 498q0 -157 84 -254
l361 587q-63 29 -133 29q-139 0 -225.5 -101t-86.5 -261zM584 143q142 0 227.5 98t85.5 257q0 161 -86 260l-356 -588q62 -27 129 -27z" />
    <glyph glyph-name="Scommaaccent" unicode="&#x218;" horiz-adv-x="1228" 
d="M305 1042q0 -60 28.5 -103.5t76 -68t110 -42.5t131 -33t137 -32.5t131 -47.5t110 -72.5t76 -112.5t28.5 -163q0 -170 -143.5 -274.5t-375.5 -104.5q-249 0 -388.5 108.5t-139.5 306.5h178q0 -121 94 -188.5t271 -67.5q151 0 236.5 58t84.5 162q0 63 -28.5 108.5t-76 71.5
t-109.5 44.5t-131 33.5t-137.5 32t-130.5 45.5t-109.5 69t-76 108.5t-28.5 158q0 173 137.5 276t364.5 103q228 0 359 -107t130 -298h-178q0 124 -84 184.5t-234 60.5q-313 0 -313 -215zM631 -84q125 0 125 -168q0 -141 -73 -227.5t-157 -81.5v92q42 0 75.5 40t33.5 103
q-55 0 -90 34.5t-35 88.5q0 55 35.5 87t85.5 32z" />
    <glyph glyph-name="scommaaccent" unicode="&#x219;" horiz-adv-x="966" 
d="M285 731q0 -41 25.5 -69t67.5 -42.5t95.5 -28.5t109.5 -24.5t109.5 -33t95.5 -52t67.5 -83.5t25.5 -126q0 -127 -106 -204.5t-296 -77.5q-393 0 -399 305l166 -2q8 -75 62 -112.5t173 -37.5q112 0 166.5 34.5t54.5 94.5q0 47 -33 78t-85.5 47t-116 29.5t-127 33.5
t-116 49.5t-85.5 86t-33 135.5q0 127 103 205t283 78t274 -78.5t100 -226.5l-168 2q-6 73 -60.5 111t-150.5 38q-101 0 -151.5 -34t-50.5 -95zM498 -84q125 0 125 -168q0 -141 -73 -227.5t-157 -81.5v92q42 0 75.5 40t33.5 103q-55 0 -90 34.5t-35 88.5q0 55 35.5 87
t85.5 32z" />
    <glyph glyph-name="uni021A" unicode="&#x21a;" horiz-adv-x="1150" 
d="M485 0v1243h-460v162h1101v-162h-460v-1243h-181zM469 -469q42 0 75.5 40t33.5 103q-55 0 -90 34.5t-35 88.5q0 55 35 87t85 32q125 0 125 -168q0 -142 -72.5 -228t-156.5 -81v92z" />
    <glyph glyph-name="uni021B" unicode="&#x21b;" horiz-adv-x="759" 
d="M727 14q-57 -24 -158 -24q-174 0 -273 91.5t-99 248.5v518h-152v156h162v299h170v-299h325v-152h-325v-522q0 -183 211 -183q71 0 131 25zM485 -84q125 0 125 -168q0 -142 -72.5 -228t-156.5 -81v92q42 0 75 40t33 103q-55 0 -89.5 34.5t-34.5 88.5q0 55 35 87t85 32z
" />
    <glyph glyph-name="uni0232" unicode="&#x232;" horiz-adv-x="1234" 
d="M899 1683v-135h-563v135h563zM1210 1405l-503 -838v-567h-181v569l-501 836h198l395 -670l394 670h198z" />
    <glyph glyph-name="uni0233" unicode="&#x233;" horiz-adv-x="1032" 
d="M797 1397v-135h-564v135h564zM817 1004h184l-380 -1004l-43 -113q-65 -172 -145 -239.5t-210 -67.5q-90 0 -149 25l14 159q50 -20 96 -20q80 0 132 32t92 128l24 57l-395 1043h203l254 -713q17 -44 32 -107h4q9 44 29 107z" />
    <glyph glyph-name="uni0237" unicode="&#x237;" horiz-adv-x="495" 
d="M12 -420q-90 0 -149 25l14 159q50 -20 96 -20q91 0 142 53.5t51 149.5v1057h180v-1063q0 -167 -91.5 -264t-242.5 -97z" />
    <glyph glyph-name="uni0259" unicode="&#x259;" horiz-adv-x="1112" 
d="M549 1014q152 0 261 -67t161.5 -180.5t52.5 -262.5q0 -227 -133 -370.5t-346 -143.5q-214 0 -335.5 130t-121.5 380v45h750q-9 146 -84 229.5t-203 83.5q-63 0 -110.5 -14.5t-78 -42t-48 -53.5t-33.5 -62h-183q29 141 148.5 234.5t302.5 93.5zM551 143q113 0 187 71.5
t96 197.5h-562q17 -133 89 -201t190 -68z" />
    <glyph glyph-name="uni0272" unicode="&#x272;" horiz-adv-x="1150" 
d="M649 1014q168 0 265.5 -99.5t97.5 -281.5v-633h-183v596q0 128 -58.5 196t-170.5 68q-122 0 -196 -74.5t-74 -201.5v-643q0 -165 -88.5 -263t-225.5 -98q-90 0 -149 25l14 159q50 -20 96 -20q77 0 125 54t48 149v1057h169l9 -150q110 160 321 160z" />
    <glyph glyph-name="circumflex" unicode="&#x2c6;" horiz-adv-x="710" 
d="M57 1157l195 328h201l194 -328h-153l-142 189l-141 -189h-154z" />
    <glyph glyph-name="caron" unicode="&#x2c7;" horiz-adv-x="681" 
d="M37 1485h153l142 -189l143 189h154l-195 -328h-201z" />
    <glyph glyph-name="breve" unicode="&#x2d8;" horiz-adv-x="657" 
d="M612 1475q0 -150 -74.5 -237t-207.5 -87q-135 0 -210 86.5t-75 237.5h150q0 -187 133 -187t133 187h151z" />
    <glyph glyph-name="dotaccent" unicode="&#x2d9;" horiz-adv-x="413" 
d="M188 1458q57 0 92 -34.5t35 -90.5q0 -55 -35 -89t-92 -34t-92 34t-35 89q0 56 35 90.5t92 34.5z" />
    <glyph glyph-name="ring" unicode="&#x2da;" horiz-adv-x="530" 
d="M258 1133q-82 0 -139.5 51t-57.5 135q0 86 57 138t140 52t140 -52t57 -138q0 -84 -57.5 -135t-139.5 -51zM258 1245q35 0 56.5 21.5t21.5 52.5q0 33 -21.5 53.5t-56.5 20.5t-55.5 -20.5t-20.5 -53.5q0 -32 21 -53t55 -21z" />
    <glyph glyph-name="ogonek" unicode="&#x2db;" horiz-adv-x="530" 
d="M449 -362q-63 -60 -177 -60q-99 0 -155 52t-56 141q0 58 25.5 110.5t61.5 86.5t72 59.5t62 36.5l25 12l49 -74q-6 -4 -16.5 -10.5t-37.5 -28t-47 -44.5t-37 -58t-17 -70q0 -43 23 -65.5t63 -22.5q63 0 110 37z" />
    <glyph glyph-name="tilde" unicode="&#x2dc;" horiz-adv-x="817" 
d="M283 1294q-37 0 -56.5 -24t-19.5 -64h-135q0 232 194 232q50 0 90 -15t62 -33.5t50 -33.5t56 -15q35 0 55.5 24t20.5 65h133q0 -112 -51 -172t-143 -60q-48 0 -87.5 15t-61.5 33t-50.5 33t-56.5 15z" />
    <glyph glyph-name="hungarumlaut" unicode="&#x2dd;" horiz-adv-x="825" 
d="M219 1157h-141l86 328h242zM555 1157h-141l86 328h241z" />
    <glyph glyph-name="gravecomb" unicode="&#x300;" 
d="M-223 1157l-187 328h228l106 -328h-147z" />
    <glyph glyph-name="acutecomb" unicode="&#x301;" 
d="M-307 1157h-148l107 328h227z" />
    <glyph glyph-name="uni0302" unicode="&#x302;" 
d="M-651 1157l194 328h201l195 -328h-154l-141 189l-142 -189h-153z" />
    <glyph glyph-name="tildecomb" unicode="&#x303;" 
d="M-535 1294q-37 0 -56 -24t-19 -64h-135q0 232 194 232q50 0 90 -15t62 -33.5t50 -33.5t56 -15q35 0 55.5 24t20.5 65h133q0 -111 -51.5 -171.5t-143.5 -60.5q-48 0 -87.5 15t-61.5 33t-50.5 33t-56.5 15z" />
    <glyph glyph-name="uni0304" unicode="&#x304;" 
d="M-670 1262v135h564v-135h-564z" />
    <glyph glyph-name="uni0306" unicode="&#x306;" 
d="M-45 1475q0 -149 -74.5 -236.5t-208.5 -87.5q-135 0 -209.5 86.5t-74.5 237.5h149q0 -187 133 -187t133 187h152z" />
    <glyph glyph-name="uni0307" unicode="&#x307;" 
d="M-188 1458q57 0 92 -34.5t35 -90.5q0 -55 -35 -89t-92 -34t-92 34t-35 89q0 56 35 90.5t92 34.5z" />
    <glyph glyph-name="uni0308" unicode="&#x308;" 
d="M-551 1442q51 0 82 -30.5t31 -80.5q0 -48 -31 -78t-82 -30t-82 30t-31 78q0 50 31 80.5t82 30.5zM-174 1442q51 0 82 -30.5t31 -80.5q0 -48 -31 -78t-82 -30t-82 30t-31 78q0 50 31 80.5t82 30.5z" />
    <glyph glyph-name="uni030A" unicode="&#x30a;" 
d="M-258 1133q-82 0 -139.5 51t-57.5 135q0 86 57 138t140 52t140 -52t57 -138q0 -84 -57.5 -135t-139.5 -51zM-258 1245q35 0 56.5 21.5t21.5 52.5q0 33 -21.5 53.5t-56.5 20.5t-55.5 -20.5t-20.5 -53.5q0 -32 21 -53t55 -21z" />
    <glyph glyph-name="uni030B" unicode="&#x30b;" 
d="M-643 1157h-141l86 328h241zM-307 1157h-142l87 328h241z" />
    <glyph glyph-name="uni030C" unicode="&#x30c;" 
d="M-629 1485h154l141 -189l144 189h153l-194 -328h-201z" />
    <glyph glyph-name="dotbelowcomb" unicode="&#x323;" 
d="M-188 -131q57 0 92 -34t35 -89t-35 -89t-92 -34t-92 34t-35 89t35 89t92 34z" />
    <glyph glyph-name="uni0326" unicode="&#x326;" 
d="M-307 -469q42 0 75 40t33 103q-55 0 -90 34.5t-35 88.5q0 55 35.5 87t85.5 32q125 0 125 -168q0 -142 -72.5 -228t-156.5 -81v92z" />
    <glyph glyph-name="uni0327" unicode="&#x327;" 
d="M-408 -279q50 -18 107 -18q98 0 98 55q0 64 -166 64l45 209h113l-25 -113q69 -4 116.5 -40.5t47.5 -115.5q0 -85 -61 -134.5t-174 -49.5q-67 0 -129 23z" />
    <glyph glyph-name="uni0328" unicode="&#x328;" 
d="M-82 -362q-63 -60 -176 -60q-99 0 -155 52t-56 141q0 58 25.5 110.5t61.5 86.5t72 59.5t62 36.5l25 12l49 -74q-6 -4 -16.5 -10.5t-37.5 -28t-47.5 -44.5t-37.5 -58t-17 -70q0 -43 23 -65.5t63 -22.5q64 0 111 37z" />
    <glyph glyph-name="uni0335" unicode="&#x335;" 
d="M-645 469h604v-131h-604v131z" />
    <glyph glyph-name="uni0336" unicode="&#x336;" 
d="M-766 489h725v-151h-725v151z" />
    <glyph glyph-name="uni0337" unicode="&#x337;" 
d="M-633 725l524 317l68 -118l-526 -318z" />
    <glyph glyph-name="uni0338" unicode="&#x338;" 
d="M-399 1071h139l-678 -1114h-143z" />
    <glyph glyph-name="Wgrave" unicode="&#x1e80;" horiz-adv-x="1923" 
d="M1036 1491h-170l-182 264h262zM1706 1405h182l-411 -1405h-191l-323 1174l-324 -1174h-193l-411 1405h182l324 -1204l327 1204h187l327 -1204z" />
    <glyph glyph-name="wgrave" unicode="&#x1e81;" horiz-adv-x="1556" 
d="M868 1157h-147l-186 328h227zM1315 1004h203l-308 -1004h-213l-202 705q-12 47 -15 69h-4q-4 -29 -14 -69l-203 -705h-213l-307 1004h203l186 -713q7 -25 18 -63t13 -44h4q2 6 13 44t18 63l192 713h184l193 -713q7 -25 18 -63t13 -44h4q1 6 11.5 41.5t18.5 65.5z" />
    <glyph glyph-name="Wacute" unicode="&#x1e82;" horiz-adv-x="1923" 
d="M1251 1755l-186 -264h-170l86 264h270zM1706 1405h182l-411 -1405h-191l-323 1174l-324 -1174h-193l-411 1405h182l324 -1204l327 1204h187l327 -1204z" />
    <glyph glyph-name="wacute" unicode="&#x1e83;" horiz-adv-x="1556" 
d="M1018 1485l-187 -328h-147l107 328h227zM1315 1004h203l-308 -1004h-213l-202 705q-12 47 -15 69h-4q-4 -29 -14 -69l-203 -705h-213l-307 1004h203l186 -713q7 -25 18 -63t13 -44h4q2 6 13 44t18 63l192 713h184l193 -713q7 -25 18 -63t13 -44h4q1 6 11.5 41.5
t18.5 65.5z" />
    <glyph glyph-name="Wdieresis" unicode="&#x1e84;" horiz-adv-x="1923" 
d="M774 1520q-51 0 -81.5 30t-30.5 78q0 50 30.5 80.5t81.5 30.5t82 -30.5t31 -80.5q0 -48 -31 -78t-82 -30zM1151 1520q-51 0 -82 30t-31 78q0 50 31 80.5t82 30.5t82 -30.5t31 -80.5q0 -48 -31 -78t-82 -30zM1706 1405h182l-411 -1405h-191l-323 1174l-324 -1174h-193
l-411 1405h182l324 -1204l327 1204h187l327 -1204z" />
    <glyph glyph-name="wdieresis" unicode="&#x1e85;" horiz-adv-x="1556" 
d="M598 1223q-51 0 -82 30t-31 78q0 50 31 80.5t82 30.5t82 -30.5t31 -80.5q0 -48 -31 -78t-82 -30zM975 1223q-51 0 -82 30t-31 78q0 50 31 80.5t82 30.5t81.5 -30.5t30.5 -80.5q0 -48 -30.5 -78t-81.5 -30zM1315 1004h203l-308 -1004h-213l-202 705q-12 47 -15 69h-4
q-4 -29 -14 -69l-203 -705h-213l-307 1004h203l186 -713q7 -25 18 -63t13 -44h4q2 6 13 44t18 63l192 713h184l193 -713q7 -25 18 -63t13 -44h4q1 6 11.5 41.5t18.5 65.5z" />
    <glyph glyph-name="uni1E9E" unicode="&#x1e9e;" horiz-adv-x="1355" 
d="M881 793q181 -23 278.5 -129t97.5 -267q0 -182 -123 -289.5t-348 -107.5h-147v154h147q137 0 212 65.5t75 177.5q0 114 -75.5 186t-211.5 72h-100v144l285 452h-418q-93 0 -145 -48.5t-52 -131.5v-1071h-180v1065q0 145 95.5 242.5t254.5 97.5h674v-113z" />
    <glyph glyph-name="uni1EA0" unicode="&#x1ea0;" horiz-adv-x="1296" 
d="M1270 0h-183l-129 356h-620l-129 -356h-182l518 1405h207zM397 516h502l-250 688zM651 -131q57 0 92 -34t35 -89t-35 -89t-92 -34t-92 34t-35 89t35 89t92 34z" />
    <glyph glyph-name="uni1EA1" unicode="&#x1ea1;" horiz-adv-x="1118" 
d="M1061 164l14 -158q-56 -16 -114 -16q-77 0 -127.5 45t-59.5 119q-106 -164 -352 -164q-165 0 -252.5 74t-87.5 198q0 105 63 175.5t167.5 101t248.5 30.5h211v66q0 106 -64 165.5t-184 59.5q-108 0 -171 -48.5t-72 -139.5h-177q12 161 129 251.5t304 90.5
q198 0 306.5 -100.5t108.5 -282.5v-410q0 -31 16 -49t42 -18t51 10zM459 135q72 0 134 23.5t99.5 59.5t58.5 75.5t21 75.5v69h-221q-285 0 -285 -168q0 -135 193 -135zM524 -131q57 0 92 -34t35 -89t-35 -89t-92 -34t-92 34t-35 89t35 89t92 34z" />
    <glyph glyph-name="uni1EB8" unicode="&#x1eb8;" horiz-adv-x="1232" 
d="M367 160h763v-160h-944v1405h934v-162h-753v-432h688v-162h-688v-489zM672 -131q57 0 92 -34t35 -89t-35 -89t-92 -34t-92 34t-35 89t35 89t92 34z" />
    <glyph glyph-name="uni1EB9" unicode="&#x1eb9;" horiz-adv-x="1112" 
d="M1024 500v-45h-750q11 -144 89.5 -228t209.5 -84q63 0 112 15t79 41.5t47.5 55.5t24.5 62h182q-31 -146 -143.5 -236.5t-303.5 -90.5q-229 0 -356 141t-127 369q0 226 134 370t345 144q212 0 334.5 -136t122.5 -378zM569 860q-115 0 -191.5 -72.5t-98.5 -199.5h563
q-17 134 -87.5 203t-185.5 69zM578 -131q57 0 92 -34t35 -89t-35 -89t-92 -34t-92 34t-35 89t35 89t92 34z" />
    <glyph glyph-name="uni1EBC" unicode="&#x1ebc;" horiz-adv-x="1232" 
d="M537 1612q-37 0 -56.5 -24t-19.5 -64h-135q0 231 194 231q50 0 90 -15t61.5 -33t49.5 -33t55 -15q35 0 55.5 23.5t20.5 64.5h133q0 -111 -51 -171t-143 -60q-47 0 -86 15t-61 33t-50.5 33t-56.5 15zM367 160h763v-160h-944v1405h934v-162h-753v-432h688v-162h-688v-489z
" />
    <glyph glyph-name="uni1EBD" unicode="&#x1ebd;" horiz-adv-x="1112" 
d="M428 1294q-37 0 -56.5 -24t-19.5 -64h-135q0 232 195 232q50 0 90 -15t62 -33.5t50 -33.5t56 -15q35 0 55 24t20 65h134q0 -111 -51.5 -171.5t-143.5 -60.5q-48 0 -87.5 15t-61.5 33t-50.5 33t-56.5 15zM1024 500v-45h-750q11 -144 89.5 -228t209.5 -84q63 0 112 15
t79 41.5t47.5 55.5t24.5 62h182q-31 -146 -143.5 -236.5t-303.5 -90.5q-229 0 -356 141t-127 369q0 226 134 370t345 144q212 0 334.5 -136t122.5 -378zM569 860q-115 0 -191.5 -72.5t-98.5 -199.5h563q-17 134 -87.5 203t-185.5 69z" />
    <glyph glyph-name="uni1ECA" unicode="&#x1eca;" horiz-adv-x="552" 
d="M186 0v1405h181v-1405h-181zM276 -131q57 0 92 -34t35 -89t-35 -89t-92 -34t-91.5 33.5t-34.5 89.5t34.5 89.5t91.5 33.5z" />
    <glyph glyph-name="uni1ECB" unicode="&#x1ecb;" horiz-adv-x="481" 
d="M242 1458q57 0 92 -34.5t35 -90.5q0 -55 -35 -89t-92 -34t-92 34t-35 89q0 56 35 90.5t92 34.5zM150 0v1004h182v-1004h-182zM242 -131q57 0 92 -34t35 -89t-35 -89t-92 -34t-92 34t-35 89t35 89t92 34z" />
    <glyph glyph-name="uni1ECC" unicode="&#x1ecc;" horiz-adv-x="1556" 
d="M778 -12q-143 0 -267 49t-216 138t-144.5 223.5t-52.5 297.5t52.5 299.5t144.5 228t216.5 142.5t266.5 51q143 0 267 -49t216 -138t144.5 -223.5t52.5 -297.5t-52.5 -299.5t-144.5 -228t-216.5 -142.5t-266.5 -51zM778 147q103 0 193.5 38.5t158 108t107 175.5t39.5 233
q0 252 -143 403.5t-355 151.5q-103 0 -193.5 -38.5t-158 -108.5t-106.5 -175.5t-39 -232.5t39 -233t106.5 -175.5t158 -108t193.5 -38.5zM778 -131q57 0 92 -34t35 -89t-35 -89t-92 -34t-92 34t-35 89t35 89t92 34z" />
    <glyph glyph-name="uni1ECD" unicode="&#x1ecd;" horiz-adv-x="1169" 
d="M584 1014q225 0 361 -140.5t136 -369.5t-136.5 -371.5t-360.5 -142.5q-223 0 -359.5 137.5t-136.5 364.5q0 230 137.5 376t358.5 146zM584 860q-139 0 -225.5 -101t-86.5 -261q0 -158 86.5 -256.5t225.5 -98.5q142 0 227.5 98t85.5 257q0 161 -86 261.5t-227 100.5z
M584 -131q57 0 92 -34t35 -89t-35 -89t-92 -34t-92 34t-35 89t35 89t92 34z" />
    <glyph glyph-name="uni1EE4" unicode="&#x1ee4;" horiz-adv-x="1439" 
d="M1087 1405h181v-860q0 -258 -148.5 -407.5t-400.5 -149.5q-261 0 -405 148t-144 409v860h180v-860q0 -196 96 -297t273 -101t272.5 101t95.5 297v860zM719 -131q57 0 92 -34t35 -89t-35 -89t-92 -34t-92 34t-35 89t35 89t92 34z" />
    <glyph glyph-name="uni1EE5" unicode="&#x1ee5;" horiz-adv-x="1130" 
d="M801 1004h180v-1004h-170l-8 147q-48 -72 -127 -114.5t-182 -42.5q-164 0 -259.5 96.5t-95.5 261.5v656h183v-629q0 -111 58.5 -171.5t166.5 -60.5q111 0 182.5 74.5t71.5 202.5v584zM569 -131q57 0 92 -34t35 -89t-35 -89t-92 -34t-92 34t-35 89t35 89t92 34z" />
    <glyph glyph-name="Ygrave" unicode="&#x1ef2;" horiz-adv-x="1234" 
d="M690 1491h-170l-182 264h262zM1210 1405l-503 -838v-567h-181v569l-501 836h198l395 -670l394 670h198z" />
    <glyph glyph-name="ygrave" unicode="&#x1ef3;" horiz-adv-x="1032" 
d="M606 1157h-147l-187 328h228zM817 1004h184l-380 -1004l-43 -113q-65 -172 -145 -239.5t-210 -67.5q-90 0 -149 25l14 159q50 -20 96 -20q80 0 132 32t92 128l24 57l-395 1043h203l254 -713q17 -44 32 -107h4q9 44 29 107z" />
    <glyph glyph-name="uni1EF8" unicode="&#x1ef8;" horiz-adv-x="1234" 
d="M498 1612q-37 0 -56.5 -24t-19.5 -64h-135q0 231 194 231q50 0 90 -15t61.5 -33t49.5 -33t55 -15q35 0 55.5 23.5t20.5 64.5h133q0 -111 -51 -171t-143 -60q-47 0 -86 15t-61 33t-50.5 33t-56.5 15zM1210 1405l-503 -838v-567h-181v569l-501 836h198l395 -670l394 670
h198z" />
    <glyph glyph-name="uni1EF9" unicode="&#x1ef9;" horiz-adv-x="1032" 
d="M375 1294q-37 0 -56.5 -24t-19.5 -64h-135q0 232 194 232q50 0 90 -15t62 -33.5t50 -33.5t56 -15q35 0 55.5 24t20.5 65h133q0 -112 -51 -172t-143 -60q-48 0 -87.5 15t-61.5 33t-50.5 33t-56.5 15zM817 1004h184l-380 -1004l-43 -113q-65 -172 -145 -239.5t-210 -67.5
q-90 0 -149 25l14 159q50 -20 96 -20q80 0 132 32t92 128l24 57l-395 1043h203l254 -713q17 -44 32 -107h4q9 44 29 107z" />
    <glyph glyph-name="endash" unicode="&#x2013;" horiz-adv-x="1103" 
d="M131 514v135h842v-135h-842z" />
    <glyph glyph-name="emdash" unicode="&#x2014;" horiz-adv-x="1656" 
d="M131 514v135h1395v-135h-1395z" />
    <glyph glyph-name="quoteleft" unicode="&#x2018;" horiz-adv-x="456" 
d="M356 1423q-56 0 -103.5 -50t-47.5 -111q1 0 9.5 1t16.5 1q57 0 91 -35t34 -90q0 -58 -36.5 -92.5t-92.5 -34.5q-59 0 -99 43t-40 137q0 142 86 240.5t182 93.5v-103z" />
    <glyph glyph-name="quoteright" unicode="&#x2019;" horiz-adv-x="460" 
d="M113 1114q56 0 103.5 50.5t47.5 111.5q-1 0 -9.5 -1t-16.5 -1q-57 0 -91 35t-34 90q0 58 36.5 92.5t92.5 34.5q59 0 99 -43t40 -137q0 -142 -86 -240.5t-182 -93.5v102z" />
    <glyph glyph-name="quotesinglbase" unicode="&#x201a;" horiz-adv-x="475" 
d="M102 -154q56 0 104 50.5t48 111.5q-1 0 -10 -1t-17 -1q-57 0 -91 35t-34 90q0 58 36.5 92.5t92.5 34.5q59 0 99.5 -43t40.5 -137q0 -142 -86 -240.5t-183 -93.5v102z" />
    <glyph glyph-name="quotedblleft" unicode="&#x201c;" horiz-adv-x="804" 
d="M356 1423q-56 0 -103.5 -50t-47.5 -111q1 0 9.5 1t16.5 1q57 0 91 -35t34 -90q0 -58 -36.5 -92.5t-92.5 -34.5q-59 0 -99 43t-40 137q0 142 86 240.5t182 93.5v-103zM705 1423q-56 0 -104 -50t-48 -111q1 0 10 1t17 1q57 0 91 -35t34 -90q0 -58 -36.5 -92.5t-93.5 -34.5
q-59 0 -99 43t-40 137q0 142 86 240.5t183 93.5v-103z" />
    <glyph glyph-name="quotedblright" unicode="&#x201d;" horiz-adv-x="808" 
d="M113 1114q56 0 103.5 50.5t47.5 111.5q-1 0 -9.5 -1t-16.5 -1q-57 0 -91 35t-34 90q0 58 36.5 92.5t92.5 34.5q59 0 99 -43t40 -137q0 -142 -86 -240.5t-182 -93.5v102zM461 1114q56 0 103.5 50.5t47.5 111.5q-1 0 -9.5 -1t-16.5 -1q-57 0 -91 35t-34 90q0 58 36.5 92.5
t92.5 34.5q59 0 99 -43t40 -137q0 -142 -86 -240.5t-182 -93.5v102z" />
    <glyph glyph-name="quotedblbase" unicode="&#x201e;" horiz-adv-x="821" 
d="M104 -195q56 0 104 50.5t48 111.5q-1 0 -10 -1t-17 -1q-57 0 -91 35t-34 90q0 58 36.5 92.5t92.5 34.5q59 0 99.5 -43t40.5 -137q0 -142 -86 -240.5t-183 -93.5v102zM453 -195q56 0 103.5 50.5t47.5 111.5q-1 0 -9.5 -1t-16.5 -1q-57 0 -91 35t-34 90q0 58 36.5 92.5
t92.5 34.5q59 0 99 -43t40 -137q0 -142 -86 -240.5t-182 -93.5v102z" />
    <glyph glyph-name="dagger" unicode="&#x2020;" horiz-adv-x="872" 
d="M760 1198v-160h-236v-632h-176v632h-235v160h235v256h176v-256h236z" />
    <glyph glyph-name="daggerdbl" unicode="&#x2021;" horiz-adv-x="872" 
d="M760 1038h-236v-217h236v-159h-236v-256h-176v256h-235v159h235v217h-235v160h235v256h176v-256h236v-160z" />
    <glyph glyph-name="bullet" unicode="&#x2022;" horiz-adv-x="722" 
d="M360 920q95 0 151 -56t56 -147q0 -90 -56 -144.5t-149 -54.5t-149.5 54.5t-56.5 144.5q0 91 56 147t148 56z" />
    <glyph glyph-name="ellipsis" unicode="&#x2026;" horiz-adv-x="1185" 
d="M225 238q57 0 92 -34.5t35 -90.5q0 -55 -35 -89t-92 -34t-92 34t-35 89q0 56 35 90.5t92 34.5zM592 238q57 0 92 -34.5t35 -90.5q0 -55 -35 -89t-92 -34t-92 34t-35 89q0 56 35 90.5t92 34.5zM958 238q57 0 92 -34.5t35 -90.5q0 -55 -35 -89t-92 -34t-92 34t-35 89
q0 56 35 90.5t92 34.5z" />
    <glyph glyph-name="perthousand" unicode="&#x2030;" horiz-adv-x="2185" 
d="M1077 1417h172l-604 -1417h-174zM713 1020q0 -189 -86.5 -292t-239.5 -103t-239.5 103t-86.5 292t86.5 292t239.5 103t239.5 -103t86.5 -292zM387 782q141 0 141 238q0 237 -141 237t-141 -237q0 -238 141 -238zM1800 780q153 0 238.5 -103t85.5 -292t-85.5 -292
t-238.5 -103q-149 0 -233 96q-84 -96 -234 -96q-153 0 -239 103t-86 292t86 292t239 103q150 0 234 -96q84 96 233 96zM1333 147q142 0 142 238t-142 238q-143 0 -143 -238t143 -238zM1800 147q142 0 142 238t-142 238q-143 0 -143 -238t143 -238z" />
    <glyph glyph-name="guilsinglleft" unicode="&#x2039;" horiz-adv-x="641" 
d="M66 481v25l268 303h192l-268 -315l270 -318h-194z" />
    <glyph glyph-name="guilsinglright" unicode="&#x203a;" horiz-adv-x="641" 
d="M575 481l-268 -305h-194l270 318l-268 315h192l268 -303v-25z" />
    <glyph glyph-name="fraction" unicode="&#x2044;" horiz-adv-x="360" 
d="M-215 0l606 1417h172l-604 -1417h-174z" />
    <glyph glyph-name="Euro" unicode="&#x20ac;" horiz-adv-x="1452" 
d="M850 147q125 0 207.5 68t118.5 180h188q-47 -189 -181 -298t-335 -109q-214 0 -362.5 124.5t-202.5 348.5h-215l30 155h160q-2 27 -2 82t2 82h-190l30 156h185q54 226 203.5 352.5t359.5 128.5q199 0 336 -111.5t182 -301.5h-188q-36 118 -121 185.5t-207 67.5
q-134 0 -234.5 -83.5t-144.5 -237.5h430l-31 -156h-426q-4 -54 -4 -80q0 -30 4 -84h457l-31 -155h-397q44 -151 144 -233.5t235 -80.5z" />
    <glyph glyph-name="trademark" unicode="&#x2122;" horiz-adv-x="1431" 
d="M61 1290v115h519v-115h-191v-475h-137v475h-191zM1151 1405h133v-590h-123l2 344l-149 -344h-90l-146 344l2 -344h-123v590h140l174 -401z" />
    <glyph glyph-name="oneeighth" unicode="&#x215b;" horiz-adv-x="1562" 
d="M967 1417h172l-604 -1417h-175zM530 760v-129h-446v129h147v430h-143v108q95 0 137.5 22t65.5 83h100v-643h139zM1382 412q115 -66 115 -185q0 -107 -80 -171t-211 -64t-209.5 64t-78.5 171q0 120 114 185q-90 62 -90 161q0 100 74.5 160t189.5 60q116 0 190 -60t74 -160
q0 -98 -88 -161zM1206 668q-50 0 -81 -31t-31 -72t31.5 -71.5t82.5 -30.5t82 31t31 71t-32 71.5t-83 31.5zM1206 119q59 0 96 31.5t37 78.5q0 49 -37 81t-94 32q-58 0 -95.5 -31.5t-37.5 -81.5q2 -47 39 -78.5t92 -31.5z" />
    <glyph glyph-name="threeeighths" unicode="&#x215c;" horiz-adv-x="1628" 
d="M659 879q1 -114 -85 -181t-218 -67t-213.5 69t-81.5 191h168q0 -119 133 -119q58 0 89.5 26t31.5 74q-3 101 -125 101h-73v121h69q118 0 121 88q0 44 -30.5 70t-84.5 26q-57 0 -86.5 -31t-29.5 -88h-168q0 122 76 192t206 70q125 0 205 -62.5t80 -168.5q0 -98 -72 -150
q88 -51 88 -161zM1053 1417h172l-604 -1417h-175zM1448 412q115 -66 115 -185q0 -107 -80 -171t-211 -64t-210 64t-79 171q0 119 115 185q-90 62 -90 161q0 100 74.5 160t189.5 60q116 0 190 -60t74 -160q0 -98 -88 -161zM1272 668q-50 0 -81.5 -31t-31.5 -72t32 -71.5
t83 -30.5t81.5 31t30.5 71t-31.5 71.5t-82.5 31.5zM1272 119q59 0 96 31.5t37 78.5q0 49 -37 81t-94 32q-58 0 -95.5 -31.5t-37.5 -81.5q2 -47 39 -78.5t92 -31.5z" />
    <glyph glyph-name="fiveeighths" unicode="&#x215d;" horiz-adv-x="1619" 
d="M1047 1417h172l-605 -1417h-174zM651 891q0 -117 -84 -188.5t-217 -71.5q-130 0 -209.5 67.5t-79.5 171.5l162 -2q0 -40 33 -68t92 -28q64 0 102.5 33t38.5 86q0 54 -38.5 88.5t-104.5 34.5q-72 0 -131 -49l-135 45l49 395h475v-135h-352l-19 -142q64 23 136 23
q124 0 203 -70.5t79 -189.5zM1440 412q114 -65 114 -185q0 -107 -79.5 -171t-210.5 -64t-210 64t-79 171q0 119 115 185q-91 62 -91 161t75 159.5t190 60.5q116 0 190 -60t74 -160q0 -98 -88 -161zM1264 668q-50 0 -81.5 -31t-31.5 -72t32 -71.5t83 -30.5t81.5 31t30.5 71
t-31.5 71.5t-82.5 31.5zM1264 119q59 0 96 31.5t37 78.5q0 49 -37 81t-94 32q-58 0 -95.5 -31.5t-37.5 -81.5q2 -47 39 -78.5t92 -31.5z" />
    <glyph glyph-name="seveneighths" unicode="&#x215e;" horiz-adv-x="1546" 
d="M922 1417h172l-605 -1417h-174zM164 631l280 637v2h-389v135h563v-133l-276 -641h-178zM1358 412q115 -66 115 -185q0 -107 -80 -171t-211 -64t-210 64t-79 171q0 119 115 185q-90 62 -90 161q0 100 74.5 160t189.5 60q116 0 190 -60t74 -160q0 -98 -88 -161zM1182 668
q-50 0 -81.5 -31t-31.5 -72t32 -71.5t83 -30.5t81.5 31t30.5 71t-31.5 71.5t-82.5 31.5zM1182 119q59 0 96 31.5t37 78.5q0 49 -37 81t-94 32q-58 0 -95.5 -31.5t-37.5 -81.5q2 -47 39 -78.5t92 -31.5z" />
    <glyph glyph-name="minus" unicode="&#x2212;" horiz-adv-x="1089" 
d="M139 635v149h811v-149h-811z" />
    <glyph glyph-name="approxequal" unicode="&#x2248;" horiz-adv-x="1091" 
d="M143 784v150q42 30 105 47.5t127 17.5q67 0 184.5 -32.5t175.5 -32.5q59 0 119 19.5t100 50.5v-150q-99 -69 -225 -66q-67 1 -187 33.5t-175 32.5q-59 0 -124.5 -21t-99.5 -49zM143 412v149q42 30 105 48t127 18q67 0 184.5 -33t175.5 -33q59 0 119 19.5t100 50.5v-150
q-98 -68 -225 -65q-67 1 -187 33t-175 32q-59 0 -124.5 -20.5t-99.5 -48.5z" />
    <glyph glyph-name="notequal" unicode="&#x2260;" horiz-adv-x="1089" 
d="M950 840h-268l-123 -260h391v-150h-461l-96 -205h-149l96 205h-201v150h271l122 260h-393v149h463l96 205h150l-96 -205h198v-149z" />
    <glyph glyph-name="uniF8FF" unicode="&#xf8ff;" horiz-adv-x="2912" 
d="M1386 1241q0 57 36 95t87 38q53 0 89 -38t36 -95q0 -54 -36.5 -91.5t-88.5 -37.5q-51 0 -87 37.5t-36 91.5zM440 575h-239q0 290 18 668h201q20 -420 20 -668zM1393 575q0 194 6 314h-123l6 -139q9 -9 31 -9q26 0 37 11v-158q-27 -31 -138 -31q-163 0 -163 139
q0 26 3 105t3 82h-43v168l239 63l2 -37h357q20 -134 20 -508h-237zM657 565q-87 0 -135.5 60.5t-48.5 181.5q0 140 66.5 214.5t203.5 74.5q125 0 186.5 -64.5t61.5 -185.5v-271h-166l-16 130q-13 -69 -48 -104.5t-104 -35.5zM2187 575h-229q0 56 2 120t2 79q0 33 -5.5 47.5
t-23.5 14.5q-23 0 -30 -15.5t-7 -46.5q0 -15 3.5 -79t3.5 -120h-230q0 367 21 508h161q11 -129 11 -161q2 21 9 44t23 55.5t50 53.5t80 21q85 0 117.5 -53.5t35.5 -174.5zM2712 834q0 -269 -248 -269q-124 0 -184 69t-60 195q0 55 11.5 99.5t38 84t77 61.5t121.5 22
q244 0 244 -262zM782 799q0 55 -47 55q-24 0 -34.5 -12.5t-10.5 -42.5q0 -64 45 -64q22 0 34.5 17t12.5 47zM2511 799q0 55 -47 55q-41 0 -41 -55q0 -64 41 -64q22 0 34.5 17t12.5 47zM858 508h209q20 -112 20 -295q0 -172 -67.5 -245.5t-237.5 -73.5q-128 0 -176 36v176
q51 -34 142 -34q32 0 55 7t33 18t14 19.5t4 14.5q-28 -22 -98 -22q-181 0 -181 176v28h-110l6 -139q12 -8 31 -8q27 0 37 10v-156q-37 -30 -138 -30q-90 0 -125.5 36t-35.5 115t6 172h-37v170l235 62l-2 -37h355v-254q0 -34 6 -45.5t24 -11.5t24.5 12t6.5 45v254zM1470 518
q75 0 118.5 -63t43.5 -179q0 -286 -276 -286q2 -33 2 -84h-238q0 282 21 602h155q15 -101 15 -164q3 17 6.5 31t16 43t28 48.5t44.5 35.5t64 16zM2148 270q0 -46 -6 -73h-250q22 -39 101 -39q67 0 110 24v-159q-47 -33 -155 -33q-141 0 -213 66.5t-72 193.5
q0 125 66.5 196.5t185.5 71.5q110 0 171.5 -64.5t61.5 -183.5zM1962 231q6 58 -33 58q-47 0 -47 -58h80zM1346 154q10 0 24.5 4.5t31.5 23.5t17 49q0 50 -41 50q-43 0 -43 -66q0 -28 11 -61zM2157 29q0 -23 12.5 -36t34.5 -13t35.5 13t13.5 36q0 22 -13.5 34.5t-35.5 12.5
t-34.5 -12.5t-12.5 -34.5zM2167 29q0 37 37 37t37 -37q0 -39 -37 -39t-37 39zM2224 4l-12 19q5 0 9.5 4.5t4.5 11.5q0 14 -20 14h-23v-49h10v19h11l8 -19h12zM2208 33h-15v12h15q8 0 8 -6t-8 -6z" />
    <glyph glyph-name="J.ss01" horiz-adv-x="921" 
d="M61 170q114 -12 236 -12q123 0 196.5 73t73.5 211v963h181v-963q0 -203 -117 -322.5t-332 -119.5q-124 0 -238 12v158z" />
    <glyph glyph-name="Jcircumflex.ss01" horiz-adv-x="921" 
d="M770 1735l172 -265h-149l-142 146l-141 -146h-150l175 265h235zM61 170q114 -12 236 -12q123 0 196.5 73t73.5 211v963h181v-963q0 -203 -117 -322.5t-332 -119.5q-124 0 -238 12v158z" />
    <glyph glyph-name="K.ss01" horiz-adv-x="1314" 
d="M1311 164l14 -158q-56 -16 -115 -16q-104 0 -175.5 50t-149.5 177l-277 438l-241 -270v-385h-181v1405h181v-791l690 791h225l-543 -604l342 -549q35 -58 70 -78t78 -20q57 0 82 10z" />
    <glyph glyph-name="Kcommaaccent.ss01" horiz-adv-x="1314" 
d="M1311 164l14 -158q-56 -16 -115 -16q-104 0 -175.5 50t-149.5 177l-277 438l-241 -270v-385h-181v1405h181v-791l690 791h225l-543 -604l342 -549q35 -58 70 -78t78 -20q57 0 82 10zM700 -84q125 0 125 -168q0 -142 -72.5 -228t-156.5 -81v92q42 0 75.5 40t33.5 103
q-55 0 -90 34.5t-35 88.5q0 55 35 87t85 32z" />
    <glyph glyph-name="R.ss01" horiz-adv-x="1269" 
d="M969 0l-291 565h-311v-565h-181v1405h514q204 0 330.5 -109.5t126.5 -310.5q0 -151 -74.5 -251.5t-205.5 -141.5l307 -592h-215zM367 1247v-532h333q132 0 203.5 73t71.5 193t-71.5 193t-203.5 73h-333z" />
    <glyph glyph-name="Racute.ss01" horiz-adv-x="1269" 
d="M899 1755l-186 -264h-170l86 264h270zM969 0l-291 565h-311v-565h-181v1405h514q204 0 330.5 -109.5t126.5 -310.5q0 -151 -74.5 -251.5t-205.5 -141.5l307 -592h-215zM367 1247v-532h333q132 0 203.5 73t71.5 193t-71.5 193t-203.5 73h-333z" />
    <glyph glyph-name="Rcaron.ss01" horiz-adv-x="1269" 
d="M731 1491h-235l-174 264h149l141 -145l142 145h149zM969 0l-291 565h-311v-565h-181v1405h514q204 0 330.5 -109.5t126.5 -310.5q0 -151 -74.5 -251.5t-205.5 -141.5l307 -592h-215zM367 1247v-532h333q132 0 203.5 73t71.5 193t-71.5 193t-203.5 73h-333z" />
    <glyph glyph-name="Rcommaaccent.ss01" horiz-adv-x="1269" 
d="M877 592l307 -592h-215l-291 565h-311v-565h-181v1405h514q204 0 330.5 -109.5t126.5 -310.5q0 -151 -74.5 -251.5t-205.5 -141.5zM367 1247v-532h333q132 0 203.5 73t71.5 193t-71.5 193t-203.5 73h-333zM659 -84q125 0 125 -168q0 -142 -72.5 -228t-156.5 -81v92
q42 0 75.5 40t33.5 103q-55 0 -90 34.5t-35 88.5q0 55 35 87t85 32z" />
    <glyph glyph-name="i.loclTRK" horiz-adv-x="481" 
d="M242 1458q57 0 92 -34.5t35 -90.5q0 -55 -35 -89t-92 -34t-92 34t-35 89q0 56 35 90.5t92 34.5zM150 0v1004h182v-1004h-182z" />
    <glyph glyph-name="a.ss01" horiz-adv-x="1091" 
d="M530 1014q207 0 314.5 -103t107.5 -293v-618h-178l-4 147q-18 -26 -42.5 -49.5t-65 -50t-103 -42t-137.5 -15.5q-165 0 -252.5 75t-87.5 199q0 105 63.5 175t168.5 100t249 30h209v58q0 114 -63.5 173.5t-184.5 59.5q-106 0 -169.5 -47t-73.5 -141h-177q9 156 125 249
t301 93zM453 135q75 0 138 23.5t101 59.5t59 75.5t21 75.5v69h-209q-153 0 -225 -41.5t-72 -126.5q0 -64 46.5 -99.5t140.5 -35.5z" />
    <glyph glyph-name="aacute.ss01" horiz-adv-x="1091" 
d="M770 1485l-186 -328h-148l107 328h227zM530 1014q207 0 314.5 -103t107.5 -293v-618h-178l-4 147q-18 -26 -42.5 -49.5t-65 -50t-103 -42t-137.5 -15.5q-165 0 -252.5 75t-87.5 199q0 105 63.5 175t168.5 100t249 30h209v58q0 114 -63.5 173.5t-184.5 59.5
q-106 0 -169.5 -47t-73.5 -141h-177q9 156 125 249t301 93zM453 135q75 0 138 23.5t101 59.5t59 75.5t21 75.5v69h-209q-153 0 -225 -41.5t-72 -126.5q0 -64 46.5 -99.5t140.5 -35.5z" />
    <glyph glyph-name="abreve.ss01" horiz-adv-x="1091" 
d="M528 1151q-135 0 -209.5 86.5t-74.5 237.5h149q0 -187 133 -187t133 187h152q0 -149 -74.5 -236.5t-208.5 -87.5zM530 1014q207 0 314.5 -103t107.5 -293v-618h-178l-4 147q-18 -26 -42.5 -49.5t-65 -50t-103 -42t-137.5 -15.5q-165 0 -252.5 75t-87.5 199
q0 105 63.5 175t168.5 100t249 30h209v58q0 114 -63.5 173.5t-184.5 59.5q-106 0 -169.5 -47t-73.5 -141h-177q9 156 125 249t301 93zM453 135q75 0 138 23.5t101 59.5t59 75.5t21 75.5v69h-209q-153 0 -225 -41.5t-72 -126.5q0 -64 46.5 -99.5t140.5 -35.5z" />
    <glyph glyph-name="acircumflex.ss01" horiz-adv-x="1091" 
d="M528 1346l-141 -189h-154l195 328h201l194 -328h-153zM530 1014q207 0 314.5 -103t107.5 -293v-618h-178l-4 147q-18 -26 -42.5 -49.5t-65 -50t-103 -42t-137.5 -15.5q-165 0 -252.5 75t-87.5 199q0 105 63.5 175t168.5 100t249 30h209v58q0 114 -63.5 173.5t-184.5 59.5
q-106 0 -169.5 -47t-73.5 -141h-177q9 156 125 249t301 93zM453 135q75 0 138 23.5t101 59.5t59 75.5t21 75.5v69h-209q-153 0 -225 -41.5t-72 -126.5q0 -64 46.5 -99.5t140.5 -35.5z" />
    <glyph glyph-name="adieresis.ss01" horiz-adv-x="1091" 
d="M352 1223q-51 0 -81.5 30t-30.5 78q0 50 30.5 80.5t81.5 30.5t82 -30.5t31 -80.5q0 -48 -31 -78t-82 -30zM729 1223q-51 0 -82 30t-31 78q0 50 31 80.5t82 30.5t82 -30.5t31 -80.5q0 -48 -31 -78t-82 -30zM530 1014q207 0 314.5 -103t107.5 -293v-618h-178l-4 147
q-18 -26 -42.5 -49.5t-65 -50t-103 -42t-137.5 -15.5q-165 0 -252.5 75t-87.5 199q0 105 63.5 175t168.5 100t249 30h209v58q0 114 -63.5 173.5t-184.5 59.5q-106 0 -169.5 -47t-73.5 -141h-177q9 156 125 249t301 93zM453 135q75 0 138 23.5t101 59.5t59 75.5t21 75.5v69
h-209q-153 0 -225 -41.5t-72 -126.5q0 -64 46.5 -99.5t140.5 -35.5z" />
    <glyph glyph-name="uni1EA1.ss01" horiz-adv-x="1091" 
d="M530 1014q207 0 314.5 -103t107.5 -293v-618h-178l-4 147q-18 -26 -42.5 -49.5t-65 -50t-103 -42t-137.5 -15.5q-165 0 -252.5 75t-87.5 199q0 105 63.5 175t168.5 100t249 30h209v58q0 114 -63.5 173.5t-184.5 59.5q-106 0 -169.5 -47t-73.5 -141h-177q9 156 125 249
t301 93zM453 135q75 0 138 23.5t101 59.5t59 75.5t21 75.5v69h-209q-153 0 -225 -41.5t-72 -126.5q0 -64 46.5 -99.5t140.5 -35.5zM524 -131q57 0 92 -34t35 -89t-35 -89t-92 -34t-92 34t-35 89t35 89t92 34z" />
    <glyph glyph-name="agrave.ss01" horiz-adv-x="1091" 
d="M621 1157h-148l-186 328h227zM530 1014q207 0 314.5 -103t107.5 -293v-618h-178l-4 147q-18 -26 -42.5 -49.5t-65 -50t-103 -42t-137.5 -15.5q-165 0 -252.5 75t-87.5 199q0 105 63.5 175t168.5 100t249 30h209v58q0 114 -63.5 173.5t-184.5 59.5q-106 0 -169.5 -47
t-73.5 -141h-177q9 156 125 249t301 93zM453 135q75 0 138 23.5t101 59.5t59 75.5t21 75.5v69h-209q-153 0 -225 -41.5t-72 -126.5q0 -64 46.5 -99.5t140.5 -35.5z" />
    <glyph glyph-name="amacron.ss01" horiz-adv-x="1091" 
d="M811 1397v-135h-563v135h563zM530 1014q207 0 314.5 -103t107.5 -293v-618h-178l-4 147q-18 -26 -42.5 -49.5t-65 -50t-103 -42t-137.5 -15.5q-165 0 -252.5 75t-87.5 199q0 105 63.5 175t168.5 100t249 30h209v58q0 114 -63.5 173.5t-184.5 59.5q-106 0 -169.5 -47
t-73.5 -141h-177q9 156 125 249t301 93zM453 135q75 0 138 23.5t101 59.5t59 75.5t21 75.5v69h-209q-153 0 -225 -41.5t-72 -126.5q0 -64 46.5 -99.5t140.5 -35.5z" />
    <glyph glyph-name="aogonek.ss01" horiz-adv-x="1091" 
d="M993 -262l51 -103q-62 -59 -176 -59q-99 0 -155 52t-56 141q0 126 125 231h-8l-4 147q-18 -26 -42.5 -49.5t-65 -50t-103 -42t-137.5 -15.5q-165 0 -252.5 75t-87.5 199q0 105 63.5 175t168.5 100t249 30h209v58q0 114 -63.5 173.5t-184.5 59.5q-106 0 -169.5 -47
t-73.5 -141h-177q9 156 125 249t301 93q207 0 314.5 -103t107.5 -293v-618q-6 -4 -16.5 -10.5t-37.5 -28t-47 -44.5t-37 -58t-17 -70q0 -43 23 -65.5t63 -22.5q63 0 110 37zM453 135q75 0 138 23.5t101 59.5t59 75.5t21 75.5v69h-209q-153 0 -225 -41.5t-72 -126.5
q0 -64 46.5 -99.5t140.5 -35.5z" />
    <glyph glyph-name="aring.ss01" horiz-adv-x="1091" 
d="M528 1133q-82 0 -139 51t-57 135q0 86 56.5 138t139.5 52t140 -52t57 -138q0 -84 -57.5 -135t-139.5 -51zM528 1393q-35 0 -55 -20.5t-20 -53.5q0 -32 20.5 -53t54.5 -21q35 0 56.5 21.5t21.5 52.5q0 33 -21.5 53.5t-56.5 20.5zM530 1014q207 0 314.5 -103t107.5 -293
v-618h-178l-4 147q-18 -26 -42.5 -49.5t-65 -50t-103 -42t-137.5 -15.5q-165 0 -252.5 75t-87.5 199q0 105 63.5 175t168.5 100t249 30h209v58q0 114 -63.5 173.5t-184.5 59.5q-106 0 -169.5 -47t-73.5 -141h-177q9 156 125 249t301 93zM453 135q75 0 138 23.5t101 59.5
t59 75.5t21 75.5v69h-209q-153 0 -225 -41.5t-72 -126.5q0 -64 46.5 -99.5t140.5 -35.5z" />
    <glyph glyph-name="aringacute.ss01" horiz-adv-x="1091" 
d="M528 1133q-82 0 -139 51t-57 135q0 86 56.5 138t139.5 52q81 0 134 -47l51 148h186l-176 -320q-10 -72 -65.5 -114.5t-129.5 -42.5zM528 1393q-35 0 -55 -20.5t-20 -53.5q0 -32 20.5 -53t54.5 -21q35 0 56.5 21.5t21.5 52.5q0 33 -21.5 53.5t-56.5 20.5zM530 1014
q207 0 314.5 -103t107.5 -293v-618h-178l-4 147q-18 -26 -42.5 -49.5t-65 -50t-103 -42t-137.5 -15.5q-165 0 -252.5 75t-87.5 199q0 105 63.5 175t168.5 100t249 30h209v58q0 114 -63.5 173.5t-184.5 59.5q-106 0 -169.5 -47t-73.5 -141h-177q9 156 125 249t301 93z
M453 135q75 0 138 23.5t101 59.5t59 75.5t21 75.5v69h-209q-153 0 -225 -41.5t-72 -126.5q0 -64 46.5 -99.5t140.5 -35.5z" />
    <glyph glyph-name="atilde.ss01" horiz-adv-x="1091" 
d="M389 1294q-37 0 -56.5 -24t-19.5 -64h-135q0 232 195 232q50 0 90 -15t62 -33.5t50 -33.5t56 -15q35 0 55.5 24t20.5 65h133q0 -111 -51.5 -171.5t-143.5 -60.5q-48 0 -87.5 15t-61.5 33t-50.5 33t-56.5 15zM530 1014q207 0 314.5 -103t107.5 -293v-618h-178l-4 147
q-18 -26 -42.5 -49.5t-65 -50t-103 -42t-137.5 -15.5q-165 0 -252.5 75t-87.5 199q0 105 63.5 175t168.5 100t249 30h209v58q0 114 -63.5 173.5t-184.5 59.5q-106 0 -169.5 -47t-73.5 -141h-177q9 156 125 249t301 93zM453 135q75 0 138 23.5t101 59.5t59 75.5t21 75.5v69
h-209q-153 0 -225 -41.5t-72 -126.5q0 -64 46.5 -99.5t140.5 -35.5z" />
    <glyph glyph-name="f.ss01" horiz-adv-x="745" 
d="M393 1004h330v-152h-330v-852h-180v852h-141v152h141v180q0 129 90.5 210t228.5 81q140 0 225 -82.5t85 -208.5h-164q0 63 -41 100t-105 37t-101.5 -37.5t-37.5 -99.5v-180z" />
    <glyph glyph-name="g.ss01" horiz-adv-x="1228" 
d="M889 1004h170v-963q0 -106 -30 -189.5t-93.5 -148t-170.5 -99t-253 -34.5q-184 0 -332 63v166q166 -75 330 -75q108 0 182.5 23.5t114 68.5t56 99t16.5 126v119q-98 -153 -326 -170q-208 0 -336.5 141.5t-128.5 372.5q0 228 129 369t336 141q227 0 328 -168zM565 143
q77 0 139 31t99 81.5t56.5 108.5t19.5 117v41q0 59 -19.5 117t-56.5 108.5t-99 81.5t-139 31q-132 0 -212.5 -98t-80.5 -258q0 -163 80.5 -262t212.5 -99z" />
    <glyph glyph-name="gbreve.ss01" horiz-adv-x="1228" 
d="M604 1151q-135 0 -210 86.5t-75 237.5h150q0 -187 133 -187t133 187h152q0 -149 -74.5 -236.5t-208.5 -87.5zM889 1004h170v-963q0 -106 -30 -189.5t-93.5 -148t-170.5 -99t-253 -34.5q-184 0 -332 63v166q166 -75 330 -75q108 0 182.5 23.5t114 68.5t56 99t16.5 126v119
q-98 -153 -326 -170q-208 0 -336.5 141.5t-128.5 372.5q0 228 129 369t336 141q227 0 328 -168zM565 143q77 0 139 31t99 81.5t56.5 108.5t19.5 117v41q0 59 -19.5 117t-56.5 108.5t-99 81.5t-139 31q-132 0 -212.5 -98t-80.5 -258q0 -163 80.5 -262t212.5 -99z" />
    <glyph glyph-name="gcaron.ss01" horiz-adv-x="1228" 
d="M707 1157h-201l-197 328h154l141 -189l144 189h153zM889 1004h170v-963q0 -106 -30 -189.5t-93.5 -148t-170.5 -99t-253 -34.5q-184 0 -332 63v166q166 -75 330 -75q108 0 182.5 23.5t114 68.5t56 99t16.5 126v119q-98 -153 -326 -170q-208 0 -336.5 141.5t-128.5 372.5
q0 228 129 369t336 141q227 0 328 -168zM565 143q77 0 139 31t99 81.5t56.5 108.5t19.5 117v41q0 59 -19.5 117t-56.5 108.5t-99 81.5t-139 31q-132 0 -212.5 -98t-80.5 -258q0 -163 80.5 -262t212.5 -99z" />
    <glyph glyph-name="gcircumflex.ss01" horiz-adv-x="1228" 
d="M604 1346l-141 -189h-154l195 328h201l194 -328h-154zM889 1004h170v-963q0 -106 -30 -189.5t-93.5 -148t-170.5 -99t-253 -34.5q-184 0 -332 63v166q166 -75 330 -75q108 0 182.5 23.5t114 68.5t56 99t16.5 126v119q-98 -153 -326 -170q-208 0 -336.5 141.5
t-128.5 372.5q0 228 129 369t336 141q227 0 328 -168zM565 143q77 0 139 31t99 81.5t56.5 108.5t19.5 117v41q0 59 -19.5 117t-56.5 108.5t-99 81.5t-139 31q-132 0 -212.5 -98t-80.5 -258q0 -163 80.5 -262t212.5 -99z" />
    <glyph glyph-name="gcommaaccent.ss01" horiz-adv-x="1228" 
d="M602 1128q-125 0 -125 168q0 142 73 228.5t157 81.5v-93q-42 0 -75.5 -40t-33.5 -103q55 0 90 -34.5t35 -88.5q0 -55 -35.5 -87t-85.5 -32zM889 1004h170v-963q0 -106 -30 -189.5t-93.5 -148t-170.5 -99t-253 -34.5q-184 0 -332 63v166q166 -75 330 -75q108 0 182.5 23.5
t114 68.5t56 99t16.5 126v119q-98 -153 -326 -170q-208 0 -336.5 141.5t-128.5 372.5q0 228 129 369t336 141q227 0 328 -168zM565 143q77 0 139 31t99 81.5t56.5 108.5t19.5 117v41q0 59 -19.5 117t-56.5 108.5t-99 81.5t-139 31q-132 0 -212.5 -98t-80.5 -258
q0 -163 80.5 -262t212.5 -99z" />
    <glyph glyph-name="gdotaccent.ss01" horiz-adv-x="1228" 
d="M604 1210q-57 0 -92 34t-35 89q0 56 35 90.5t92 34.5t92 -34.5t35 -90.5q0 -55 -35 -89t-92 -34zM889 1004h170v-963q0 -106 -30 -189.5t-93.5 -148t-170.5 -99t-253 -34.5q-184 0 -332 63v166q166 -75 330 -75q108 0 182.5 23.5t114 68.5t56 99t16.5 126v119
q-98 -153 -326 -170q-208 0 -336.5 141.5t-128.5 372.5q0 228 129 369t336 141q227 0 328 -168zM565 143q77 0 139 31t99 81.5t56.5 108.5t19.5 117v41q0 59 -19.5 117t-56.5 108.5t-99 81.5t-139 31q-132 0 -212.5 -98t-80.5 -258q0 -163 80.5 -262t212.5 -99z" />
    <glyph glyph-name="j.ss01" horiz-adv-x="495" 
d="M385 1331q0 -53 -37 -88t-90 -35t-88 34.5t-35 88.5q0 53 35.5 88t87.5 35q53 0 90 -35.5t37 -87.5zM31 -276q135 0 135 151v1129h180v-1135q0 -137 -85.5 -218t-227.5 -81q-129 0 -214 71t-85 214h164q0 -63 34 -97t99 -34z" />
    <glyph glyph-name="uni0237.ss01" horiz-adv-x="495" 
d="M31 -276q135 0 135 151v1129h180v-1135q0 -137 -85.5 -218t-227.5 -81q-129 0 -214 71t-85 214h164q0 -63 34 -97t99 -34z" />
    <glyph glyph-name="jcircumflex.ss01" horiz-adv-x="495" 
d="M-45 1157l195 328h200l195 -328h-154l-141 189l-141 -189h-154zM33 -430q-129 0 -214 71t-85 214h164q0 -63 34 -97t99 -34q135 0 135 151v1129h180v-1135q0 -137 -85.5 -218t-227.5 -81z" />
    <glyph glyph-name="l.ss01" horiz-adv-x="479" 
d="M150 0v1454h180v-1454h-180z" />
    <glyph glyph-name="lacute.ss01" horiz-adv-x="479" 
d="M319 1520h-169l86 264h270zM150 0v1454h180v-1454h-180z" />
    <glyph glyph-name="lcaron.ss01" horiz-adv-x="495" 
d="M442 1137q43 0 77 41t34 108q-57 0 -92 34.5t-35 88.5q0 55 35.5 87t85.5 32q125 0 125 -168q0 -148 -72.5 -233.5t-157.5 -82.5v93zM150 0v1454h180v-1454h-180z" />
    <glyph glyph-name="lcommaaccent.ss01" horiz-adv-x="479" 
d="M150 0v1454h180v-1454h-180zM139 -469q42 0 75.5 40t33.5 103q-55 0 -90 34.5t-35 88.5q0 55 35.5 87t85.5 32q125 0 125 -168q0 -141 -73 -227.5t-157 -81.5v92z" />
    <glyph glyph-name="ldot.ss01" horiz-adv-x="665" 
d="M150 0v1454h180v-1454h-180zM575 829q57 0 92 -34t35 -90q0 -55 -35 -89t-92 -34t-91.5 33.5t-34.5 89.5t34.5 90t91.5 34z" />
    <glyph glyph-name="lslash.ss01" horiz-adv-x="647" 
d="M621 848l-203 -123v-725h-180v616l-144 -86l-65 119l209 127v678h180v-569l135 82z" />
    <glyph glyph-name="t.ss01" horiz-adv-x="890" 
d="M686 330h164q0 -159 -84 -248.5t-238 -89.5q-152 0 -241.5 87.5t-89.5 250.5v518h-152v156h162v299h172v-299h364v-152h-364v-522q0 -96 36 -140.5t113 -44.5q158 0 158 185z" />
    <glyph glyph-name="tbar.ss01" horiz-adv-x="890" 
d="M686 330h164q0 -159 -84 -248.5t-238 -89.5q-152 0 -241.5 87.5t-89.5 250.5v174h-123v131h123v213h-152v156h162v299h172v-299h364v-152h-364v-217h299v-131h-299v-174q0 -96 36 -140.5t113 -44.5q158 0 158 185z" />
    <glyph glyph-name="tcaron.ss01" horiz-adv-x="890" 
d="M612 1286q-57 0 -92 34.5t-35 88.5q0 55 35.5 87t85.5 32q54 0 89.5 -42t35.5 -130q0 -126 -72 -200t-157 -71v93q43 0 76.5 30t33.5 78zM686 330h164q0 -159 -84 -248.5t-238 -89.5q-152 0 -241.5 87.5t-89.5 250.5v518h-152v156h162v299h172v-299h364v-152h-364v-522
q0 -96 36 -140.5t113 -44.5q158 0 158 185z" />
    <glyph glyph-name="uni0163.ss01" horiz-adv-x="890" 
d="M528 -8h-14l-16 -74q69 -4 116.5 -40.5t47.5 -115.5q0 -85 -61.5 -134.5t-174.5 -49.5q-67 0 -129 23l29 120q50 -18 106 -18q98 0 98 55q0 64 -165 64l41 188q-99 30 -154 111.5t-55 208.5v518h-152v156h162v299h172v-299h364v-152h-364v-522q0 -96 36 -140.5t113 -44.5
q158 0 158 185h164q0 -159 -84 -248.5t-238 -89.5z" />
    <glyph glyph-name="uni021B.ss01" horiz-adv-x="890" 
d="M686 330h164q0 -159 -84 -248.5t-238 -89.5q-152 0 -241.5 87.5t-89.5 250.5v518h-152v156h162v299h172v-299h364v-152h-364v-522q0 -96 36 -140.5t113 -44.5q158 0 158 185zM506 -84q125 0 125 -168q0 -141 -73 -227.5t-157 -81.5v92q42 0 75.5 40t33.5 103
q-55 0 -90 34.5t-35 88.5q0 55 35.5 87t85.5 32z" />
    <glyph glyph-name="u.ss01" horiz-adv-x="1169" 
d="M1090 164l14 -158q-56 -16 -115 -16q-76 0 -124.5 42t-59.5 113q-109 -155 -307 -155q-159 0 -259 99.5t-100 260.5v654h183v-629q0 -110 55.5 -171t152.5 -61q123 0 197 74t74 203v584h180v-783q0 -31 17 -49t44 -18q23 0 48 10z" />
    <glyph glyph-name="uacute.ss01" horiz-adv-x="1169" 
d="M801 1485l-187 -328h-147l106 328h228zM1090 164l14 -158q-56 -16 -115 -16q-76 0 -124.5 42t-59.5 113q-109 -155 -307 -155q-159 0 -259 99.5t-100 260.5v654h183v-629q0 -110 55.5 -171t152.5 -61q123 0 197 74t74 203v584h180v-783q0 -31 17 -49t44 -18q23 0 48 10z
" />
    <glyph glyph-name="ubreve.ss01" horiz-adv-x="1169" 
d="M559 1151q-135 0 -210 86.5t-75 237.5h150q0 -187 133 -187t133 187h152q0 -149 -74.5 -236.5t-208.5 -87.5zM1090 164l14 -158q-56 -16 -115 -16q-76 0 -124.5 42t-59.5 113q-109 -155 -307 -155q-159 0 -259 99.5t-100 260.5v654h183v-629q0 -110 55.5 -171t152.5 -61
q123 0 197 74t74 203v584h180v-783q0 -31 17 -49t44 -18q23 0 48 10z" />
    <glyph glyph-name="ucircumflex.ss01" horiz-adv-x="1169" 
d="M559 1346l-141 -189h-154l195 328h200l195 -328h-154zM1090 164l14 -158q-56 -16 -115 -16q-76 0 -124.5 42t-59.5 113q-109 -155 -307 -155q-159 0 -259 99.5t-100 260.5v654h183v-629q0 -110 55.5 -171t152.5 -61q123 0 197 74t74 203v584h180v-783q0 -31 17 -49
t44 -18q23 0 48 10z" />
    <glyph glyph-name="udieresis.ss01" horiz-adv-x="1169" 
d="M381 1223q-51 0 -82 30t-31 78q0 50 31 80.5t82 30.5t82 -30.5t31 -80.5q0 -48 -31 -78t-82 -30zM758 1223q-51 0 -82 30t-31 78q0 50 31 80.5t82 30.5t81.5 -30.5t30.5 -80.5q0 -48 -30.5 -78t-81.5 -30zM1090 164l14 -158q-56 -16 -115 -16q-76 0 -124.5 42t-59.5 113
q-109 -155 -307 -155q-159 0 -259 99.5t-100 260.5v654h183v-629q0 -110 55.5 -171t152.5 -61q123 0 197 74t74 203v584h180v-783q0 -31 17 -49t44 -18q23 0 48 10z" />
    <glyph glyph-name="uni1EE5.ss01" horiz-adv-x="1169" 
d="M1090 164l14 -158q-56 -16 -115 -16q-76 0 -124.5 42t-59.5 113q-109 -155 -307 -155q-159 0 -259 99.5t-100 260.5v654h183v-629q0 -110 55.5 -171t152.5 -61q123 0 197 74t74 203v584h180v-783q0 -31 17 -49t44 -18q23 0 48 10zM571 -131q57 0 92 -34t35 -89t-35 -89
t-92 -34t-92 34t-35 89t35 89t92 34z" />
    <glyph glyph-name="ugrave.ss01" horiz-adv-x="1169" 
d="M651 1157h-147l-187 328h228zM1090 164l14 -158q-56 -16 -115 -16q-76 0 -124.5 42t-59.5 113q-109 -155 -307 -155q-159 0 -259 99.5t-100 260.5v654h183v-629q0 -110 55.5 -171t152.5 -61q123 0 197 74t74 203v584h180v-783q0 -31 17 -49t44 -18q23 0 48 10z" />
    <glyph glyph-name="uhungarumlaut.ss01" horiz-adv-x="1169" 
d="M629 1485l-187 -328h-141l86 328h242zM965 1485l-187 -328h-141l86 328h242zM1090 164l14 -158q-56 -16 -115 -16q-76 0 -124.5 42t-59.5 113q-109 -155 -307 -155q-159 0 -259 99.5t-100 260.5v654h183v-629q0 -110 55.5 -171t152.5 -61q123 0 197 74t74 203v584h180
v-783q0 -31 17 -49t44 -18q23 0 48 10z" />
    <glyph glyph-name="umacron.ss01" horiz-adv-x="1169" 
d="M842 1397v-135h-563v135h563zM1090 164l14 -158q-56 -16 -115 -16q-76 0 -124.5 42t-59.5 113q-109 -155 -307 -155q-159 0 -259 99.5t-100 260.5v654h183v-629q0 -110 55.5 -171t152.5 -61q123 0 197 74t74 203v584h180v-783q0 -31 17 -49t44 -18q23 0 48 10z" />
    <glyph glyph-name="uogonek.ss01" horiz-adv-x="1169" 
d="M1145 -256l51 -102q-63 -60 -176 -60q-99 0 -155 52t-56 141q0 124 117 225q-51 15 -82 53t-39 92q-109 -155 -307 -155q-159 0 -259 99.5t-100 260.5v654h183v-629q0 -110 55.5 -171t152.5 -61q123 0 197 74t74 203v584h180v-783q0 -31 17 -49t44 -18q23 0 48 10
l14 -158q-6 -4 -16.5 -10.5t-37.5 -28t-47.5 -44.5t-37.5 -58t-17 -70q0 -43 23 -65.5t63 -22.5q64 0 111 37z" />
    <glyph glyph-name="uring.ss01" horiz-adv-x="1169" 
d="M559 1133q-82 0 -139.5 51t-57.5 135q0 86 57 138t140 52t140 -52t57 -138q0 -84 -57.5 -135t-139.5 -51zM559 1393q-35 0 -55.5 -20.5t-20.5 -53.5q0 -32 21 -53t55 -21q35 0 56.5 21.5t21.5 52.5q0 33 -21.5 53.5t-56.5 20.5zM1090 164l14 -158q-56 -16 -115 -16
q-76 0 -124.5 42t-59.5 113q-109 -155 -307 -155q-159 0 -259 99.5t-100 260.5v654h183v-629q0 -110 55.5 -171t152.5 -61q123 0 197 74t74 203v584h180v-783q0 -31 17 -49t44 -18q23 0 48 10z" />
    <glyph glyph-name="utilde.ss01" horiz-adv-x="1169" 
d="M420 1294q-37 0 -56.5 -24t-19.5 -64h-135q0 232 194 232q50 0 90.5 -15t62 -33.5t50 -33.5t56.5 -15q35 0 55 24t20 65h133q0 -112 -51 -172t-143 -60q-48 0 -87.5 15t-61.5 33t-50.5 33t-56.5 15zM1090 164l14 -158q-56 -16 -115 -16q-76 0 -124.5 42t-59.5 113
q-109 -155 -307 -155q-159 0 -259 99.5t-100 260.5v654h183v-629q0 -110 55.5 -171t152.5 -61q123 0 197 74t74 203v584h180v-783q0 -31 17 -49t44 -18q23 0 48 10z" />
    <glyph glyph-name="y.ss01" horiz-adv-x="1130" 
d="M801 1004h180v-1045q0 -180 -112 -284.5t-318 -104.5q-184 0 -293.5 84t-126.5 237h180q29 -167 236 -167q132 0 195 58t63 177v191q-48 -73 -127.5 -116.5t-183.5 -43.5q-164 0 -259.5 96.5t-95.5 261.5v656h183v-629q0 -111 58.5 -171.5t166.5 -60.5q111 0 182.5 74.5
t71.5 202.5v584z" />
    <glyph glyph-name="yacute.ss01" horiz-adv-x="1130" 
d="M805 1485l-187 -328h-147l107 328h227zM801 1004h180v-1045q0 -180 -112 -284.5t-318 -104.5q-184 0 -293.5 84t-126.5 237h180q29 -167 236 -167q132 0 195 58t63 177v191q-48 -73 -127.5 -116.5t-183.5 -43.5q-164 0 -259.5 96.5t-95.5 261.5v656h183v-629
q0 -111 58.5 -171.5t166.5 -60.5q111 0 182.5 74.5t71.5 202.5v584z" />
    <glyph glyph-name="ycircumflex.ss01" horiz-adv-x="1130" 
d="M565 1346l-141 -189h-154l195 328h201l194 -328h-153zM801 1004h180v-1045q0 -180 -112 -284.5t-318 -104.5q-184 0 -293.5 84t-126.5 237h180q29 -167 236 -167q132 0 195 58t63 177v191q-48 -73 -127.5 -116.5t-183.5 -43.5q-164 0 -259.5 96.5t-95.5 261.5v656h183
v-629q0 -111 58.5 -171.5t166.5 -60.5q111 0 182.5 74.5t71.5 202.5v584z" />
    <glyph glyph-name="ydieresis.ss01" horiz-adv-x="1130" 
d="M379 1223q-51 0 -82 30t-31 78q0 50 31 80.5t82 30.5t82 -30.5t31 -80.5q0 -48 -31 -78t-82 -30zM756 1223q-51 0 -82 30t-31 78q0 50 31 80.5t82 30.5t81.5 -30.5t30.5 -80.5q0 -48 -30.5 -78t-81.5 -30zM801 1004h180v-1045q0 -180 -112 -284.5t-318 -104.5
q-184 0 -293.5 84t-126.5 237h180q29 -167 236 -167q132 0 195 58t63 177v191q-48 -73 -127.5 -116.5t-183.5 -43.5q-164 0 -259.5 96.5t-95.5 261.5v656h183v-629q0 -111 58.5 -171.5t166.5 -60.5q111 0 182.5 74.5t71.5 202.5v584z" />
    <glyph glyph-name="ygrave.ss01" horiz-adv-x="1130" 
d="M657 1157h-147l-186 328h227zM801 1004h180v-1045q0 -180 -112 -284.5t-318 -104.5q-184 0 -293.5 84t-126.5 237h180q29 -167 236 -167q132 0 195 58t63 177v191q-48 -73 -127.5 -116.5t-183.5 -43.5q-164 0 -259.5 96.5t-95.5 261.5v656h183v-629q0 -111 58.5 -171.5
t166.5 -60.5q111 0 182.5 74.5t71.5 202.5v584z" />
    <glyph glyph-name="uni0233.ss01" horiz-adv-x="1130" 
d="M856 1397v-135h-563v135h563zM801 1004h180v-1045q0 -180 -112 -284.5t-318 -104.5q-184 0 -293.5 84t-126.5 237h180q29 -167 236 -167q132 0 195 58t63 177v191q-48 -73 -127.5 -116.5t-183.5 -43.5q-164 0 -259.5 96.5t-95.5 261.5v656h183v-629q0 -111 58.5 -171.5
t166.5 -60.5q111 0 182.5 74.5t71.5 202.5v584z" />
    <glyph glyph-name="uni1EF9.ss01" horiz-adv-x="1130" 
d="M436 1294q-37 0 -56.5 -24t-19.5 -64h-135q0 232 195 232q50 0 90 -15t62 -33.5t50 -33.5t56 -15q35 0 55.5 24t20.5 65h133q0 -111 -51.5 -171.5t-143.5 -60.5q-48 0 -87.5 15t-61.5 33t-50.5 33t-56.5 15zM801 1004h180v-1045q0 -180 -112 -284.5t-318 -104.5
q-184 0 -293.5 84t-126.5 237h180q29 -167 236 -167q132 0 195 58t63 177v191q-48 -73 -127.5 -116.5t-183.5 -43.5q-164 0 -259.5 96.5t-95.5 261.5v656h183v-629q0 -111 58.5 -171.5t166.5 -60.5q111 0 182.5 74.5t71.5 202.5v584z" />
    <glyph glyph-name="f.ss02" horiz-adv-x="745" 
d="M610 1296q-114 0 -165.5 -56.5t-51.5 -166.5v-69h320v-152h-320v-852h-180v852h-141v152h141v69q0 188 104.5 284.5t282.5 96.5q54 0 127 -6v-158q-70 6 -117 6z" />
    <glyph glyph-name="g.ss02" horiz-adv-x="1228" 
d="M889 1004h170v-977q0 -98 -30 -176t-93.5 -137.5t-170.5 -91.5t-253 -32q-159 0 -332 17v153q160 -16 330 -16q108 0 182.5 21t114 61t56 88.5t16.5 112.5v133q-98 -153 -326 -170q-208 0 -336.5 141.5t-128.5 372.5q0 228 129 369t336 141q227 0 328 -168zM565 143
q77 0 139 31t99 81.5t56.5 108.5t19.5 117v41q0 59 -19.5 117t-56.5 108.5t-99 81.5t-139 31q-132 0 -212.5 -98t-80.5 -258q0 -163 80.5 -262t212.5 -99z" />
    <glyph glyph-name="gbreve.ss02" horiz-adv-x="1228" 
d="M604 1151q-135 0 -210 86.5t-75 237.5h150q0 -187 133 -187t133 187h152q0 -149 -74.5 -236.5t-208.5 -87.5zM889 1004h170v-977q0 -98 -30 -176t-93.5 -137.5t-170.5 -91.5t-253 -32q-159 0 -332 17v153q160 -16 330 -16q108 0 182.5 21t114 61t56 88.5t16.5 112.5v133
q-98 -153 -326 -170q-208 0 -336.5 141.5t-128.5 372.5q0 228 129 369t336 141q227 0 328 -168zM565 143q77 0 139 31t99 81.5t56.5 108.5t19.5 117v41q0 59 -19.5 117t-56.5 108.5t-99 81.5t-139 31q-132 0 -212.5 -98t-80.5 -258q0 -163 80.5 -262t212.5 -99z" />
    <glyph glyph-name="gcaron.ss02" horiz-adv-x="1228" 
d="M707 1157h-201l-197 328h154l141 -189l144 189h153zM889 1004h170v-977q0 -98 -30 -176t-93.5 -137.5t-170.5 -91.5t-253 -32q-159 0 -332 17v153q160 -16 330 -16q108 0 182.5 21t114 61t56 88.5t16.5 112.5v133q-98 -153 -326 -170q-208 0 -336.5 141.5t-128.5 372.5
q0 228 129 369t336 141q227 0 328 -168zM565 143q77 0 139 31t99 81.5t56.5 108.5t19.5 117v41q0 59 -19.5 117t-56.5 108.5t-99 81.5t-139 31q-132 0 -212.5 -98t-80.5 -258q0 -163 80.5 -262t212.5 -99z" />
    <glyph glyph-name="gcircumflex.ss02" horiz-adv-x="1228" 
d="M604 1346l-141 -189h-154l195 328h201l194 -328h-154zM889 1004h170v-977q0 -98 -30 -176t-93.5 -137.5t-170.5 -91.5t-253 -32q-159 0 -332 17v153q160 -16 330 -16q108 0 182.5 21t114 61t56 88.5t16.5 112.5v133q-98 -153 -326 -170q-208 0 -336.5 141.5t-128.5 372.5
q0 228 129 369t336 141q227 0 328 -168zM565 143q77 0 139 31t99 81.5t56.5 108.5t19.5 117v41q0 59 -19.5 117t-56.5 108.5t-99 81.5t-139 31q-132 0 -212.5 -98t-80.5 -258q0 -163 80.5 -262t212.5 -99z" />
    <glyph glyph-name="gcommaaccent.ss02" horiz-adv-x="1208" 
d="M602 1128q-125 0 -125 168q0 142 73 228.5t157 81.5v-93q-42 0 -75.5 -40t-33.5 -103q55 0 90 -34.5t35 -88.5q0 -55 -35.5 -87t-85.5 -32zM889 1004h170v-977q0 -98 -30 -176t-93.5 -137.5t-170.5 -91.5t-253 -32q-159 0 -332 17v153q160 -16 330 -16q108 0 182.5 21
t114 61t56 88.5t16.5 112.5v133q-98 -153 -326 -170q-208 0 -336.5 141.5t-128.5 372.5q0 228 129 369t336 141q227 0 328 -168zM565 143q77 0 139 31t99 81.5t56.5 108.5t19.5 117v41q0 59 -19.5 117t-56.5 108.5t-99 81.5t-139 31q-132 0 -212.5 -98t-80.5 -258
q0 -163 80.5 -262t212.5 -99z" />
    <glyph glyph-name="gdotaccent.ss02" horiz-adv-x="1228" 
d="M604 1210q-57 0 -92 34t-35 89q0 56 35 90.5t92 34.5t92 -34.5t35 -90.5q0 -55 -35 -89t-92 -34zM889 1004h170v-977q0 -98 -30 -176t-93.5 -137.5t-170.5 -91.5t-253 -32q-159 0 -332 17v153q160 -16 330 -16q108 0 182.5 21t114 61t56 88.5t16.5 112.5v133
q-98 -153 -326 -170q-208 0 -336.5 141.5t-128.5 372.5q0 228 129 369t336 141q227 0 328 -168zM565 143q77 0 139 31t99 81.5t56.5 108.5t19.5 117v41q0 59 -19.5 117t-56.5 108.5t-99 81.5t-139 31q-132 0 -212.5 -98t-80.5 -258q0 -163 80.5 -262t212.5 -99z" />
    <glyph glyph-name="j.ss02" horiz-adv-x="495" 
d="M385 1331q0 -53 -37 -88t-90 -35t-88 34.5t-35 88.5q0 53 35.5 88t87.5 35q53 0 90 -35.5t37 -87.5zM-20 -420q-53 0 -127 6v158q71 -6 116 -6q197 0 197 223v1043h180v-1043q0 -186 -101 -283.5t-265 -97.5z" />
    <glyph glyph-name="uni0237.ss02" horiz-adv-x="495" 
d="M-20 -420q-53 0 -127 6v158q71 -6 116 -6q197 0 197 223v1043h180v-1043q0 -186 -101 -283.5t-265 -97.5z" />
    <glyph glyph-name="jcircumflex.ss02" horiz-adv-x="495" 
d="M-45 1157l195 328h200l195 -328h-154l-141 189l-141 -189h-154zM-20 -420q-53 0 -127 6v158q71 -6 116 -6q197 0 197 223v1043h180v-1043q0 -186 -101 -283.5t-265 -97.5z" />
    <glyph glyph-name="t.ss02" horiz-adv-x="759" 
d="M600 158q48 0 119 6v-158q-73 -6 -131 -6q-391 0 -391 381v467h-152v156h162v299h170v-299h325v-152h-325v-471q0 -116 48 -169.5t175 -53.5z" />
    <glyph glyph-name="tbar.ss02" horiz-adv-x="759" 
d="M600 158q48 0 119 6v-158q-73 -6 -131 -6q-391 0 -391 381v123h-123v131h123v213h-152v156h162v299h170v-299h325v-152h-325v-217h301v-131h-301v-123q0 -116 48 -169.5t175 -53.5z" />
    <glyph glyph-name="tcaron.ss02" horiz-adv-x="759" 
d="M612 1286q-57 0 -92 34.5t-35 88.5q0 55 35.5 87t85.5 32q54 0 89.5 -42t35.5 -130q0 -126 -72 -200t-157 -71v93q43 0 76.5 30t33.5 78zM377 381q0 -116 48 -169.5t175 -53.5q48 0 119 6v-158q-73 -6 -131 -6q-391 0 -391 381v467h-152v156h162v299h170v-299h325v-152
h-325v-471z" />
    <glyph glyph-name="uni0163.ss02" horiz-adv-x="759" 
d="M588 0q-26 0 -72 4l-18 -86q69 -4 116.5 -40.5t47.5 -115.5q0 -85 -61.5 -134.5t-174.5 -49.5q-67 0 -129 23l29 120q50 -18 106 -18q98 0 98 55q0 64 -165 64l45 205q-213 73 -213 354v467h-152v156h162v299h170v-299h325v-152h-325v-471q0 -116 48 -169.5t175 -53.5
q48 0 119 6v-158q-73 -6 -131 -6z" />
    <glyph glyph-name="uni021B.ss02" horiz-adv-x="759" 
d="M600 158q48 0 119 6v-158q-73 -6 -131 -6q-391 0 -391 381v467h-152v156h162v299h170v-299h325v-152h-325v-471q0 -116 48 -169.5t175 -53.5zM485 -84q125 0 125 -168q0 -142 -72.5 -228t-156.5 -81v92q42 0 75 40t33 103q-55 0 -89.5 34.5t-34.5 88.5q0 55 35 87t85 32z
" />
    <glyph glyph-name="y.ss02" horiz-adv-x="1130" 
d="M801 1004h180v-977q0 -200 -117.5 -318.5t-355.5 -118.5q-159 0 -332 17v153q160 -16 330 -16q299 0 299 283v123q-48 -73 -127.5 -116.5t-183.5 -43.5q-164 0 -259.5 96.5t-95.5 261.5v656h183v-629q0 -111 58.5 -171.5t166.5 -60.5q111 0 182.5 74.5t71.5 202.5v584z
" />
    <glyph glyph-name="yacute.ss02" horiz-adv-x="1130" 
d="M805 1485l-187 -328h-147l107 328h227zM801 1004h180v-977q0 -200 -117.5 -318.5t-355.5 -118.5q-159 0 -332 17v153q160 -16 330 -16q299 0 299 283v123q-48 -73 -127.5 -116.5t-183.5 -43.5q-164 0 -259.5 96.5t-95.5 261.5v656h183v-629q0 -111 58.5 -171.5
t166.5 -60.5q111 0 182.5 74.5t71.5 202.5v584z" />
    <glyph glyph-name="ycircumflex.ss02" horiz-adv-x="1130" 
d="M565 1346l-141 -189h-154l195 328h201l194 -328h-153zM801 1004h180v-977q0 -200 -117.5 -318.5t-355.5 -118.5q-159 0 -332 17v153q160 -16 330 -16q299 0 299 283v123q-48 -73 -127.5 -116.5t-183.5 -43.5q-164 0 -259.5 96.5t-95.5 261.5v656h183v-629
q0 -111 58.5 -171.5t166.5 -60.5q111 0 182.5 74.5t71.5 202.5v584z" />
    <glyph glyph-name="ydieresis.ss02" horiz-adv-x="1130" 
d="M379 1223q-51 0 -82 30t-31 78q0 50 31 80.5t82 30.5t82 -30.5t31 -80.5q0 -48 -31 -78t-82 -30zM756 1223q-51 0 -82 30t-31 78q0 50 31 80.5t82 30.5t81.5 -30.5t30.5 -80.5q0 -48 -30.5 -78t-81.5 -30zM801 1004h180v-977q0 -200 -117.5 -318.5t-355.5 -118.5
q-159 0 -332 17v153q160 -16 330 -16q299 0 299 283v123q-48 -73 -127.5 -116.5t-183.5 -43.5q-164 0 -259.5 96.5t-95.5 261.5v656h183v-629q0 -111 58.5 -171.5t166.5 -60.5q111 0 182.5 74.5t71.5 202.5v584z" />
    <glyph glyph-name="ygrave.ss02" horiz-adv-x="1130" 
d="M657 1157h-147l-186 328h227zM801 1004h180v-977q0 -200 -117.5 -318.5t-355.5 -118.5q-159 0 -332 17v153q160 -16 330 -16q299 0 299 283v123q-48 -73 -127.5 -116.5t-183.5 -43.5q-164 0 -259.5 96.5t-95.5 261.5v656h183v-629q0 -111 58.5 -171.5t166.5 -60.5
q111 0 182.5 74.5t71.5 202.5v584z" />
    <glyph glyph-name="uni0233.ss02" horiz-adv-x="1130" 
d="M856 1397v-135h-563v135h563zM801 1004h180v-977q0 -200 -117.5 -318.5t-355.5 -118.5q-159 0 -332 17v153q160 -16 330 -16q299 0 299 283v123q-48 -73 -127.5 -116.5t-183.5 -43.5q-164 0 -259.5 96.5t-95.5 261.5v656h183v-629q0 -111 58.5 -171.5t166.5 -60.5
q111 0 182.5 74.5t71.5 202.5v584z" />
    <glyph glyph-name="uni1EF9.ss02" horiz-adv-x="1130" 
d="M436 1294q-37 0 -56.5 -24t-19.5 -64h-135q0 232 195 232q50 0 90 -15t62 -33.5t50 -33.5t56 -15q35 0 55.5 24t20.5 65h133q0 -111 -51.5 -171.5t-143.5 -60.5q-48 0 -87.5 15t-61.5 33t-50.5 33t-56.5 15zM801 1004h180v-977q0 -200 -117.5 -318.5t-355.5 -118.5
q-159 0 -332 17v153q160 -16 330 -16q299 0 299 283v123q-48 -73 -127.5 -116.5t-183.5 -43.5q-164 0 -259.5 96.5t-95.5 261.5v656h183v-629q0 -111 58.5 -171.5t166.5 -60.5q111 0 182.5 74.5t71.5 202.5v584z" />
    <glyph glyph-name="y.ss03" horiz-adv-x="1130" 
d="M801 1004h180v-963q0 -105 -28.5 -189.5t-88 -148.5t-158 -98.5t-231.5 -34.5q-169 0 -317 63v166q166 -75 323 -75q324 0 324 317v109q-48 -73 -127.5 -116.5t-183.5 -43.5q-164 0 -259.5 96.5t-95.5 261.5v656h183v-629q0 -111 58.5 -171.5t166.5 -60.5
q111 0 182.5 74.5t71.5 202.5v584z" />
    <glyph glyph-name="yacute.ss03" horiz-adv-x="1130" 
d="M805 1485l-187 -328h-147l107 328h227zM801 1004h180v-963q0 -105 -28.5 -189.5t-88 -148.5t-158 -98.5t-231.5 -34.5q-169 0 -317 63v166q166 -75 323 -75q324 0 324 317v109q-48 -73 -127.5 -116.5t-183.5 -43.5q-164 0 -259.5 96.5t-95.5 261.5v656h183v-629
q0 -111 58.5 -171.5t166.5 -60.5q111 0 182.5 74.5t71.5 202.5v584z" />
    <glyph glyph-name="ycircumflex.ss03" horiz-adv-x="1130" 
d="M565 1346l-141 -189h-154l195 328h201l194 -328h-153zM801 1004h180v-963q0 -105 -28.5 -189.5t-88 -148.5t-158 -98.5t-231.5 -34.5q-169 0 -317 63v166q166 -75 323 -75q324 0 324 317v109q-48 -73 -127.5 -116.5t-183.5 -43.5q-164 0 -259.5 96.5t-95.5 261.5v656h183
v-629q0 -111 58.5 -171.5t166.5 -60.5q111 0 182.5 74.5t71.5 202.5v584z" />
    <glyph glyph-name="ydieresis.ss03" horiz-adv-x="1130" 
d="M379 1223q-51 0 -82 30t-31 78q0 50 31 80.5t82 30.5t82 -30.5t31 -80.5q0 -48 -31 -78t-82 -30zM756 1223q-51 0 -82 30t-31 78q0 50 31 80.5t82 30.5t81.5 -30.5t30.5 -80.5q0 -48 -30.5 -78t-81.5 -30zM801 1004h180v-963q0 -105 -28.5 -189.5t-88 -148.5t-158 -98.5
t-231.5 -34.5q-169 0 -317 63v166q166 -75 323 -75q324 0 324 317v109q-48 -73 -127.5 -116.5t-183.5 -43.5q-164 0 -259.5 96.5t-95.5 261.5v656h183v-629q0 -111 58.5 -171.5t166.5 -60.5q111 0 182.5 74.5t71.5 202.5v584z" />
    <glyph glyph-name="ygrave.ss03" horiz-adv-x="1130" 
d="M657 1157h-147l-186 328h227zM801 1004h180v-963q0 -105 -28.5 -189.5t-88 -148.5t-158 -98.5t-231.5 -34.5q-169 0 -317 63v166q166 -75 323 -75q324 0 324 317v109q-48 -73 -127.5 -116.5t-183.5 -43.5q-164 0 -259.5 96.5t-95.5 261.5v656h183v-629
q0 -111 58.5 -171.5t166.5 -60.5q111 0 182.5 74.5t71.5 202.5v584z" />
    <glyph glyph-name="uni0233.ss03" horiz-adv-x="1130" 
d="M856 1397v-135h-563v135h563zM801 1004h180v-963q0 -105 -28.5 -189.5t-88 -148.5t-158 -98.5t-231.5 -34.5q-169 0 -317 63v166q166 -75 323 -75q324 0 324 317v109q-48 -73 -127.5 -116.5t-183.5 -43.5q-164 0 -259.5 96.5t-95.5 261.5v656h183v-629
q0 -111 58.5 -171.5t166.5 -60.5q111 0 182.5 74.5t71.5 202.5v584z" />
    <glyph glyph-name="uni1EF9.ss03" horiz-adv-x="1130" 
d="M436 1294q-37 0 -56.5 -24t-19.5 -64h-135q0 232 195 232q50 0 90 -15t62 -33.5t50 -33.5t56 -15q35 0 55.5 24t20.5 65h133q0 -111 -51.5 -171.5t-143.5 -60.5q-48 0 -87.5 15t-61.5 33t-50.5 33t-56.5 15zM801 1004h180v-963q0 -105 -28.5 -189.5t-88 -148.5
t-158 -98.5t-231.5 -34.5q-169 0 -317 63v166q166 -75 323 -75q324 0 324 317v109q-48 -73 -127.5 -116.5t-183.5 -43.5q-164 0 -259.5 96.5t-95.5 261.5v656h183v-629q0 -111 58.5 -171.5t166.5 -60.5q111 0 182.5 74.5t71.5 202.5v584z" />
    <glyph glyph-name="a.sc" horiz-adv-x="1138" 
d="M928 0l-99 244h-520l-98 -244h-182l436 1053h209l436 -1053h-182zM371 393h397l-199 488z" />
    <glyph glyph-name="aacute.sc" horiz-adv-x="1138" 
d="M825 1534l-186 -328h-147l106 328h227zM928 0l-99 244h-520l-98 -244h-182l436 1053h209l436 -1053h-182zM371 393h397l-199 488z" />
    <glyph glyph-name="abreve.sc" horiz-adv-x="1138" 
d="M584 1200q-135 0 -210 86.5t-75 237.5h150q0 -187 133 -187t133 187h151q0 -150 -74.5 -237t-207.5 -87zM928 0l-99 244h-520l-98 -244h-182l436 1053h209l436 -1053h-182zM371 393h397l-199 488z" />
    <glyph glyph-name="acircumflex.sc" horiz-adv-x="1138" 
d="M584 1395l-142 -189h-153l194 328h201l195 -328h-154zM928 0l-99 244h-520l-98 -244h-182l436 1053h209l436 -1053h-182zM371 393h397l-199 488z" />
    <glyph glyph-name="adieresis.sc" horiz-adv-x="1138" 
d="M406 1272q-51 0 -82 30t-31 78q0 50 31 80.5t82 30.5t81.5 -30.5t30.5 -80.5q0 -48 -30.5 -78t-81.5 -30zM782 1272q-51 0 -81.5 30t-30.5 78q0 50 30.5 80.5t81.5 30.5t82 -30.5t31 -80.5q0 -48 -31 -78t-82 -30zM928 0l-99 244h-520l-98 -244h-182l436 1053h209
l436 -1053h-182zM371 393h397l-199 488z" />
    <glyph glyph-name="uni1EA1.sc" horiz-adv-x="1138" 
d="M1110 0h-182l-99 244h-520l-98 -244h-182l436 1053h209zM371 393h397l-199 488zM569 -131q57 0 92 -34t35 -89t-35 -89t-92 -34t-92 34t-35 89t35 89t92 34z" />
    <glyph glyph-name="agrave.sc" horiz-adv-x="1138" 
d="M676 1206h-148l-186 328h227zM928 0l-99 244h-520l-98 -244h-182l436 1053h209l436 -1053h-182zM371 393h397l-199 488z" />
    <glyph glyph-name="amacron.sc" horiz-adv-x="1138" 
d="M866 1446v-135h-563v135h563zM928 0l-99 244h-520l-98 -244h-182l436 1053h209l436 -1053h-182zM371 393h397l-199 488z" />
    <glyph glyph-name="aogonek.sc" horiz-adv-x="1138" 
d="M1151 -262l51 -103q-62 -59 -176 -59q-99 0 -155 52t-56 141q0 126 125 231h-12l-99 244h-520l-98 -244h-182l436 1053h209l436 -1053q-6 -4 -16.5 -10.5t-37.5 -28t-47.5 -44.5t-37.5 -58t-17 -70q0 -43 23 -65.5t63 -22.5q64 0 111 37zM371 393h397l-199 488z" />
    <glyph glyph-name="aring.sc" horiz-adv-x="1138" 
d="M584 1182q-82 0 -139.5 51t-57.5 135q0 86 57 138.5t140 52.5q82 0 139 -52t57 -139q0 -84 -57 -135t-139 -51zM584 1442q-35 0 -55.5 -20.5t-20.5 -53.5q0 -32 21 -53t55 -21q35 0 56.5 21.5t21.5 52.5q0 33 -21.5 53.5t-56.5 20.5zM928 0l-99 244h-520l-98 -244h-182
l436 1053h209l436 -1053h-182zM371 393h397l-199 488z" />
    <glyph glyph-name="aringacute.sc" horiz-adv-x="1138" 
d="M584 1182q-82 0 -139.5 51t-57.5 135q0 86 57 138.5t140 52.5q96 0 153 -66l99 184h182l-238 -325q-6 -76 -62.5 -123t-133.5 -47zM584 1442q-35 0 -55.5 -20.5t-20.5 -53.5q0 -32 21 -53t55 -21q35 0 56.5 21.5t21.5 52.5q0 33 -21.5 53.5t-56.5 20.5zM928 0l-99 244
h-520l-98 -244h-182l436 1053h209l436 -1053h-182zM371 393h397l-199 488z" />
    <glyph glyph-name="atilde.sc" horiz-adv-x="1138" 
d="M444 1343q-37 0 -56 -24t-19 -64h-136q0 232 195 232q50 0 90 -15t62 -33t50 -33t56 -15q35 0 55.5 23.5t20.5 64.5h133q0 -111 -51.5 -171.5t-143.5 -60.5q-48 0 -87.5 15t-61.5 33t-50.5 33t-56.5 15zM928 0l-99 244h-520l-98 -244h-182l436 1053h209l436 -1053h-182z
M371 393h397l-199 488z" />
    <glyph glyph-name="ae.sc" horiz-adv-x="1605" 
d="M946 160h563v-160h-741v244h-422l-158 -244h-192l666 1053h839v-158h-555v-277h500v-153h-500v-305zM442 393h326v500h-2z" />
    <glyph glyph-name="aeacute.sc" horiz-adv-x="1605" 
d="M1040 1534l-186 -328h-147l106 328h227zM946 160h563v-160h-741v244h-422l-158 -244h-192l666 1053h839v-158h-555v-277h500v-153h-500v-305zM442 393h326v500h-2z" />
    <glyph glyph-name="b.sc" horiz-adv-x="1112" 
d="M813 551q87 -21 147 -87.5t60 -174.5q0 -130 -95.5 -209.5t-252.5 -79.5h-510v1053h497q149 0 234.5 -73.5t85.5 -188.5q0 -52 -17 -95.5t-44 -71.5t-53.5 -44.5t-51.5 -24.5v-4zM797 760q0 71 -50 109t-139 38h-268v-299h268q93 0 141 41t48 111zM639 145q93 0 147 42
t54 122t-56 122t-155 42h-289v-328h299z" />
    <glyph glyph-name="c.sc" horiz-adv-x="1226" 
d="M637 150q154 0 235 63.5t97 169.5h182q-23 -178 -152.5 -285.5t-363.5 -107.5q-240 0 -392.5 149.5t-152.5 388.5q0 237 154 387t391 150q231 0 363 -108.5t153 -286.5h-182q-16 106 -98.5 170.5t-233.5 64.5q-157 0 -261 -105t-104 -274t103.5 -272.5t261.5 -103.5z" />
    <glyph glyph-name="cacute.sc" horiz-adv-x="1226" 
d="M688 1206h-147l106 328h227zM637 150q154 0 235 63.5t97 169.5h182q-23 -178 -152.5 -285.5t-363.5 -107.5q-240 0 -392.5 149.5t-152.5 388.5q0 237 154 387t391 150q231 0 363 -108.5t153 -286.5h-182q-16 106 -98.5 170.5t-233.5 64.5q-157 0 -261 -105t-104 -274
t103.5 -272.5t261.5 -103.5z" />
    <glyph glyph-name="ccaron.sc" horiz-adv-x="1226" 
d="M338 1534h154l141 -188l143 188h154l-195 -328h-200zM637 150q154 0 235 63.5t97 169.5h182q-23 -178 -152.5 -285.5t-363.5 -107.5q-240 0 -392.5 149.5t-152.5 388.5q0 237 154 387t391 150q231 0 363 -108.5t153 -286.5h-182q-16 106 -98.5 170.5t-233.5 64.5
q-157 0 -261 -105t-104 -274t103.5 -272.5t261.5 -103.5z" />
    <glyph glyph-name="ccedilla.sc" horiz-adv-x="1226" 
d="M637 150q154 0 235 63.5t97 169.5h182q-23 -172 -144 -278t-339 -115l-15 -70q69 -4 116.5 -40.5t47.5 -115.5q0 -85 -61 -134.5t-174 -49.5q-67 0 -129 23l28 121q52 -19 107 -19q98 0 98 55q0 64 -166 64l37 170q-210 25 -338.5 170t-128.5 364q0 237 154 387t391 150
q231 0 363 -108.5t153 -286.5h-182q-16 106 -98.5 170.5t-233.5 64.5q-157 0 -261 -105t-104 -274t103.5 -272.5t261.5 -103.5z" />
    <glyph glyph-name="ccircumflex.sc" horiz-adv-x="1226" 
d="M338 1206l194 328h201l195 -328h-154l-141 189l-141 -189h-154zM637 150q154 0 235 63.5t97 169.5h182q-23 -178 -152.5 -285.5t-363.5 -107.5q-240 0 -392.5 149.5t-152.5 388.5q0 237 154 387t391 150q231 0 363 -108.5t153 -286.5h-182q-16 106 -98.5 170.5
t-233.5 64.5q-157 0 -261 -105t-104 -274t103.5 -272.5t261.5 -103.5z" />
    <glyph glyph-name="cdotaccent.sc" horiz-adv-x="1226" 
d="M633 1507q57 0 92 -34.5t35 -90.5q0 -55 -35 -88.5t-92 -33.5t-92 33.5t-35 88.5q0 56 35 90.5t92 34.5zM637 150q154 0 235 63.5t97 169.5h182q-23 -178 -152.5 -285.5t-363.5 -107.5q-240 0 -392.5 149.5t-152.5 388.5q0 237 154 387t391 150q231 0 363 -108.5
t153 -286.5h-182q-16 106 -98.5 170.5t-233.5 64.5q-157 0 -261 -105t-104 -274t103.5 -272.5t261.5 -103.5z" />
    <glyph glyph-name="d.sc" horiz-adv-x="1263" 
d="M606 1053q256 0 412 -141t156 -386t-156 -385.5t-412 -140.5h-444v1053h444zM606 152q174 0 279.5 98t105.5 276q0 179 -105 277t-280 98h-264v-749h264z" />
    <glyph glyph-name="eth.sc" horiz-adv-x="1284" 
d="M627 1053q256 0 411.5 -140.5t155.5 -386.5q0 -245 -155.5 -385.5t-411.5 -140.5h-445v465h-141v131h141v457h445zM627 152q174 0 279.5 98t105.5 276q0 179 -105 277t-280 98h-265v-305h283v-131h-283v-313h265z" />
    <glyph glyph-name="dcaron.sc" horiz-adv-x="1263" 
d="M694 1206h-200l-197 328h154l141 -188l143 188h154zM606 1053q256 0 412 -141t156 -386t-156 -385.5t-412 -140.5h-444v1053h444zM606 152q174 0 279.5 98t105.5 276q0 179 -105 277t-280 98h-264v-749h264z" />
    <glyph glyph-name="dcroat.sc" horiz-adv-x="1284" 
d="M627 1053q256 0 411.5 -140.5t155.5 -386.5q0 -245 -155.5 -385.5t-411.5 -140.5h-445v465h-141v131h141v457h445zM627 152q174 0 279.5 98t105.5 276q0 179 -105 277t-280 98h-265v-305h283v-131h-283v-313h265z" />
    <glyph glyph-name="e.sc" horiz-adv-x="1073" 
d="M342 154h635v-154h-815v1053h807v-154h-627v-281h567v-151h-567v-313z" />
    <glyph glyph-name="eacute.sc" horiz-adv-x="1073" 
d="M817 1534l-186 -328h-148l107 328h227zM342 154h635v-154h-815v1053h807v-154h-627v-281h567v-151h-567v-313z" />
    <glyph glyph-name="ebreve.sc" horiz-adv-x="1073" 
d="M575 1200q-135 0 -209.5 86.5t-74.5 237.5h149q0 -187 133 -187q134 0 134 187h151q0 -149 -74.5 -236.5t-208.5 -87.5zM342 154h635v-154h-815v1053h807v-154h-627v-281h567v-151h-567v-313z" />
    <glyph glyph-name="ecaron.sc" horiz-adv-x="1073" 
d="M678 1206h-201l-196 328h153l141 -188l144 188h153zM342 154h635v-154h-815v1053h807v-154h-627v-281h567v-151h-567v-313z" />
    <glyph glyph-name="ecircumflex.sc" horiz-adv-x="1073" 
d="M575 1395l-141 -189h-153l194 328h201l194 -328h-153zM342 154h635v-154h-815v1053h807v-154h-627v-281h567v-151h-567v-313z" />
    <glyph glyph-name="edieresis.sc" horiz-adv-x="1073" 
d="M399 1272q-51 0 -81.5 30t-30.5 78q0 50 30.5 80.5t81.5 30.5t82 -30.5t31 -80.5q0 -48 -31 -78t-82 -30zM776 1272q-51 0 -81.5 30t-30.5 78q0 50 30.5 80.5t81.5 30.5t82 -30.5t31 -80.5q0 -48 -31 -78t-82 -30zM342 154h635v-154h-815v1053h807v-154h-627v-281h567
v-151h-567v-313z" />
    <glyph glyph-name="edotaccent.sc" horiz-adv-x="1073" 
d="M575 1260q-57 0 -91.5 33.5t-34.5 88.5q0 56 34.5 90.5t91.5 34.5t92 -34.5t35 -90.5q0 -55 -35 -88.5t-92 -33.5zM342 154h635v-154h-815v1053h807v-154h-627v-281h567v-151h-567v-313z" />
    <glyph glyph-name="uni1EB9.sc" horiz-adv-x="1073" 
d="M342 154h635v-154h-815v1053h807v-154h-627v-281h567v-151h-567v-313zM582 -131q57 0 92 -34t35 -89t-35 -89t-92 -34t-92 34t-35 89t35 89t92 34z" />
    <glyph glyph-name="egrave.sc" horiz-adv-x="1073" 
d="M668 1206h-148l-186 328h227zM342 154h635v-154h-815v1053h807v-154h-627v-281h567v-151h-567v-313z" />
    <glyph glyph-name="emacron.sc" horiz-adv-x="1073" 
d="M858 1446v-135h-563v135h563zM342 154h635v-154h-815v1053h807v-154h-627v-281h567v-151h-567v-313z" />
    <glyph glyph-name="eogonek.sc" horiz-adv-x="1073" 
d="M1018 -262l51 -103q-62 -59 -176 -59q-99 0 -155 52t-56 141q0 126 125 231h-645v1053h807v-154h-627v-281h567v-151h-567v-313h635v-154q-6 -4 -16.5 -10.5t-37.5 -28t-47.5 -44.5t-37.5 -58t-17 -70q0 -43 23 -65.5t63 -22.5q64 0 111 37z" />
    <glyph glyph-name="uni1EBD.sc" horiz-adv-x="1073" 
d="M436 1343q-37 0 -56.5 -24t-19.5 -64h-135q0 232 195 232q50 0 90 -15t62 -33t50 -33t56 -15q35 0 55.5 23.5t20.5 64.5h133q0 -111 -51.5 -171.5t-143.5 -60.5q-48 0 -87.5 15t-61.5 33t-50.5 33t-56.5 15zM342 154h635v-154h-815v1053h807v-154h-627v-281h567v-151
h-567v-313z" />
    <glyph glyph-name="uni0259.sc" horiz-adv-x="1226" 
d="M608 1063q234 0 380.5 -150.5t146.5 -382.5q0 -119 -40.5 -220.5t-110.5 -170.5t-166 -108t-204 -39q-269 0 -399.5 141.5t-130.5 403.5v24h866q-7 108 -60.5 188.5t-127 118t-152.5 37.5q-130 0 -210.5 -54t-104.5 -134h-184q33 151 160.5 248.5t336.5 97.5zM614 150
q108 0 201.5 71t124.5 197h-670q45 -268 344 -268z" />
    <glyph glyph-name="f.sc" horiz-adv-x="1007" 
d="M944 903h-602v-323h526v-150h-526v-430h-180v1053h782v-150z" />
    <glyph glyph-name="g.sc" horiz-adv-x="1267" 
d="M655 551h504v-551h-135v168q-120 -178 -385 -178q-243 0 -396 150.5t-153 391.5q0 238 154 385.5t407 147.5q225 0 353 -102.5t149 -268.5h-182q-17 92 -95 151.5t-223 59.5q-171 0 -276 -102.5t-105 -270.5q0 -171 105 -276.5t268 -105.5q158 0 252 77.5t104 180.5h-346
v143z" />
    <glyph glyph-name="gbreve.sc" horiz-adv-x="1267" 
d="M651 1217q-135 0 -209.5 86t-74.5 237h149q0 -186 133 -186t133 186h152q0 -149 -74.5 -236t-208.5 -87zM655 551h504v-551h-135v168q-120 -178 -385 -178q-243 0 -396 150.5t-153 391.5q0 238 154 385.5t407 147.5q225 0 353 -102.5t149 -268.5h-182q-17 92 -95 151.5
t-223 59.5q-171 0 -276 -102.5t-105 -270.5q0 -171 105 -276.5t268 -105.5q158 0 252 77.5t104 180.5h-346v143z" />
    <glyph glyph-name="gcaron.sc" horiz-adv-x="1267" 
d="M754 1223h-201l-197 327h154l141 -188l144 188h153zM655 551h504v-551h-135v168q-120 -178 -385 -178q-243 0 -396 150.5t-153 391.5q0 238 154 385.5t407 147.5q225 0 353 -102.5t149 -268.5h-182q-17 92 -95 151.5t-223 59.5q-171 0 -276 -102.5t-105 -270.5
q0 -171 105 -276.5t268 -105.5q158 0 252 77.5t104 180.5h-346v143z" />
    <glyph glyph-name="gcircumflex.sc" horiz-adv-x="1267" 
d="M651 1411l-141 -188h-154l195 327h201l194 -327h-153zM655 551h504v-551h-135v168q-120 -178 -385 -178q-243 0 -396 150.5t-153 391.5q0 238 154 385.5t407 147.5q225 0 353 -102.5t149 -268.5h-182q-17 92 -95 151.5t-223 59.5q-171 0 -276 -102.5t-105 -270.5
q0 -171 105 -276.5t268 -105.5q158 0 252 77.5t104 180.5h-346v143z" />
    <glyph glyph-name="gcommaaccent.sc" horiz-adv-x="1267" 
d="M655 551h504v-551h-135v168q-120 -178 -385 -178q-243 0 -396 150.5t-153 391.5q0 238 154 385.5t407 147.5q225 0 353 -102.5t149 -268.5h-182q-17 92 -95 151.5t-223 59.5q-171 0 -276 -102.5t-105 -270.5q0 -171 105 -276.5t268 -105.5q158 0 252 77.5t104 180.5h-346
v143zM645 -84q125 0 125 -168q0 -142 -72.5 -228t-156.5 -81v92q42 0 75 40t33 103q-55 0 -90 34.5t-35 88.5q0 55 35.5 87t85.5 32z" />
    <glyph glyph-name="gdotaccent.sc" horiz-adv-x="1267" 
d="M651 1276q-57 0 -92 34t-35 89q0 56 35 90.5t92 34.5t92 -34.5t35 -90.5q0 -55 -35 -89t-92 -34zM655 551h504v-551h-135v168q-120 -178 -385 -178q-243 0 -396 150.5t-153 391.5q0 238 154 385.5t407 147.5q225 0 353 -102.5t149 -268.5h-182q-17 92 -95 151.5
t-223 59.5q-171 0 -276 -102.5t-105 -270.5q0 -171 105 -276.5t268 -105.5q158 0 252 77.5t104 180.5h-346v143z" />
    <glyph glyph-name="h.sc" horiz-adv-x="1286" 
d="M942 1053h180v-1053h-180v461h-600v-461h-180v1053h180v-432h600v432z" />
    <glyph glyph-name="hbar.sc" horiz-adv-x="1298" 
d="M1231 926v-152h-103v-774h-180v461h-600v-461h-180v774h-105v152h105v127h180v-127h600v127h180v-127h103zM948 621v153h-600v-153h600z" />
    <glyph glyph-name="hcircumflex.sc" horiz-adv-x="1286" 
d="M643 1395l-141 -189h-154l195 328h200l195 -328h-154zM942 1053h180v-1053h-180v461h-600v-461h-180v1053h180v-432h600v432z" />
    <glyph glyph-name="i.sc" horiz-adv-x="503" 
d="M162 0v1053h180v-1053h-180z" />
    <glyph glyph-name="iacute.sc" horiz-adv-x="503" 
d="M307 1206h-147l106 328h228zM162 0v1053h180v-1053h-180z" />
    <glyph glyph-name="ibreve.sc" horiz-adv-x="503" 
d="M535 1524q0 -149 -74.5 -236.5t-208.5 -87.5q-135 0 -210 86.5t-75 237.5h150q0 -187 133 -187t133 187h152zM162 0v1053h180v-1053h-180z" />
    <glyph glyph-name="icircumflex.sc" horiz-adv-x="503" 
d="M-43 1206l195 328h200l195 -328h-154l-141 189l-141 -189h-154zM162 0v1053h180v-1053h-180z" />
    <glyph glyph-name="idieresis.sc" horiz-adv-x="503" 
d="M76 1491q51 0 81.5 -30.5t30.5 -80.5q0 -48 -30.5 -78t-81.5 -30t-82 30t-31 78q0 50 31 80.5t82 30.5zM453 1491q51 0 81.5 -30.5t30.5 -80.5q0 -48 -30.5 -78t-81.5 -30t-82 30t-31 78q0 50 31 80.5t82 30.5zM162 0v1053h180v-1053h-180z" />
    <glyph glyph-name="i.sc.loclTRK" horiz-adv-x="503" 
d="M252 1507q57 0 92 -34.5t35 -90.5q0 -55 -35 -88.5t-92 -33.5t-92 33.5t-35 88.5q0 56 35 90.5t92 34.5zM162 0v1053h180v-1053h-180z" />
    <glyph glyph-name="uni1ECB.sc" horiz-adv-x="503" 
d="M162 0v1053h180v-1053h-180zM252 -131q57 0 92 -34t35 -89t-35 -89t-92 -34t-92 34t-35 89t35 89t92 34z" />
    <glyph glyph-name="igrave.sc" horiz-adv-x="503" 
d="M197 1206l-187 328h228l106 -328h-147zM162 0v1053h180v-1053h-180z" />
    <glyph glyph-name="ij.sc" horiz-adv-x="1449" 
d="M162 0v1053h180v-1053h-180zM735 338q1 -96 54.5 -141t138.5 -45q87 0 136.5 46t49.5 140v715h182v-715q0 -161 -95 -252.5t-275 -91.5q-179 0 -274 91t-95 253h178z" />
    <glyph glyph-name="imacron.sc" horiz-adv-x="503" 
d="M-29 1311v135h564v-135h-564zM162 0v1053h180v-1053h-180z" />
    <glyph glyph-name="iogonek.sc" horiz-adv-x="503" 
d="M383 -262l51 -103q-62 -59 -176 -59q-99 0 -155 52t-56 141q0 126 125 231h-10v1053h180v-1053q-6 -4 -16.5 -10.5t-37.5 -28t-47.5 -44.5t-37.5 -58t-17 -70q0 -43 23 -65.5t63 -22.5q64 0 111 37z" />
    <glyph glyph-name="itilde.sc" horiz-adv-x="503" 
d="M113 1343q-37 0 -56.5 -24t-19.5 -64h-135q0 232 194 232q50 0 90 -15t62 -33t50 -33t56 -15q35 0 55.5 23.5t20.5 64.5h133q0 -112 -51 -172t-143 -60q-48 0 -87.5 15t-61.5 33t-50.5 33t-56.5 15zM162 0v1053h180v-1053h-180z" />
    <glyph glyph-name="j.sc" horiz-adv-x="935" 
d="M221 338q1 -96 54.5 -141t138.5 -45q87 0 136.5 46t49.5 140v715h182v-715q0 -161 -95 -252.5t-275 -91.5q-179 0 -274 91t-95 253h178z" />
    <glyph glyph-name="jcircumflex.sc" horiz-adv-x="935" 
d="M391 1206l195 328h200l195 -328h-154l-141 189l-141 -189h-154zM221 338q1 -96 54.5 -141t138.5 -45q87 0 136.5 46t49.5 140v715h182v-715q0 -161 -95 -252.5t-275 -91.5q-179 0 -274 91t-95 253h178z" />
    <glyph glyph-name="k.sc" horiz-adv-x="1157" 
d="M938 0l-399 473l-197 -194v-279h-180v1053h180v-561l557 561h219l-448 -459l485 -594h-217z" />
    <glyph glyph-name="kcommaaccent.sc" horiz-adv-x="1157" 
d="M670 594l485 -594h-217l-399 473l-197 -194v-279h-180v1053h180v-561l557 561h219zM598 -84q125 0 125 -168q0 -142 -72.5 -228t-156.5 -81v92q42 0 75 40t33 103q-55 0 -90 34.5t-35 88.5q0 55 35.5 87t85.5 32z" />
    <glyph glyph-name="l.sc" horiz-adv-x="995" 
d="M342 160h619v-160h-799v1053h180v-893z" />
    <glyph glyph-name="lacute.sc" horiz-adv-x="995" 
d="M479 1534l-186 -328h-148l107 328h227zM342 160h619v-160h-799v1053h180v-893z" />
    <glyph glyph-name="lcaron.sc" horiz-adv-x="1001" 
d="M748 842q-57 0 -92 34.5t-35 88.5q0 55 35 86.5t85 31.5q125 0 125 -168q0 -141 -72.5 -227.5t-156.5 -83.5v92q42 0 76.5 41.5t34.5 104.5zM342 160h619v-160h-799v1053h180v-893z" />
    <glyph glyph-name="lcommaaccent.sc" horiz-adv-x="995" 
d="M342 160h619v-160h-799v1053h180v-893zM582 -84q125 0 125 -168q0 -141 -73 -227.5t-157 -81.5v92q42 0 75.5 40t33.5 103q-55 0 -90 34.5t-35 88.5q0 55 35.5 87t85.5 32z" />
    <glyph glyph-name="ldot.sc" horiz-adv-x="1015" 
d="M342 160h619v-160h-799v1053h180v-893zM733 438q-57 0 -92 34t-35 89q0 56 35 90.5t92 34.5t92 -34.5t35 -90.5q0 -55 -35 -89t-92 -34z" />
    <glyph glyph-name="lslash.sc" horiz-adv-x="1060" 
d="M408 160h618v-160h-799v385l-129 -78l-65 119l194 119v508h181v-400l149 90l68 -118l-217 -131v-334z" />
    <glyph glyph-name="m.sc" horiz-adv-x="1492" 
d="M1063 1053h270l-2 -1053h-174v877l-338 -877h-145l-338 877v-877h-174l-2 1053h270l318 -844z" />
    <glyph glyph-name="n.sc" horiz-adv-x="1284" 
d="M940 1053h180v-1053h-180l-600 799v-799h-178v1053h178l600 -799v799z" />
    <glyph glyph-name="nacute.sc" horiz-adv-x="1284" 
d="M883 1534l-187 -328h-147l106 328h228zM940 1053h180v-1053h-180l-600 799v-799h-178v1053h178l600 -799v799z" />
    <glyph glyph-name="ncaron.sc" horiz-adv-x="1284" 
d="M743 1206h-200l-197 328h154l141 -188l143 188h154zM940 1053h180v-1053h-180l-600 799v-799h-178v1053h178l600 -799v799z" />
    <glyph glyph-name="ncommaaccent.sc" horiz-adv-x="1284" 
d="M940 1053h180v-1053h-180l-600 799v-799h-178v1053h178l600 -799v799zM645 -84q125 0 125 -168q0 -142 -72.5 -228t-156.5 -81v92q42 0 75 40t33 103q-55 0 -90 34.5t-35 88.5q0 55 35.5 87t85.5 32z" />
    <glyph glyph-name="eng.sc" horiz-adv-x="1280" 
d="M940 1053h178v-1086q0 -130 -80 -207t-215 -77q-79 0 -131 18l13 152q43 -15 81 -15q72 0 113 34t41 93v35l-600 799v-799h-178v1053h178l600 -799v799z" />
    <glyph glyph-name="uni0272.sc" horiz-adv-x="1280" 
d="M940 1053h178v-1053h-178l-600 799v-832q0 -130 -80 -207t-215 -77q-77 0 -133 18l14 152q41 -15 82 -15q71 0 112.5 34.5t41.5 92.5v1088h178l600 -799v799z" />
    <glyph glyph-name="ntilde.sc" horiz-adv-x="1284" 
d="M502 1343q-37 0 -56.5 -24t-19.5 -64h-135q0 232 194 232q50 0 90 -15t62 -33t50 -33t56 -15q35 0 55.5 23.5t20.5 64.5h133q0 -112 -51 -172t-143 -60q-48 0 -87.5 15t-61.5 33t-50.5 33t-56.5 15zM940 1053h180v-1053h-180l-600 799v-799h-178v1053h178l600 -799v799z
" />
    <glyph glyph-name="o.sc" horiz-adv-x="1316" 
d="M657 -10q-251 0 -409 145.5t-158 390.5q0 246 158 392.5t409 146.5t409.5 -146.5t158.5 -392.5q0 -245 -158.5 -390.5t-409.5 -145.5zM657 147q170 0 277.5 102t107.5 277q0 176 -107.5 277.5t-277.5 101.5t-277.5 -101.5t-107.5 -277.5q0 -175 107.5 -277t277.5 -102z
" />
    <glyph glyph-name="oacute.sc" horiz-adv-x="1316" 
d="M713 1223h-148l107 327h227zM657 -10q-251 0 -409 145.5t-158 390.5q0 246 158 392.5t409 146.5t409.5 -146.5t158.5 -392.5q0 -245 -158.5 -390.5t-409.5 -145.5zM657 147q170 0 277.5 102t107.5 277q0 176 -107.5 277.5t-277.5 101.5t-277.5 -101.5t-107.5 -277.5
q0 -175 107.5 -277t277.5 -102z" />
    <glyph glyph-name="obreve.sc" horiz-adv-x="1316" 
d="M940 1540q0 -149 -74.5 -236t-208.5 -87q-135 0 -209.5 86t-74.5 237h149q0 -186 133 -186t133 186h152zM657 -10q-251 0 -409 145.5t-158 390.5q0 246 158 392.5t409 146.5t409.5 -146.5t158.5 -392.5q0 -245 -158.5 -390.5t-409.5 -145.5zM657 147q170 0 277.5 102
t107.5 277q0 176 -107.5 277.5t-277.5 101.5t-277.5 -101.5t-107.5 -277.5q0 -175 107.5 -277t277.5 -102z" />
    <glyph glyph-name="ocircumflex.sc" horiz-adv-x="1316" 
d="M362 1223l195 327h201l194 -327h-153l-142 188l-141 -188h-154zM657 -10q-251 0 -409 145.5t-158 390.5q0 246 158 392.5t409 146.5t409.5 -146.5t158.5 -392.5q0 -245 -158.5 -390.5t-409.5 -145.5zM657 147q170 0 277.5 102t107.5 277q0 176 -107.5 277.5t-277.5 101.5
t-277.5 -101.5t-107.5 -277.5q0 -175 107.5 -277t277.5 -102z" />
    <glyph glyph-name="odieresis.sc" horiz-adv-x="1316" 
d="M479 1507q51 0 82 -30t31 -80q0 -48 -31 -78.5t-82 -30.5q-50 0 -81 30.5t-31 78.5q0 50 30.5 80t81.5 30zM856 1507q51 0 82 -30t31 -80q0 -48 -31 -78.5t-82 -30.5t-82 30.5t-31 78.5q0 50 31 80t82 30zM657 -10q-251 0 -409 145.5t-158 390.5q0 246 158 392.5
t409 146.5t409.5 -146.5t158.5 -392.5q0 -245 -158.5 -390.5t-409.5 -145.5zM657 147q170 0 277.5 102t107.5 277q0 176 -107.5 277.5t-277.5 101.5t-277.5 -101.5t-107.5 -277.5q0 -175 107.5 -277t277.5 -102z" />
    <glyph glyph-name="uni1ECD.sc" horiz-adv-x="1316" 
d="M657 -10q-251 0 -409 145.5t-158 390.5q0 246 158 392.5t409 146.5t409.5 -146.5t158.5 -392.5q0 -245 -158.5 -390.5t-409.5 -145.5zM657 147q170 0 277.5 102t107.5 277q0 176 -107.5 277.5t-277.5 101.5t-277.5 -101.5t-107.5 -277.5q0 -175 107.5 -277t277.5 -102z
M657 -131q57 0 92 -34t35 -89t-35 -89t-92 -34t-92 34t-35 89t35 89t92 34z" />
    <glyph glyph-name="ograve.sc" horiz-adv-x="1316" 
d="M602 1223l-186 327h227l107 -327h-148zM657 -10q-251 0 -409 145.5t-158 390.5q0 246 158 392.5t409 146.5t409.5 -146.5t158.5 -392.5q0 -245 -158.5 -390.5t-409.5 -145.5zM657 147q170 0 277.5 102t107.5 277q0 176 -107.5 277.5t-277.5 101.5t-277.5 -101.5
t-107.5 -277.5q0 -175 107.5 -277t277.5 -102z" />
    <glyph glyph-name="ohungarumlaut.sc" horiz-adv-x="1316" 
d="M541 1223h-142l86 327h242zM877 1223h-142l86 327h242zM657 -10q-251 0 -409 145.5t-158 390.5q0 246 158 392.5t409 146.5t409.5 -146.5t158.5 -392.5q0 -245 -158.5 -390.5t-409.5 -145.5zM657 147q170 0 277.5 102t107.5 277q0 176 -107.5 277.5t-277.5 101.5
t-277.5 -101.5t-107.5 -277.5q0 -175 107.5 -277t277.5 -102z" />
    <glyph glyph-name="omacron.sc" horiz-adv-x="1316" 
d="M377 1327v135h563v-135h-563zM657 -10q-251 0 -409 145.5t-158 390.5q0 246 158 392.5t409 146.5t409.5 -146.5t158.5 -392.5q0 -245 -158.5 -390.5t-409.5 -145.5zM657 147q170 0 277.5 102t107.5 277q0 176 -107.5 277.5t-277.5 101.5t-277.5 -101.5t-107.5 -277.5
q0 -175 107.5 -277t277.5 -102z" />
    <glyph glyph-name="uni01EB.sc" horiz-adv-x="1316" 
d="M809 6q-18 -11 -38 -26.5t-47 -42.5t-44.5 -63.5t-17.5 -74.5q0 -43 23 -65.5t63 -22.5q63 0 110 37l51 -102q-63 -60 -176 -60q-99 0 -155 52t-56 141q0 119 103 211q-238 11 -386.5 155.5t-148.5 380.5q0 246 158 392.5t409 146.5t409.5 -146.5t158.5 -392.5
q0 -205 -113 -342t-303 -178zM272 526q0 -175 107.5 -277t277.5 -102t277.5 102t107.5 277q0 176 -107.5 277.5t-277.5 101.5t-277.5 -101.5t-107.5 -277.5z" />
    <glyph glyph-name="oslash.sc" horiz-adv-x="1316" 
d="M1006 967q104 -71 161.5 -183.5t57.5 -257.5q0 -245 -158.5 -390.5t-409.5 -145.5q-124 0 -225 37l-72 -117h-157l108 176q-105 71 -163 183t-58 257q0 246 158 392.5t409 146.5q132 0 230 -39l69 113h154zM272 526q0 -188 127 -295l402 652q-71 22 -144 22
q-170 0 -277.5 -101.5t-107.5 -277.5zM657 147q170 0 277.5 102t107.5 277q0 190 -127 295l-397 -653q64 -21 139 -21z" />
    <glyph glyph-name="oslashacute.sc" horiz-adv-x="1316" 
d="M899 1550l-186 -327h-148l107 327h227zM1006 967q104 -71 161.5 -183.5t57.5 -257.5q0 -245 -158.5 -390.5t-409.5 -145.5q-124 0 -225 37l-72 -117h-157l108 176q-105 71 -163 183t-58 257q0 246 158 392.5t409 146.5q132 0 230 -39l69 113h154zM272 526
q0 -188 127 -295l402 652q-71 22 -144 22q-170 0 -277.5 -101.5t-107.5 -277.5zM657 147q170 0 277.5 102t107.5 277q0 190 -127 295l-397 -653q64 -21 139 -21z" />
    <glyph glyph-name="otilde.sc" horiz-adv-x="1316" 
d="M518 1360q-37 0 -56.5 -24t-19.5 -64h-135q0 231 195 231q50 0 90 -15t62 -33t50 -33t56 -15q35 0 55.5 23.5t20.5 64.5h133q0 -111 -51.5 -171t-143.5 -60q-48 0 -87.5 15t-61.5 33t-50.5 33t-56.5 15zM657 -10q-251 0 -409 145.5t-158 390.5q0 246 158 392.5t409 146.5
t409.5 -146.5t158.5 -392.5q0 -245 -158.5 -390.5t-409.5 -145.5zM657 147q170 0 277.5 102t107.5 277q0 176 -107.5 277.5t-277.5 101.5t-277.5 -101.5t-107.5 -277.5q0 -175 107.5 -277t277.5 -102z" />
    <glyph glyph-name="oe.sc" horiz-adv-x="1951" 
d="M1223 154h635v-154h-816v115q-153 -125 -385 -125q-251 0 -409 145.5t-158 390.5q0 246 158 392.5t409 146.5q232 0 385 -125v113h807v-154h-626v-281h567v-151h-567v-313zM657 147q170 0 277.5 102t107.5 277q0 176 -107.5 277.5t-277.5 101.5t-277.5 -101.5
t-107.5 -277.5q0 -175 107.5 -277t277.5 -102z" />
    <glyph glyph-name="p.sc" horiz-adv-x="1085" 
d="M625 1053q182 0 291.5 -85t109.5 -239t-109.5 -238.5t-291.5 -84.5h-283v-406h-180v1053h463zM625 557q105 0 162 48t57 124t-57 124t-162 48h-283v-344h283z" />
    <glyph glyph-name="thorn.sc" horiz-adv-x="1103" 
d="M625 858q182 0 291.5 -85t109.5 -238q0 -154 -109.5 -239t-291.5 -85h-283v-211h-180v1053h180v-195h283zM625 362q105 0 162 48t57 125q0 75 -57 123.5t-162 48.5h-283v-345h283z" />
    <glyph glyph-name="q.sc" horiz-adv-x="1316" 
d="M1225 526q0 -214 -122.5 -353.5t-326.5 -172.5q101 -80 260 -80l11 -168q-150 0 -270 65t-189 175q-224 21 -361 163.5t-137 370.5q0 246 158 392.5t409 146.5t409.5 -146.5t158.5 -392.5zM657 147q170 0 277.5 102t107.5 277q0 176 -107.5 277.5t-277.5 101.5
t-277.5 -101.5t-107.5 -277.5q0 -175 107.5 -277t277.5 -102z" />
    <glyph glyph-name="r.sc" horiz-adv-x="1161" 
d="M1096 154l12 -148q-54 -14 -107 -14q-109 0 -169.5 42t-112.5 130l-141 237h-236v-401h-180v1053h448q183 0 293.5 -86t110.5 -242q0 -114 -63.5 -191t-174.5 -110l129 -209q42 -70 121 -70q43 0 70 9zM342 901v-356h268q106 0 163.5 49t57.5 129t-57.5 129t-163.5 49
h-268z" />
    <glyph glyph-name="racute.sc" horiz-adv-x="1161" 
d="M776 1550l-186 -327h-148l107 327h227zM1096 154l12 -148q-54 -14 -107 -14q-109 0 -169.5 42t-112.5 130l-141 237h-236v-401h-180v1053h448q183 0 293.5 -86t110.5 -242q0 -114 -63.5 -191t-174.5 -110l129 -209q42 -70 121 -70q43 0 70 9zM342 901v-356h268
q106 0 163.5 49t57.5 129t-57.5 129t-163.5 49h-268z" />
    <glyph glyph-name="rcaron.sc" horiz-adv-x="1161" 
d="M639 1223h-201l-196 327h153l142 -188l143 188h154zM1096 154l12 -148q-54 -14 -107 -14q-109 0 -169.5 42t-112.5 130l-141 237h-236v-401h-180v1053h448q183 0 293.5 -86t110.5 -242q0 -114 -63.5 -191t-174.5 -110l129 -209q42 -70 121 -70q43 0 70 9zM342 901v-356
h268q106 0 163.5 49t57.5 129t-57.5 129t-163.5 49h-268z" />
    <glyph glyph-name="rcommaaccent.sc" horiz-adv-x="1161" 
d="M1096 154l12 -148q-54 -14 -107 -14q-109 0 -169.5 42t-112.5 130l-141 237h-236v-401h-180v1053h448q183 0 293.5 -86t110.5 -242q0 -114 -63.5 -191t-174.5 -110l129 -209q42 -70 121 -70q43 0 70 9zM342 901v-356h268q106 0 163.5 49t57.5 129t-57.5 129t-163.5 49
h-268zM580 -84q125 0 125 -168q0 -141 -73 -227.5t-157 -81.5v92q42 0 75.5 40t33.5 103q-55 0 -90 34.5t-35 88.5q0 55 35.5 87t85.5 32z" />
    <glyph glyph-name="s.sc" horiz-adv-x="1077" 
d="M289 772q0 -51 38.5 -82.5t100 -46.5t136 -26.5t149 -30.5t136 -50t100 -93t38.5 -152q0 -140 -117 -220.5t-325 -80.5q-215 0 -340 84.5t-125 236.5l180 -2q0 -79 73.5 -122.5t213.5 -43.5q129 0 194.5 38t63.5 110q0 43 -24 74t-64 48t-92.5 29t-110 22t-115 22
t-110 33.5t-92.5 52t-64 81.5t-24 119q0 133 118 213t312 80q197 0 314 -84t116 -231h-178q0 81 -65 121t-183 40q-254 0 -254 -139z" />
    <glyph glyph-name="sacute.sc" horiz-adv-x="1077" 
d="M780 1550l-186 -327h-148l107 327h227zM289 772q0 -51 38.5 -82.5t100 -46.5t136 -26.5t149 -30.5t136 -50t100 -93t38.5 -152q0 -140 -117 -220.5t-325 -80.5q-215 0 -340 84.5t-125 236.5l180 -2q0 -79 73.5 -122.5t213.5 -43.5q129 0 194.5 38t63.5 110q0 43 -24 74
t-64 48t-92.5 29t-110 22t-115 22t-110 33.5t-92.5 52t-64 81.5t-24 119q0 133 118 213t312 80q197 0 314 -84t116 -231h-178q0 81 -65 121t-183 40q-254 0 -254 -139z" />
    <glyph glyph-name="scaron.sc" horiz-adv-x="1077" 
d="M641 1223h-201l-196 327h153l142 -188l143 188h154zM289 772q0 -51 38.5 -82.5t100 -46.5t136 -26.5t149 -30.5t136 -50t100 -93t38.5 -152q0 -140 -117 -220.5t-325 -80.5q-215 0 -340 84.5t-125 236.5l180 -2q0 -79 73.5 -122.5t213.5 -43.5q129 0 194.5 38t63.5 110
q0 43 -24 74t-64 48t-92.5 29t-110 22t-115 22t-110 33.5t-92.5 52t-64 81.5t-24 119q0 133 118 213t312 80q197 0 314 -84t116 -231h-178q0 81 -65 121t-183 40q-254 0 -254 -139z" />
    <glyph glyph-name="scedilla.sc" horiz-adv-x="1077" 
d="M987 291q0 -134 -108 -214.5t-301 -86.5l-17 -72q69 -4 116.5 -40.5t47.5 -115.5q0 -85 -61.5 -134.5t-174.5 -49.5q-67 0 -129 23l29 120q49 -18 107 -18q98 0 98 55q0 64 -166 64l37 172q-181 15 -283 97.5t-102 219.5l180 -2q0 -79 73.5 -122.5t213.5 -43.5
q129 0 194.5 38t63.5 110q0 43 -24 74t-64 48t-92.5 29t-110 22t-115 22t-110 33.5t-92.5 52t-64 81.5t-24 119q0 133 118 213t312 80q197 0 314 -84t116 -231h-178q0 81 -65 121t-183 40q-254 0 -254 -139q0 -51 38.5 -82.5t100 -46.5t136 -26.5t149 -30.5t136 -50t100 -93
t38.5 -152z" />
    <glyph glyph-name="scircumflex.sc" horiz-adv-x="1077" 
d="M539 1411l-142 -188h-153l194 327h201l195 -327h-154zM289 772q0 -51 38.5 -82.5t100 -46.5t136 -26.5t149 -30.5t136 -50t100 -93t38.5 -152q0 -140 -117 -220.5t-325 -80.5q-215 0 -340 84.5t-125 236.5l180 -2q0 -79 73.5 -122.5t213.5 -43.5q129 0 194.5 38t63.5 110
q0 43 -24 74t-64 48t-92.5 29t-110 22t-115 22t-110 33.5t-92.5 52t-64 81.5t-24 119q0 133 118 213t312 80q197 0 314 -84t116 -231h-178q0 81 -65 121t-183 40q-254 0 -254 -139z" />
    <glyph glyph-name="scommaaccent.sc" horiz-adv-x="1077" 
d="M289 772q0 -51 38.5 -82.5t100 -46.5t136 -26.5t149 -30.5t136 -50t100 -93t38.5 -152q0 -140 -117 -220.5t-325 -80.5q-215 0 -340 84.5t-125 236.5l180 -2q0 -79 73.5 -122.5t213.5 -43.5q129 0 194.5 38t63.5 110q0 43 -24 74t-64 48t-92.5 29t-110 22t-115 22
t-110 33.5t-92.5 52t-64 81.5t-24 119q0 133 118 213t312 80q197 0 314 -84t116 -231h-178q0 81 -65 121t-183 40q-254 0 -254 -139zM549 -84q125 0 125 -168q0 -141 -73 -227.5t-157 -81.5v92q42 0 75.5 40t33.5 103q-55 0 -90 34.5t-35 88.5q0 55 35.5 87t85.5 32z" />
    <glyph glyph-name="germandbls.sc" horiz-adv-x="1179" 
d="M793 598q143 -20 221 -97t78 -194q0 -140 -108 -223.5t-302 -83.5h-121v145h121q108 0 166.5 43t58.5 119q0 77 -59 123.5t-166 46.5h-82v129l205 297h-313q-76 0 -118 -35t-42 -96v-772h-180v772q0 122 85 201.5t228 79.5h573v-115z" />
    <glyph glyph-name="t.sc" horiz-adv-x="1024" 
d="M420 0v899h-387v154h956v-154h-389v-899h-180z" />
    <glyph glyph-name="tbar.sc" horiz-adv-x="1046" 
d="M1001 899h-389v-291h236v-131h-236v-477h-180v477h-233v131h233v291h-387v154h956v-154z" />
    <glyph glyph-name="tcaron.sc" horiz-adv-x="1024" 
d="M219 1534h154l141 -188l143 188h154l-195 -328h-200zM420 0v899h-387v154h956v-154h-389v-899h-180z" />
    <glyph glyph-name="uni0163.sc" horiz-adv-x="1024" 
d="M600 0h-35l-18 -82q69 -4 116.5 -40.5t47.5 -115.5q0 -85 -61.5 -134.5t-174.5 -49.5q-67 0 -129 23l29 120q49 -18 106 -18q48 0 73.5 15t25.5 40q0 64 -166 64l39 178h-33v899h-387v154h956v-154h-389v-899z" />
    <glyph glyph-name="uni021B.sc" horiz-adv-x="1024" 
d="M420 0v899h-387v154h956v-154h-389v-899h-180zM424 -469q42 0 75 40t33 103q-55 0 -89.5 34.5t-34.5 88.5q0 55 35 87t85 32q125 0 125 -168q0 -142 -72.5 -228t-156.5 -81v92z" />
    <glyph glyph-name="u.sc" horiz-adv-x="1251" 
d="M922 1053h180v-637q0 -198 -127.5 -312t-349.5 -114q-223 0 -350.5 114t-127.5 312v637h183v-637q0 -131 76.5 -200t218.5 -69t219.5 69t77.5 200v637z" />
    <glyph glyph-name="uacute.sc" horiz-adv-x="1251" 
d="M680 1206h-148l107 328h227zM922 1053h180v-637q0 -198 -127.5 -312t-349.5 -114q-223 0 -350.5 114t-127.5 312v637h183v-637q0 -131 76.5 -200t218.5 -69t219.5 69t77.5 200v637z" />
    <glyph glyph-name="ubreve.sc" horiz-adv-x="1251" 
d="M907 1524q0 -150 -74.5 -237t-207.5 -87q-135 0 -210 86.5t-75 237.5h149q0 -187 134 -187q133 0 133 187h151zM922 1053h180v-637q0 -198 -127.5 -312t-349.5 -114q-223 0 -350.5 114t-127.5 312v637h183v-637q0 -131 76.5 -200t218.5 -69t219.5 69t77.5 200v637z" />
    <glyph glyph-name="ucircumflex.sc" horiz-adv-x="1251" 
d="M330 1206l194 328h201l195 -328h-154l-141 189l-142 -189h-153zM922 1053h180v-637q0 -198 -127.5 -312t-349.5 -114q-223 0 -350.5 114t-127.5 312v637h183v-637q0 -131 76.5 -200t218.5 -69t219.5 69t77.5 200v637z" />
    <glyph glyph-name="udieresis.sc" horiz-adv-x="1251" 
d="M449 1491q51 0 81.5 -30.5t30.5 -80.5q0 -48 -30.5 -78t-81.5 -30t-82 30t-31 78q0 50 31 80.5t82 30.5zM825 1491q51 0 82 -30.5t31 -80.5q0 -48 -31 -78t-82 -30t-81.5 30t-30.5 78q0 50 30.5 80.5t81.5 30.5zM922 1053h180v-637q0 -198 -127.5 -312t-349.5 -114
q-223 0 -350.5 114t-127.5 312v637h183v-637q0 -131 76.5 -200t218.5 -69t219.5 69t77.5 200v637z" />
    <glyph glyph-name="uni1EE5.sc" horiz-adv-x="1251" 
d="M922 1053h180v-637q0 -198 -127.5 -312t-349.5 -114q-223 0 -350.5 114t-127.5 312v637h183v-637q0 -131 76.5 -200t218.5 -69t219.5 69t77.5 200v637zM627 -131q57 0 92 -34t35 -89t-35 -89t-92 -34t-92 34t-35 89t35 89t92 34z" />
    <glyph glyph-name="ugrave.sc" horiz-adv-x="1251" 
d="M569 1206l-186 328h227l107 -328h-148zM922 1053h180v-637q0 -198 -127.5 -312t-349.5 -114q-223 0 -350.5 114t-127.5 312v637h183v-637q0 -131 76.5 -200t218.5 -69t219.5 69t77.5 200v637z" />
    <glyph glyph-name="uhungarumlaut.sc" horiz-adv-x="1251" 
d="M508 1206h-141l86 328h241zM844 1206h-142l86 328h242zM922 1053h180v-637q0 -198 -127.5 -312t-349.5 -114q-223 0 -350.5 114t-127.5 312v637h183v-637q0 -131 76.5 -200t218.5 -69t219.5 69t77.5 200v637z" />
    <glyph glyph-name="umacron.sc" horiz-adv-x="1251" 
d="M344 1311v135h563v-135h-563zM922 1053h180v-637q0 -198 -127.5 -312t-349.5 -114q-223 0 -350.5 114t-127.5 312v637h183v-637q0 -131 76.5 -200t218.5 -69t219.5 69t77.5 200v637z" />
    <glyph glyph-name="uogonek.sc" horiz-adv-x="1251" 
d="M922 1053h180v-637q0 -151 -75 -255t-212 -145q-1 0 -3 -2q-153 -97 -153 -209q0 -43 23 -65.5t63 -22.5q64 0 111 37l51 -102q-63 -60 -176 -60q-99 0 -155 52t-56 141q0 115 94 205q-218 3 -342.5 116.5t-124.5 309.5v637h183v-637q0 -131 76.5 -200t218.5 -69
t219.5 69t77.5 200v637z" />
    <glyph glyph-name="uring.sc" horiz-adv-x="1251" 
d="M625 1182q-82 0 -139.5 51t-57.5 135q0 86 57 138.5t140 52.5q82 0 139 -52t57 -139q0 -84 -57 -135t-139 -51zM625 1294q35 0 56 21t21 53q0 33 -21 53.5t-56 20.5t-55.5 -20.5t-20.5 -53.5q0 -32 21 -53t55 -21zM922 1053h180v-637q0 -198 -127.5 -312t-349.5 -114
q-223 0 -350.5 114t-127.5 312v637h183v-637q0 -131 76.5 -200t218.5 -69t219.5 69t77.5 200v637z" />
    <glyph glyph-name="utilde.sc" horiz-adv-x="1251" 
d="M485 1343q-37 0 -56 -24t-19 -64h-136q0 232 195 232q50 0 90 -15t62 -33t50 -33t56 -15q35 0 55.5 23.5t20.5 64.5h133q0 -111 -51.5 -171.5t-143.5 -60.5q-48 0 -87.5 15t-61.5 33t-50.5 33t-56.5 15zM922 1053h180v-637q0 -198 -127.5 -312t-349.5 -114
q-223 0 -350.5 114t-127.5 312v637h183v-637q0 -131 76.5 -200t218.5 -69t219.5 69t77.5 200v637z" />
    <glyph glyph-name="v.sc" horiz-adv-x="1118" 
d="M907 1053h183l-437 -1053h-190l-436 1053h182l350 -858z" />
    <glyph glyph-name="w.sc" horiz-adv-x="1665" 
d="M1450 1053h180l-344 -1053h-196l-256 852l-259 -852h-196l-344 1053h180l262 -877l260 877h191l260 -877z" />
    <glyph glyph-name="wacute.sc" horiz-adv-x="1665" 
d="M1073 1534l-186 -328h-148l107 328h227zM1450 1053h180l-344 -1053h-196l-256 852l-259 -852h-196l-344 1053h180l262 -877l260 877h191l260 -877z" />
    <glyph glyph-name="wcircumflex.sc" horiz-adv-x="1665" 
d="M834 1395l-142 -189h-153l194 328h201l194 -328h-153zM1450 1053h180l-344 -1053h-196l-256 852l-259 -852h-196l-344 1053h180l262 -877l260 877h191l260 -877z" />
    <glyph glyph-name="wdieresis.sc" horiz-adv-x="1665" 
d="M655 1272q-51 0 -81.5 30t-30.5 78q0 50 30.5 80.5t81.5 30.5t82 -30.5t31 -80.5q0 -48 -31 -78t-82 -30zM1032 1272q-51 0 -81.5 30t-30.5 78q0 50 30.5 80.5t81.5 30.5t82 -30.5t31 -80.5q0 -48 -31 -78t-82 -30zM1450 1053h180l-344 -1053h-196l-256 852l-259 -852
h-196l-344 1053h180l262 -877l260 877h191l260 -877z" />
    <glyph glyph-name="wgrave.sc" horiz-adv-x="1665" 
d="M926 1206h-148l-186 328h227zM1450 1053h180l-344 -1053h-196l-256 852l-259 -852h-196l-344 1053h180l262 -877l260 877h191l260 -877z" />
    <glyph glyph-name="x.sc" horiz-adv-x="1083" 
d="M1061 0h-205l-313 434l-314 -434h-200l387 537l-377 516h207l297 -412l293 412h202l-366 -510z" />
    <glyph glyph-name="y.sc" horiz-adv-x="1083" 
d="M1055 1053l-424 -637v-416h-180v416l-424 637h196l318 -484l317 484h197z" />
    <glyph glyph-name="yacute.sc" horiz-adv-x="1083" 
d="M782 1534l-186 -328h-147l106 328h227zM1055 1053l-424 -637v-416h-180v416l-424 637h196l318 -484l317 484h197z" />
    <glyph glyph-name="ycircumflex.sc" horiz-adv-x="1083" 
d="M541 1395l-142 -189h-153l194 328h201l195 -328h-154zM1055 1053l-424 -637v-416h-180v416l-424 637h196l318 -484l317 484h197z" />
    </font>
</defs>
</svg>
